# 3ds Max Wavefront OBJ Exporter v0.97b - (c)2007 guruware
# ÆÄÀÏ »ı¼ºµÊ: 22.11.2020 20:51:24

mtllib coin.mtl

#
# object BezierCurve
#

#
# object Circle
#

v  -0.4339 0.9010 0.2018
v  -0.7818 0.6235 0.2018
v  -0.6840 0.5455 0.1768
v  -0.3796 0.7882 0.1768
v  0.0000 -1.0000 -0.1982
v  -0.4339 -0.9010 -0.1982
v  -0.3796 -0.7882 -0.1732
v  0.0000 -0.8748 -0.1732
v  -0.0000 1.0000 -0.1982
v  -0.0000 1.0000 0.2018
v  0.4339 0.9010 0.2018
v  0.4339 0.9010 -0.1982
v  0.7818 0.6235 0.2018
v  0.3796 0.7882 0.1768
v  0.6840 0.5455 0.1768
v  -0.9749 -0.2225 0.2018
v  -0.7818 -0.6235 0.2018
v  -0.6840 -0.5455 0.1768
v  -0.8529 -0.1947 0.1768
v  0.7818 0.6235 -0.1982
v  0.9749 -0.2225 -0.1982
v  0.7818 -0.6235 -0.1982
v  0.6840 -0.5455 -0.1732
v  0.8529 -0.1947 -0.1732
v  -0.7818 0.6235 -0.1982
v  -0.4339 0.9010 -0.1982
v  -0.3796 0.7882 -0.1732
v  -0.6840 0.5455 -0.1732
v  0.9749 0.2225 0.2018
v  0.9749 0.2225 -0.1982
v  0.0000 -1.0000 0.2018
v  0.4339 -0.9010 0.2018
v  0.3796 -0.7882 0.1768
v  0.0000 -0.8748 0.1768
v  0.6840 0.5455 -0.1732
v  0.3796 0.7882 -0.1732
v  0.9749 -0.2225 0.2018
v  -0.7818 -0.6235 -0.1982
v  -0.9749 -0.2225 -0.1982
v  -0.8529 -0.1947 -0.1732
v  -0.6840 -0.5455 -0.1732
v  0.8529 0.1947 0.1768
v  0.8529 -0.1947 0.1768
v  0.7818 -0.6235 0.2018
v  -0.9749 0.2225 0.2018
v  -0.8529 0.1947 0.1768
v  0.4339 -0.9010 -0.1982
v  0.3796 -0.7882 -0.1732
v  -0.4339 -0.9010 0.2018
v  -0.3796 -0.7882 0.1768
v  0.8529 0.1947 -0.1732
v  -0.9749 0.2225 -0.1982
v  -0.8529 0.1947 -0.1732
v  -0.0000 0.8748 0.1768
v  0.6840 -0.5455 0.1768
v  -0.0000 0.8748 -0.1732
v  0.3303 0.6858 0.1099
v  0.5951 0.4746 0.1099
v  -0.7421 0.1694 0.1099
v  -0.5951 0.4746 0.1099
v  -0.5951 -0.4746 -0.1166
v  -0.3303 -0.6858 -0.1166
v  0.7421 -0.1694 0.1099
v  0.5951 -0.4746 0.1099
v  0.5951 0.4746 -0.1166
v  0.3303 0.6858 -0.1166
v  -0.5951 0.4746 -0.1166
v  -0.7421 0.1694 -0.1166
v  0.0000 -0.7612 0.1099
v  -0.3303 -0.6858 0.1099
v  0.5951 -0.4746 -0.1166
v  0.7421 -0.1694 -0.1166
v  -0.0000 0.7612 0.1099
v  -0.7421 -0.1694 0.1099
v  0.0000 -0.7612 -0.1166
v  0.7421 0.1694 0.1099
v  -0.7421 -0.1694 -0.1166
v  0.3303 -0.6858 0.1099
v  -0.0000 0.7612 -0.1166
v  0.7421 0.1694 -0.1166
v  -0.3303 0.6858 0.1099
v  -0.5951 -0.4746 0.1099
v  -0.3303 0.6858 -0.1166
v  0.3303 -0.6858 -0.1166
v  -0.0000 -0.0000 -0.1166
v  -0.0000 -0.0000 0.1099
# 86 vertices

vn 0.0851 -0.1767 0.9806
vn 0.1533 -0.1223 0.9806
vn 0.0000 0.1961 -0.9806
vn 0.0851 0.1767 -0.9806
vn 0.0000 1.0000 -0.0000
vn 0.4339 0.9010 -0.0000
vn -0.1533 -0.1223 0.9806
vn -0.0851 -0.1767 0.9806
vn 0.1912 0.0436 0.9806
vn 0.1533 0.1223 0.9806
vn 0.7818 0.6235 -0.0000
vn -0.1912 0.0436 -0.9806
vn -0.1533 0.1223 -0.9806
vn 0.1533 -0.1223 -0.9806
vn 0.0851 -0.1767 -0.9806
vn 0.9749 0.2225 -0.0000
vn 0.0000 0.1961 0.9806
vn -0.0851 0.1767 0.9806
vn -0.0851 -0.1767 -0.9806
vn -0.1533 -0.1223 -0.9806
vn 0.9749 -0.2225 -0.0000
vn 0.1533 0.1223 -0.9806
vn 0.1912 0.0436 -0.9806
vn -0.1912 0.0436 0.9806
vn -0.1912 -0.0436 0.9806
vn 0.7818 -0.6235 -0.0000
vn 0.1912 -0.0436 0.9806
vn -0.0851 0.1767 -0.9806
vn 0.4339 -0.9010 -0.0000
vn 0.0851 0.1767 0.9806
vn -0.1912 -0.0436 -0.9806
vn 0.0000 -1.0000 -0.0000
vn 0.1912 -0.0436 -0.9806
vn 0.0000 -0.1961 0.9806
vn -0.4339 -0.9010 -0.0000
vn -0.1533 0.1223 0.9806
vn -0.7818 -0.6235 -0.0000
vn -0.9749 -0.2225 -0.0000
vn 0.0000 -0.1961 -0.9806
vn -0.9749 0.2225 -0.0000
vn -0.7818 0.6235 -0.0000
vn -0.4339 0.9010 -0.0000
vn -0.3965 -0.3162 0.8619
vn -0.2200 -0.4569 0.8619
vn 0.3965 -0.3162 0.8619
vn 0.4944 -0.1128 0.8619
vn 0.1935 0.4017 -0.8951
vn 0.3486 0.2780 -0.8951
vn -0.3965 0.3162 0.8619
vn -0.4944 0.1128 0.8619
vn -0.1935 -0.4017 -0.8951
vn -0.3486 -0.2780 -0.8951
vn 0.4347 -0.0992 -0.8951
vn 0.3486 -0.2780 -0.8951
vn 0.2200 0.4569 0.8619
vn 0.0000 0.5071 0.8619
vn -0.4347 0.0992 -0.8951
vn -0.3486 0.2780 -0.8951
vn 0.0000 -0.5071 0.8619
vn 0.4944 0.1128 0.8619
vn 0.0000 0.4459 -0.8951
vn -0.4944 -0.1128 0.8619
vn 0.4347 0.0992 -0.8951
vn -0.2200 0.4569 0.8619
vn 0.0000 -0.4459 -0.8951
vn -0.4347 -0.0992 -0.8951
vn 0.2200 -0.4569 0.8619
vn 0.3965 0.3162 0.8619
vn 0.1935 -0.4017 -0.8951
vn -0.1935 0.4017 -0.8951
vn 0.0000 0.0000 -1.0000
vn 0.0000 0.0000 1.0000
# 72 vertex normals

vt 0.2891 0.7927 0.0000
vt 0.1761 0.7383 0.0000
vt 0.1985 0.7103 0.0000
vt 0.2971 0.7577 0.0000
vt 0.4119 0.2447 0.0000
vt 0.5248 0.2980 0.0000
vt 0.5027 0.3261 0.0000
vt 0.4042 0.2795 0.0000
vt 0.7463 0.9712 0.0000
vt 0.6848 0.9712 0.0000
vt 0.6848 0.9028 0.0000
vt 0.7463 0.9028 0.0000
vt 0.6057 0.6402 0.0000
vt 0.5275 0.7383 0.0000
vt 0.5052 0.7102 0.0000
vt 0.5735 0.6246 0.0000
vt 0.0700 0.5179 0.0000
vt 0.0979 0.3956 0.0000
vt 0.1302 0.4112 0.0000
vt 0.1058 0.5180 0.0000
vt 0.6848 0.8343 0.0000
vt 0.7463 0.8343 0.0000
vt 0.0977 0.3988 0.0000
vt 0.1748 0.3006 0.0000
vt 0.1973 0.3284 0.0000
vt 0.1299 0.4141 0.0000
vt 0.5280 0.7369 0.0000
vt 0.4159 0.7919 0.0000
vt 0.4077 0.7572 0.0000
vt 0.5056 0.7091 0.0000
vt 0.6848 0.7659 0.0000
vt 0.7463 0.7659 0.0000
vt 0.2891 0.2432 0.0000
vt 0.4145 0.2432 0.0000
vt 0.4065 0.2781 0.0000
vt 0.2970 0.2781 0.0000
vt 0.1780 0.7395 0.0000
vt 0.0994 0.6424 0.0000
vt 0.1315 0.6267 0.0000
vt 0.2001 0.7114 0.0000
vt 0.6848 0.6975 0.0000
vt 0.7463 0.6975 0.0000
vt 0.6034 0.3951 0.0000
vt 0.6321 0.5167 0.0000
vt 0.5964 0.5169 0.0000
vt 0.5713 0.4108 0.0000
vt 0.6057 0.3956 0.0000
vt 0.6336 0.5179 0.0000
vt 0.5978 0.5179 0.0000
vt 0.5734 0.4111 0.0000
vt 0.6848 0.6291 0.0000
vt 0.7463 0.6291 0.0000
vt 0.0979 0.6402 0.0000
vt 0.1302 0.6247 0.0000
vt 0.2870 0.2456 0.0000
vt 0.2952 0.2803 0.0000
vt 0.6848 0.5607 0.0000
vt 0.7463 0.5607 0.0000
vt 0.1761 0.2976 0.0000
vt 0.1984 0.3256 0.0000
vt 0.0708 0.5208 0.0000
vt 0.1065 0.5206 0.0000
vt 0.6848 0.4922 0.0000
vt 0.7463 0.4922 0.0000
vt 0.6052 0.6387 0.0000
vt 0.5729 0.6234 0.0000
vt 0.4145 0.7927 0.0000
vt 0.4066 0.7577 0.0000
vt 0.6848 0.4238 0.0000
vt 0.7463 0.4238 0.0000
vt 0.5275 0.2976 0.0000
vt 0.5052 0.3256 0.0000
vt 0.6848 0.3554 0.0000
vt 0.7463 0.3554 0.0000
vt 0.6848 0.2870 0.0000
vt 0.7463 0.2870 0.0000
vt 0.2910 0.7929 0.0000
vt 0.2987 0.7580 0.0000
vt 0.6848 0.2186 0.0000
vt 0.7463 0.2186 0.0000
vt 0.6848 0.1502 0.0000
vt 0.7463 0.1502 0.0000
vt 0.6848 0.0817 0.0000
vt 0.7463 0.0817 0.0000
vt 0.6848 0.0133 0.0000
vt 0.7463 0.0133 0.0000
vt 0.4821 0.6815 0.0000
vt 0.5402 0.6088 0.0000
vt 0.1633 0.6085 0.0000
vt 0.2213 0.6813 0.0000
vt 0.5396 0.4265 0.0000
vt 0.4810 0.3540 0.0000
vt 0.5403 0.4273 0.0000
vt 0.4823 0.3545 0.0000
vt 0.1633 0.6110 0.0000
vt 0.2219 0.6835 0.0000
vt 0.4832 0.6817 0.0000
vt 0.5408 0.6084 0.0000
vt 0.3054 0.3140 0.0000
vt 0.2215 0.3543 0.0000
vt 0.2197 0.3558 0.0000
vt 0.1620 0.4291 0.0000
vt 0.3982 0.7218 0.0000
vt 0.1427 0.5178 0.0000
vt 0.3967 0.3141 0.0000
vt 0.5609 0.5180 0.0000
vt 0.5610 0.5173 0.0000
vt 0.3985 0.3141 0.0000
vt 0.3062 0.7234 0.0000
vt 0.1419 0.5202 0.0000
vt 0.3052 0.7218 0.0000
vt 0.1635 0.4271 0.0000
vt 0.3995 0.7227 0.0000
vt 0.3034 0.3148 0.0000
vt 0.3514 0.5188 0.0000
vt 0.3518 0.5179 0.0000
# 116 texture coords

o Circle
g Circle
usemtl wire_204204204
s off
f 1/1/1 2/2/2 3/3/2 
f 3/3/2 4/4/1 1/1/1 
f 5/5/3 6/6/4 7/7/4 
f 7/7/4 8/8/3 5/5/3 
f 9/9/5 10/10/5 11/11/6 
f 11/11/6 12/12/6 9/9/5 
f 13/13/7 11/14/8 14/15/8 
f 14/15/8 15/16/7 13/13/7 
f 16/17/9 17/18/10 18/19/10 
f 18/19/10 19/20/9 16/17/9 
f 12/12/6 11/11/6 13/21/11 
f 13/21/11 20/22/11 12/12/6 
f 21/23/12 22/24/13 23/25/13 
f 23/25/13 24/26/12 21/23/12 
f 25/27/14 26/28/15 27/29/15 
f 27/29/15 28/30/14 25/27/14 
f 20/22/11 13/21/11 29/31/16 
f 29/31/16 30/32/16 20/22/11 
f 31/33/17 32/34/18 33/35/18 
f 33/35/18 34/36/17 31/33/17 
f 12/37/19 20/38/20 35/39/20 
f 35/39/20 36/40/19 12/37/19 
f 30/32/16 29/31/16 37/41/21 
f 37/41/21 21/42/21 30/32/16 
f 38/43/22 39/44/23 40/45/23 
f 40/45/23 41/46/22 38/43/22 
f 37/47/24 29/48/25 42/49/25 
f 42/49/25 43/50/24 37/47/24 
f 21/42/21 37/41/21 44/51/26 
f 44/51/26 22/52/26 21/42/21 
f 2/2/2 45/53/27 46/54/27 
f 46/54/27 3/3/2 2/2/2 
f 47/55/28 5/5/3 8/8/3 
f 8/8/3 48/56/28 47/55/28 
f 22/52/26 44/51/26 32/57/29 
f 32/57/29 47/58/29 22/52/26 
f 17/18/10 49/59/30 50/60/30 
f 50/60/30 18/19/10 17/18/10 
f 30/61/31 21/23/12 24/26/12 
f 24/26/12 51/62/31 30/61/31 
f 47/58/29 32/57/29 31/63/32 
f 31/63/32 5/64/32 47/58/29 
f 52/65/33 25/27/14 28/30/14 
f 28/30/14 53/66/33 52/65/33 
f 11/14/8 10/67/34 54/68/34 
f 54/68/34 14/15/8 11/14/8 
f 5/64/32 31/63/32 49/69/35 
f 49/69/35 6/70/35 5/64/32 
f 32/34/18 44/71/36 55/72/36 
f 55/72/36 33/35/18 32/34/18 
f 6/6/4 38/43/22 41/46/22 
f 41/46/22 7/7/4 6/6/4 
f 6/70/35 49/69/35 17/73/37 
f 17/73/37 38/74/37 6/70/35 
f 29/48/25 13/13/7 15/16/7 
f 15/16/7 42/49/25 29/48/25 
f 45/53/27 16/17/9 19/20/9 
f 19/20/9 46/54/27 45/53/27 
f 38/74/37 17/73/37 16/75/38 
f 16/75/38 39/76/38 38/74/37 
f 22/24/13 47/55/28 48/56/28 
f 48/56/28 23/25/13 22/24/13 
f 9/77/39 12/37/19 36/40/19 
f 36/40/19 56/78/39 9/77/39 
f 39/76/38 16/75/38 45/79/40 
f 45/79/40 52/80/40 39/76/38 
f 10/67/34 1/1/1 4/4/1 
f 4/4/1 54/68/34 10/67/34 
f 26/28/15 9/77/39 56/78/39 
f 56/78/39 27/29/15 26/28/15 
f 52/80/40 45/79/40 2/81/41 
f 2/81/41 25/82/41 52/80/40 
f 49/59/30 31/33/17 34/36/17 
f 34/36/17 50/60/30 49/59/30 
f 20/38/20 30/61/31 51/62/31 
f 51/62/31 35/39/20 20/38/20 
f 25/82/41 2/81/41 1/83/42 
f 1/83/42 26/84/42 25/82/41 
f 39/44/23 52/65/33 53/66/33 
f 53/66/33 40/45/23 39/44/23 
f 44/71/36 37/47/24 43/50/24 
f 43/50/24 55/72/36 44/71/36 
f 26/84/42 1/83/42 10/85/5 
f 10/85/5 9/86/5 26/84/42 
f 15/16/43 14/15/44 57/87/44 
f 57/87/44 58/88/43 15/16/43 
f 3/3/45 46/54/46 59/89/46 
f 59/89/46 60/90/45 3/3/45 
f 7/7/47 41/46/48 61/91/48 
f 61/91/48 62/92/47 7/7/47 
f 55/72/49 43/50/50 63/93/50 
f 63/93/50 64/94/49 55/72/49 
f 36/40/51 35/39/52 65/95/52 
f 65/95/52 66/96/51 36/40/51 
f 53/66/53 28/30/54 67/97/54 
f 67/97/54 68/98/53 53/66/53 
f 50/60/55 34/36/56 69/99/56 
f 69/99/56 70/100/55 50/60/55 
f 24/26/57 23/25/58 71/101/58 
f 71/101/58 72/102/57 24/26/57 
f 14/15/44 54/68/59 73/103/59 
f 73/103/59 57/87/44 14/15/44 
f 46/54/46 19/20/60 74/104/60 
f 74/104/60 59/89/46 46/54/46 
f 8/8/61 7/7/47 62/92/47 
f 62/92/47 75/105/61 8/8/61 
f 43/50/50 42/49/62 76/106/62 
f 76/106/62 63/93/50 43/50/50 
f 40/45/63 53/66/53 68/98/53 
f 68/98/53 77/107/63 40/45/63 
f 34/36/56 33/35/64 78/108/64 
f 78/108/64 69/99/56 34/36/56 
f 56/78/65 36/40/51 66/96/51 
f 66/96/51 79/109/65 56/78/65 
f 51/62/66 24/26/57 72/102/57 
f 72/102/57 80/110/66 51/62/66 
f 54/68/59 4/4/67 81/111/67 
f 81/111/67 73/103/59 54/68/59 
f 19/20/60 18/19/68 82/112/68 
f 82/112/68 74/104/60 19/20/60 
f 27/29/69 56/78/65 79/109/65 
f 79/109/65 83/113/69 27/29/69 
f 48/56/70 8/8/61 75/105/61 
f 75/105/61 84/114/70 48/56/70 
f 42/49/62 15/16/43 58/88/43 
f 58/88/43 76/106/62 42/49/62 
f 4/4/67 3/3/45 60/90/45 
f 60/90/45 81/111/67 4/4/67 
f 41/46/48 40/45/63 77/107/63 
f 77/107/63 61/91/48 41/46/48 
f 33/35/64 55/72/49 64/94/49 
f 64/94/49 78/108/64 33/35/64 
f 35/39/52 51/62/66 80/110/66 
f 80/110/66 65/95/52 35/39/52 
f 28/30/54 27/29/69 83/113/69 
f 83/113/69 67/97/54 28/30/54 
f 18/19/68 50/60/55 70/100/55 
f 70/100/55 82/112/68 18/19/68 
f 23/25/58 48/56/70 84/114/70 
f 84/114/70 71/101/58 23/25/58 
f 85/115/71 79/109/71 66/96/71 
f 86/116/72 57/87/72 73/103/72 
f 85/115/71 66/96/71 65/95/71 
f 86/116/72 58/88/72 57/87/72 
f 85/115/71 65/95/71 80/110/71 
f 86/116/72 76/106/72 58/88/72 
f 85/115/71 80/110/71 72/102/71 
f 86/116/72 63/93/72 76/106/72 
f 85/115/71 72/102/71 71/101/71 
f 86/116/72 64/94/72 63/93/72 
f 85/115/71 71/101/71 84/114/71 
f 86/116/72 78/108/72 64/94/72 
f 85/115/71 84/114/71 75/105/71 
f 86/116/72 69/99/72 78/108/72 
f 85/115/71 75/105/71 62/92/71 
f 86/116/72 70/100/72 69/99/72 
f 85/115/71 62/92/71 61/91/71 
f 86/116/72 82/112/72 70/100/72 
f 85/115/71 61/91/71 77/107/71 
f 86/116/72 74/104/72 82/112/72 
f 85/115/71 77/107/71 68/98/71 
f 86/116/72 59/89/72 74/104/72 
f 85/115/71 68/98/71 67/97/71 
f 86/116/72 60/90/72 59/89/72 
f 85/115/71 67/97/71 83/113/71 
f 86/116/72 81/111/72 60/90/72 
f 85/115/71 83/113/71 79/109/71 
f 86/116/72 73/103/72 81/111/72 
# 168 faces

