# 3ds Max Wavefront OBJ Exporter v0.97b - (c)2007 guruware
# ÆÄÀÏ »ı¼ºµÊ: 14.12.2020 17:22:53

mtllib tile_treeQuad.mtl

#
# object tree
#

v  0.3250 0.4800 0.4650
v  0.3250 0.7320 0.3474
v  0.2260 0.4800 0.4240
v  0.3092 0.7320 0.3408
v  0.1850 0.4800 0.3250
v  0.3026 0.7320 0.3250
v  0.3474 0.7320 0.3250
v  0.3408 0.7320 0.3092
v  0.3408 0.7320 0.3408
v  0.3250 0.7320 0.3026
v  0.3092 0.7320 0.3092
v  0.2013 0.3400 0.2013
v  0.1500 0.3400 0.3250
v  0.2416 0.4450 0.2416
v  0.2070 0.4450 0.3250
v  0.4650 0.4800 0.3250
v  0.4240 0.4800 0.4240
v  0.4650 0.4450 0.3250
v  0.4240 0.4450 0.4240
v  0.4430 0.4450 0.3250
v  0.4084 0.4450 0.4084
v  0.5000 0.3400 0.3250
v  0.4487 0.3400 0.4487
v  0.3250 0.3400 0.5000
v  0.3250 0.4450 0.4430
v  0.2013 0.3400 0.4487
v  0.2416 0.4450 0.4084
v  0.1850 0.4450 0.3250
v  0.2260 0.4450 0.4240
v  0.2260 0.4450 0.2260
v  0.2260 0.4800 0.2260
v  0.3250 0.4450 0.1850
v  0.3250 0.4800 0.1850
v  0.5000 0.3050 0.3250
v  0.4487 0.3050 0.4487
v  0.4487 0.3050 0.2013
v  0.3250 0.3050 0.5000
v  0.3622 0.3050 0.3622
v  0.3622 0.3050 0.2878
v  0.2878 0.3050 0.3622
v  0.2013 0.3050 0.4487
v  0.3250 0.3050 0.1500
v  0.2878 0.3050 0.2878
v  0.2013 0.3050 0.2013
v  0.1500 0.3050 0.3250
v  0.4487 0.3400 0.2013
v  0.3250 0.3400 0.1500
v  0.4084 0.4450 0.2416
v  0.3250 0.4450 0.4650
v  0.4240 0.4450 0.2260
v  0.3250 0.4450 0.2070
v  0.4240 0.4800 0.2260
v  0.2813 0.2000 0.2813
v  0.3688 0.2000 0.2813
v  0.3688 0.2000 0.3687
v  0.2813 0.2000 0.3687
v  -0.3250 0.4800 -0.1850
v  -0.3250 0.7320 -0.3026
v  -0.4240 0.4800 -0.2260
v  -0.3408 0.7320 -0.3092
v  -0.4650 0.4800 -0.3250
v  -0.3474 0.7320 -0.3250
v  -0.3026 0.7320 -0.3250
v  -0.3092 0.7320 -0.3408
v  -0.3092 0.7320 -0.3092
v  -0.3250 0.7320 -0.3474
v  -0.3408 0.7320 -0.3408
v  -0.4487 0.3400 -0.4487
v  -0.5000 0.3400 -0.3250
v  -0.4084 0.4450 -0.4084
v  -0.4430 0.4450 -0.3250
v  -0.1850 0.4800 -0.3250
v  -0.2260 0.4800 -0.2260
v  -0.1850 0.4450 -0.3250
v  -0.2260 0.4450 -0.2260
v  -0.2070 0.4450 -0.3250
v  -0.2416 0.4450 -0.2416
v  -0.1500 0.3400 -0.3250
v  -0.2013 0.3400 -0.2013
v  -0.3250 0.3400 -0.1500
v  -0.3250 0.4450 -0.2070
v  -0.4487 0.3400 -0.2013
v  -0.4084 0.4450 -0.2416
v  -0.4650 0.4450 -0.3250
v  -0.4240 0.4450 -0.2260
v  -0.4240 0.4450 -0.4240
v  -0.4240 0.4800 -0.4240
v  -0.3250 0.4450 -0.4650
v  -0.3250 0.4800 -0.4650
v  -0.1500 0.3050 -0.3250
v  -0.2013 0.3050 -0.2013
v  -0.2013 0.3050 -0.4487
v  -0.3250 0.3050 -0.1500
v  -0.2878 0.3050 -0.2878
v  -0.2878 0.3050 -0.3622
v  -0.3622 0.3050 -0.2878
v  -0.4487 0.3050 -0.2013
v  -0.3250 0.3050 -0.5000
v  -0.3622 0.3050 -0.3622
v  -0.4487 0.3050 -0.4487
v  -0.5000 0.3050 -0.3250
v  -0.2013 0.3400 -0.4487
v  -0.3250 0.3400 -0.5000
v  -0.2416 0.4450 -0.4084
v  -0.3250 0.4450 -0.1850
v  -0.2260 0.4450 -0.4240
v  -0.3250 0.4450 -0.4430
v  -0.2260 0.4800 -0.4240
v  -0.3688 0.2000 -0.3688
v  -0.2813 0.2000 -0.3688
v  -0.2813 0.2000 -0.2813
v  -0.3688 0.2000 -0.2813
v  0.2500 0.6000 -0.0500
v  0.2500 0.9600 -0.2180
v  0.1086 0.6000 -0.1086
v  0.2274 0.9600 -0.2274
v  0.0500 0.6000 -0.2500
v  0.2180 0.9600 -0.2500
v  0.2820 0.9600 -0.2500
v  0.2726 0.9600 -0.2726
v  0.2726 0.9600 -0.2274
v  0.2500 0.9600 -0.2820
v  0.2274 0.9600 -0.2726
v  0.0732 0.4000 -0.4268
v  0.0000 0.4000 -0.2500
v  0.1308 0.5500 -0.3692
v  0.0814 0.5500 -0.2500
v  0.4500 0.6000 -0.2500
v  0.3914 0.6000 -0.1086
v  0.4500 0.5500 -0.2500
v  0.3914 0.5500 -0.1086
v  0.4186 0.5500 -0.2500
v  0.3692 0.5500 -0.1308
v  0.5000 0.4000 -0.2500
v  0.4268 0.4000 -0.0732
v  0.2500 0.4000 -0.0000
v  0.2500 0.5500 -0.0814
v  0.0732 0.4000 -0.0732
v  0.1308 0.5500 -0.1308
v  0.0500 0.5500 -0.2500
v  0.1086 0.5500 -0.1086
v  0.1086 0.5500 -0.3914
v  0.1086 0.6000 -0.3914
v  0.2500 0.5500 -0.4500
v  0.2500 0.6000 -0.4500
v  0.5000 0.3500 -0.2500
v  0.4268 0.3500 -0.0732
v  0.4268 0.3500 -0.4268
v  0.2500 0.3500 -0.0000
v  0.3031 0.3500 -0.1969
v  0.3031 0.3500 -0.3031
v  0.1969 0.3500 -0.1969
v  0.0732 0.3500 -0.0732
v  0.2500 0.3500 -0.5000
v  0.1969 0.3500 -0.3031
v  0.0732 0.3500 -0.4268
v  0.0000 0.3500 -0.2500
v  0.4268 0.4000 -0.4268
v  0.2500 0.4000 -0.5000
v  0.3692 0.5500 -0.3692
v  0.2500 0.5500 -0.0500
v  0.3914 0.5500 -0.3914
v  0.2500 0.5500 -0.4186
v  0.3914 0.6000 -0.3914
v  0.1875 0.2000 -0.3125
v  0.3125 0.2000 -0.3125
v  0.3125 0.2000 -0.1875
v  0.1875 0.2000 -0.1875
v  -0.2500 0.6000 0.4500
v  -0.2500 0.9600 0.2820
v  -0.3914 0.6000 0.3914
v  -0.2726 0.9600 0.2726
v  -0.4500 0.6000 0.2500
v  -0.2820 0.9600 0.2500
v  -0.2180 0.9600 0.2500
v  -0.2274 0.9600 0.2274
v  -0.2274 0.9600 0.2726
v  -0.2500 0.9600 0.2180
v  -0.2726 0.9600 0.2274
v  -0.4268 0.4000 0.0732
v  -0.5000 0.4000 0.2500
v  -0.3692 0.5500 0.1308
v  -0.4186 0.5500 0.2500
v  -0.0500 0.6000 0.2500
v  -0.1086 0.6000 0.3914
v  -0.0500 0.5500 0.2500
v  -0.1086 0.5500 0.3914
v  -0.0814 0.5500 0.2500
v  -0.1308 0.5500 0.3692
v  0.0000 0.4000 0.2500
v  -0.0732 0.4000 0.4268
v  -0.2500 0.4000 0.5000
v  -0.2500 0.5500 0.4186
v  -0.4268 0.4000 0.4268
v  -0.3692 0.5500 0.3692
v  -0.4500 0.5500 0.2500
v  -0.3914 0.5500 0.3914
v  -0.3914 0.5500 0.1086
v  -0.3914 0.6000 0.1086
v  -0.2500 0.5500 0.0500
v  -0.2500 0.6000 0.0500
v  0.0000 0.3500 0.2500
v  -0.0732 0.3500 0.4268
v  -0.0732 0.3500 0.0732
v  -0.2500 0.3500 0.5000
v  -0.1969 0.3500 0.3031
v  -0.1969 0.3500 0.1969
v  -0.3031 0.3500 0.3031
v  -0.4268 0.3500 0.4268
v  -0.2500 0.3500 -0.0000
v  -0.3031 0.3500 0.1969
v  -0.4268 0.3500 0.0732
v  -0.5000 0.3500 0.2500
v  -0.0732 0.4000 0.0732
v  -0.2500 0.4000 -0.0000
v  -0.1308 0.5500 0.1308
v  -0.2500 0.5500 0.4500
v  -0.1086 0.5500 0.1086
v  -0.2500 0.5500 0.0814
v  -0.1086 0.6000 0.1086
v  -0.3125 0.2000 0.1875
v  -0.1875 0.2000 0.1875
v  -0.1875 0.2000 0.3125
v  -0.3125 0.2000 0.3125
# 224 vertices

vn -0.3514 0.3959 0.8484
vn -0.8484 0.3959 0.3514
vn 0.0000 1.0000 -0.0000
vn -0.8258 0.4483 -0.3421
vn 0.9239 0.0000 0.3827
vn 0.8258 0.4483 0.3421
vn 0.8484 0.3959 0.3514
vn -0.3421 0.4483 0.8258
vn -0.9239 0.0000 0.3827
vn 0.3514 0.3959 0.8484
vn -0.3827 0.0000 -0.9239
vn 0.0000 -1.0000 -0.0000
vn -0.8258 0.4483 0.3421
vn -0.3514 0.3959 -0.8484
vn 0.9239 0.0000 -0.3827
vn 0.3827 0.0000 -0.9239
vn -0.9239 0.0000 -0.3827
vn 0.8258 0.4483 -0.3421
vn -0.3827 0.0000 0.9239
vn 0.3827 0.0000 0.9239
vn -0.3421 0.4483 -0.8258
vn 0.3514 0.3959 -0.8484
vn 0.3421 0.4483 0.8258
vn 0.8484 0.3959 -0.3514
vn 0.3421 0.4483 -0.8258
vn -0.8484 0.3959 -0.3514
vn 0.0000 0.0624 -0.9981
vn 0.9981 0.0624 -0.0000
vn -0.9981 0.0624 -0.0000
vn 0.0000 0.0624 0.9981
# 30 vertex normals

vt 6.0265 23.1622 0.0000
vt 0.9642 54.0310 0.0000
vt -6.0265 23.1622 0.0000
vt -0.9642 54.0310 0.0000
vt -2.5197 0.0000 0.0000
vt -1.7817 -1.7817 0.0000
vt -1.7817 1.7817 0.0000
vt 0.0000 -2.5197 0.0000
vt 0.0000 2.5197 0.0000
vt 1.7817 -1.7817 0.0000
vt 1.7817 1.7817 0.0000
vt 2.5197 0.0000 0.0000
vt -7.5331 5.9229 0.0000
vt 7.5331 5.9229 0.0000
vt -5.0793 19.1364 0.0000
vt 5.0793 19.1364 0.0000
vt 6.0265 31.4961 0.0000
vt -6.0265 31.4961 0.0000
vt 6.0265 27.5591 0.0000
vt -6.0265 27.5591 0.0000
vt 19.6850 0.0000 0.0000
vt 13.9194 13.9194 0.0000
vt 13.9194 -13.9194 0.0000
vt -0.0000 19.6850 0.0000
vt 4.1831 4.1831 0.0000
vt 4.1831 -4.1831 0.0000
vt -4.1831 4.1831 0.0000
vt -13.9194 13.9194 0.0000
vt -0.0000 -19.6850 0.0000
vt -4.1831 -4.1831 0.0000
vt -13.9194 -13.9194 0.0000
vt -19.6850 0.0000 0.0000
vt 7.5331 15.7480 0.0000
vt -7.5331 15.7480 0.0000
vt 7.5331 11.8110 0.0000
vt -7.5331 11.8110 0.0000
vt 15.7480 0.0000 0.0000
vt 11.1355 11.1355 0.0000
vt 13.2729 -0.0000 0.0000
vt 9.3854 9.3854 0.0000
vt -0.0000 15.7480 0.0000
vt -0.0000 13.2729 0.0000
vt -9.3854 9.3854 0.0000
vt -11.1355 11.1355 0.0000
vt -13.2729 0.0000 0.0000
vt -15.7480 0.0000 0.0000
vt 11.1355 -11.1355 0.0000
vt 9.3854 -9.3854 0.0000
vt -0.0000 -15.7480 0.0000
vt -0.0000 -13.2729 0.0000
vt -9.3854 -9.3854 0.0000
vt -11.1355 -11.1355 0.0000
vt 4.9213 -0.3070 0.0000
vt 4.1831 11.5271 0.0000
vt -4.9213 -0.3070 0.0000
vt -4.1831 11.5271 0.0000
vt 4.9213 -4.9213 0.0000
vt 4.9213 4.9213 0.0000
vt -4.9213 -4.9213 0.0000
vt -4.9213 4.9213 0.0000
# 60 texture coords

o tree
g tree
usemtl tile_treeQuad_foliage
s off
f 1/1/1 2/2/1 3/3/1 
f 4/4/1 3/3/1 2/2/1 
f 5/3/2 3/1/2 6/4/2 
f 4/2/2 6/4/2 3/1/2 
f 7/5/3 8/6/3 9/7/3 
f 10/8/3 9/7/3 8/6/3 
f 2/9/3 9/7/3 10/8/3 
f 11/10/3 2/9/3 10/8/3 
f 4/11/3 2/9/3 11/10/3 
f 6/12/3 4/11/3 11/10/3 
f 12/13/4 13/14/4 14/15/4 
f 15/16/4 14/15/4 13/14/4 
f 16/17/5 17/18/5 18/19/5 
f 19/20/5 18/19/5 17/18/5 
f 20/16/6 21/15/6 22/14/6 
f 23/13/6 22/14/6 21/15/6 
f 7/2/7 9/4/7 16/1/7 
f 17/3/7 16/1/7 9/4/7 
f 24/14/8 25/16/8 26/13/8 
f 27/15/8 26/13/8 25/16/8 
f 28/20/9 29/19/9 5/18/9 
f 3/17/9 5/18/9 29/19/9 
f 17/1/10 9/2/10 1/3/10 
f 2/4/10 1/3/10 9/2/10 
f 30/19/11 31/17/11 32/20/11 
f 33/18/11 32/20/11 31/17/11 
f 34/21/12 35/22/12 36/23/12 
f 37/24/12 36/23/12 35/22/12 
f 38/25/12 36/23/12 37/24/12 
f 39/26/12 36/23/12 38/25/12 
f 40/27/12 38/25/12 37/24/12 
f 41/28/12 40/27/12 37/24/12 
f 36/23/12 39/26/12 42/29/12 
f 43/30/12 42/29/12 39/26/12 
f 44/31/12 42/29/12 43/30/12 
f 40/27/12 44/31/12 43/30/12 
f 41/28/12 44/31/12 40/27/12 
f 45/32/12 44/31/12 41/28/12 
f 13/13/13 26/14/13 15/15/13 
f 27/16/13 15/15/13 26/14/13 
f 31/1/14 11/2/14 33/3/14 
f 10/4/14 33/3/14 11/2/14 
f 46/33/15 22/34/15 36/35/15 
f 34/36/15 36/35/15 22/34/15 
f 42/35/16 47/33/16 36/36/16 
f 46/34/16 36/36/16 47/33/16 
f 22/33/5 23/34/5 34/35/5 
f 35/36/5 34/35/5 23/34/5 
f 30/20/17 28/19/17 31/18/17 
f 5/17/17 31/18/17 28/19/17 
f 46/14/18 48/16/18 22/13/18 
f 20/15/18 22/13/18 48/16/18 
f 37/35/19 24/33/19 41/36/19 
f 26/34/19 41/36/19 24/33/19 
f 18/37/12 19/38/12 20/39/12 
f 21/40/12 20/39/12 19/38/12 
f 49/41/12 21/40/12 19/38/12 
f 25/42/12 21/40/12 49/41/12 
f 27/43/12 25/42/12 49/41/12 
f 29/44/12 27/43/12 49/41/12 
f 15/45/12 27/43/12 29/44/12 
f 28/46/12 15/45/12 29/44/12 
f 18/37/12 20/39/12 50/47/12 
f 48/48/12 50/47/12 20/39/12 
f 32/49/12 50/47/12 48/48/12 
f 51/50/12 32/49/12 48/48/12 
f 14/51/12 32/49/12 51/50/12 
f 30/52/12 32/49/12 14/51/12 
f 15/45/12 30/52/12 14/51/12 
f 28/46/12 30/52/12 15/45/12 
f 32/19/16 33/17/16 50/20/16 
f 52/18/16 50/20/16 33/17/16 
f 52/17/15 16/18/15 50/19/15 
f 18/20/15 50/19/15 16/18/15 
f 19/19/20 17/17/20 49/20/20 
f 1/18/20 49/20/20 17/17/20 
f 49/19/19 1/17/19 29/20/19 
f 3/18/19 29/20/19 1/17/19 
f 45/36/9 41/35/9 13/34/9 
f 26/33/9 13/34/9 41/35/9 
f 12/14/21 14/16/21 47/13/21 
f 51/15/21 47/13/21 14/16/21 
f 33/1/22 10/2/22 52/3/22 
f 8/4/22 52/3/22 10/2/22 
f 23/14/23 21/16/23 24/13/23 
f 25/15/23 24/13/23 21/16/23 
f 52/1/24 8/2/24 16/3/24 
f 7/4/24 16/3/24 8/2/24 
f 47/14/25 51/16/25 46/13/25 
f 48/15/25 46/13/25 51/16/25 
f 44/35/11 12/33/11 42/36/11 
f 47/34/11 42/36/11 12/33/11 
f 31/3/26 5/1/26 11/4/26 
f 6/2/26 11/4/26 5/1/26 
f 44/36/17 45/35/17 12/34/17 
f 13/33/17 12/34/17 45/35/17 
f 35/35/20 23/33/20 37/36/20 
f 24/34/20 37/36/20 23/33/20 
usemtl tile_treeQuad_wood
f 53/53/27 43/54/27 54/55/27 
f 39/56/27 54/55/27 43/54/27 
f 54/53/28 39/54/28 55/55/28 
f 38/56/28 55/55/28 39/54/28 
f 53/55/29 56/53/29 43/56/29 
f 40/54/29 43/56/29 56/53/29 
f 55/53/30 38/54/30 56/55/30 
f 40/56/30 56/55/30 38/54/30 
f 54/57/12 55/58/12 53/59/12 
f 56/60/12 53/59/12 55/58/12 
usemtl tile_treeQuad_foliage
f 57/1/1 58/2/1 59/3/1 
f 60/4/1 59/3/1 58/2/1 
f 61/3/2 59/1/2 62/4/2 
f 60/2/2 62/4/2 59/1/2 
f 63/5/3 64/6/3 65/7/3 
f 66/8/3 65/7/3 64/6/3 
f 58/9/3 65/7/3 66/8/3 
f 67/10/3 58/9/3 66/8/3 
f 60/11/3 58/9/3 67/10/3 
f 62/12/3 60/11/3 67/10/3 
f 68/13/4 69/14/4 70/15/4 
f 71/16/4 70/15/4 69/14/4 
f 72/17/5 73/18/5 74/19/5 
f 75/20/5 74/19/5 73/18/5 
f 76/16/6 77/15/6 78/14/6 
f 79/13/6 78/14/6 77/15/6 
f 63/2/7 65/4/7 72/1/7 
f 73/3/7 72/1/7 65/4/7 
f 80/14/8 81/16/8 82/13/8 
f 83/15/8 82/13/8 81/16/8 
f 84/20/9 85/19/9 61/18/9 
f 59/17/9 61/18/9 85/19/9 
f 73/1/10 65/2/10 57/3/10 
f 58/4/10 57/3/10 65/2/10 
f 86/19/11 87/17/11 88/20/11 
f 89/18/11 88/20/11 87/17/11 
f 90/21/12 91/22/12 92/23/12 
f 93/24/12 92/23/12 91/22/12 
f 94/25/12 92/23/12 93/24/12 
f 95/26/12 92/23/12 94/25/12 
f 96/27/12 94/25/12 93/24/12 
f 97/28/12 96/27/12 93/24/12 
f 92/23/12 95/26/12 98/29/12 
f 99/30/12 98/29/12 95/26/12 
f 100/31/12 98/29/12 99/30/12 
f 96/27/12 100/31/12 99/30/12 
f 97/28/12 100/31/12 96/27/12 
f 101/32/12 100/31/12 97/28/12 
f 69/13/13 82/14/13 71/15/13 
f 83/16/13 71/15/13 82/14/13 
f 87/1/14 67/2/14 89/3/14 
f 66/4/14 89/3/14 67/2/14 
f 102/33/15 78/34/15 92/35/15 
f 90/36/15 92/35/15 78/34/15 
f 98/35/16 103/33/16 92/36/16 
f 102/34/16 92/36/16 103/33/16 
f 78/33/5 79/34/5 90/35/5 
f 91/36/5 90/35/5 79/34/5 
f 86/20/17 84/19/17 87/18/17 
f 61/17/17 87/18/17 84/19/17 
f 102/14/18 104/16/18 78/13/18 
f 76/15/18 78/13/18 104/16/18 
f 93/35/19 80/33/19 97/36/19 
f 82/34/19 97/36/19 80/33/19 
f 74/37/12 75/38/12 76/39/12 
f 77/40/12 76/39/12 75/38/12 
f 105/41/12 77/40/12 75/38/12 
f 81/42/12 77/40/12 105/41/12 
f 83/43/12 81/42/12 105/41/12 
f 85/44/12 83/43/12 105/41/12 
f 71/45/12 83/43/12 85/44/12 
f 84/46/12 71/45/12 85/44/12 
f 74/37/12 76/39/12 106/47/12 
f 104/48/12 106/47/12 76/39/12 
f 88/49/12 106/47/12 104/48/12 
f 107/50/12 88/49/12 104/48/12 
f 70/51/12 88/49/12 107/50/12 
f 86/52/12 88/49/12 70/51/12 
f 71/45/12 86/52/12 70/51/12 
f 84/46/12 86/52/12 71/45/12 
f 88/19/16 89/17/16 106/20/16 
f 108/18/16 106/20/16 89/17/16 
f 108/17/15 72/18/15 106/19/15 
f 74/20/15 106/19/15 72/18/15 
f 75/19/20 73/17/20 105/20/20 
f 57/18/20 105/20/20 73/17/20 
f 105/19/19 57/17/19 85/20/19 
f 59/18/19 85/20/19 57/17/19 
f 101/36/9 97/35/9 69/34/9 
f 82/33/9 69/34/9 97/35/9 
f 68/14/21 70/16/21 103/13/21 
f 107/15/21 103/13/21 70/16/21 
f 89/1/22 66/2/22 108/3/22 
f 64/4/22 108/3/22 66/2/22 
f 79/14/23 77/16/23 80/13/23 
f 81/15/23 80/13/23 77/16/23 
f 108/1/24 64/2/24 72/3/24 
f 63/4/24 72/3/24 64/2/24 
f 103/14/25 107/16/25 102/13/25 
f 104/15/25 102/13/25 107/16/25 
f 100/35/11 68/33/11 98/36/11 
f 103/34/11 98/36/11 68/33/11 
f 87/3/26 61/1/26 67/4/26 
f 62/2/26 67/4/26 61/1/26 
f 100/36/17 101/35/17 68/34/17 
f 69/33/17 68/34/17 101/35/17 
f 91/35/20 79/33/20 93/36/20 
f 80/34/20 93/36/20 79/33/20 
usemtl tile_treeQuad_wood
f 109/53/27 99/54/27 110/55/27 
f 95/56/27 110/55/27 99/54/27 
f 110/53/28 95/54/28 111/55/28 
f 94/56/28 111/55/28 95/54/28 
f 109/55/29 112/53/29 99/56/29 
f 96/54/29 99/56/29 112/53/29 
f 111/53/30 94/54/30 112/55/30 
f 96/56/30 112/55/30 94/54/30 
f 110/57/12 111/58/12 109/59/12 
f 112/60/12 109/59/12 111/58/12 
usemtl tile_treeQuad_foliage
f 113/1/1 114/2/1 115/3/1 
f 116/4/1 115/3/1 114/2/1 
f 117/3/2 115/1/2 118/4/2 
f 116/2/2 118/4/2 115/1/2 
f 119/5/3 120/6/3 121/7/3 
f 122/8/3 121/7/3 120/6/3 
f 114/9/3 121/7/3 122/8/3 
f 123/10/3 114/9/3 122/8/3 
f 116/11/3 114/9/3 123/10/3 
f 118/12/3 116/11/3 123/10/3 
f 124/13/4 125/14/4 126/15/4 
f 127/16/4 126/15/4 125/14/4 
f 128/17/5 129/18/5 130/19/5 
f 131/20/5 130/19/5 129/18/5 
f 132/16/6 133/15/6 134/14/6 
f 135/13/6 134/14/6 133/15/6 
f 119/2/7 121/4/7 128/1/7 
f 129/3/7 128/1/7 121/4/7 
f 136/14/8 137/16/8 138/13/8 
f 139/15/8 138/13/8 137/16/8 
f 140/20/9 141/19/9 117/18/9 
f 115/17/9 117/18/9 141/19/9 
f 129/1/10 121/2/10 113/3/10 
f 114/4/10 113/3/10 121/2/10 
f 142/19/11 143/17/11 144/20/11 
f 145/18/11 144/20/11 143/17/11 
f 146/21/12 147/22/12 148/23/12 
f 149/24/12 148/23/12 147/22/12 
f 150/25/12 148/23/12 149/24/12 
f 151/26/12 148/23/12 150/25/12 
f 152/27/12 150/25/12 149/24/12 
f 153/28/12 152/27/12 149/24/12 
f 148/23/12 151/26/12 154/29/12 
f 155/30/12 154/29/12 151/26/12 
f 156/31/12 154/29/12 155/30/12 
f 152/27/12 156/31/12 155/30/12 
f 153/28/12 156/31/12 152/27/12 
f 157/32/12 156/31/12 153/28/12 
f 125/13/13 138/14/13 127/15/13 
f 139/16/13 127/15/13 138/14/13 
f 143/1/14 123/2/14 145/3/14 
f 122/4/14 145/3/14 123/2/14 
f 158/33/15 134/34/15 148/35/15 
f 146/36/15 148/35/15 134/34/15 
f 154/35/16 159/33/16 148/36/16 
f 158/34/16 148/36/16 159/33/16 
f 134/33/5 135/34/5 146/35/5 
f 147/36/5 146/35/5 135/34/5 
f 142/20/17 140/19/17 143/18/17 
f 117/17/17 143/18/17 140/19/17 
f 158/14/18 160/16/18 134/13/18 
f 132/15/18 134/13/18 160/16/18 
f 149/35/19 136/33/19 153/36/19 
f 138/34/19 153/36/19 136/33/19 
f 130/37/12 131/38/12 132/39/12 
f 133/40/12 132/39/12 131/38/12 
f 161/41/12 133/40/12 131/38/12 
f 137/42/12 133/40/12 161/41/12 
f 139/43/12 137/42/12 161/41/12 
f 141/44/12 139/43/12 161/41/12 
f 127/45/12 139/43/12 141/44/12 
f 140/46/12 127/45/12 141/44/12 
f 130/37/12 132/39/12 162/47/12 
f 160/48/12 162/47/12 132/39/12 
f 144/49/12 162/47/12 160/48/12 
f 163/50/12 144/49/12 160/48/12 
f 126/51/12 144/49/12 163/50/12 
f 142/52/12 144/49/12 126/51/12 
f 127/45/12 142/52/12 126/51/12 
f 140/46/12 142/52/12 127/45/12 
f 144/19/16 145/17/16 162/20/16 
f 164/18/16 162/20/16 145/17/16 
f 164/17/15 128/18/15 162/19/15 
f 130/20/15 162/19/15 128/18/15 
f 131/19/20 129/17/20 161/20/20 
f 113/18/20 161/20/20 129/17/20 
f 161/19/19 113/17/19 141/20/19 
f 115/18/19 141/20/19 113/17/19 
f 157/36/9 153/35/9 125/34/9 
f 138/33/9 125/34/9 153/35/9 
f 124/14/21 126/16/21 159/13/21 
f 163/15/21 159/13/21 126/16/21 
f 145/1/22 122/2/22 164/3/22 
f 120/4/22 164/3/22 122/2/22 
f 135/14/23 133/16/23 136/13/23 
f 137/15/23 136/13/23 133/16/23 
f 164/1/24 120/2/24 128/3/24 
f 119/4/24 128/3/24 120/2/24 
f 159/14/25 163/16/25 158/13/25 
f 160/15/25 158/13/25 163/16/25 
f 156/35/11 124/33/11 154/36/11 
f 159/34/11 154/36/11 124/33/11 
f 143/3/26 117/1/26 123/4/26 
f 118/2/26 123/4/26 117/1/26 
f 156/36/17 157/35/17 124/34/17 
f 125/33/17 124/34/17 157/35/17 
f 147/35/20 135/33/20 149/36/20 
f 136/34/20 149/36/20 135/33/20 
usemtl tile_treeQuad_wood
f 165/53/27 155/54/27 166/55/27 
f 151/56/27 166/55/27 155/54/27 
f 166/53/28 151/54/28 167/55/28 
f 150/56/28 167/55/28 151/54/28 
f 165/55/29 168/53/29 155/56/29 
f 152/54/29 155/56/29 168/53/29 
f 167/53/30 150/54/30 168/55/30 
f 152/56/30 168/55/30 150/54/30 
f 166/57/12 167/58/12 165/59/12 
f 168/60/12 165/59/12 167/58/12 
usemtl tile_treeQuad_foliage
f 169/1/1 170/2/1 171/3/1 
f 172/4/1 171/3/1 170/2/1 
f 173/3/2 171/1/2 174/4/2 
f 172/2/2 174/4/2 171/1/2 
f 175/5/3 176/6/3 177/7/3 
f 178/8/3 177/7/3 176/6/3 
f 170/9/3 177/7/3 178/8/3 
f 179/10/3 170/9/3 178/8/3 
f 172/11/3 170/9/3 179/10/3 
f 174/12/3 172/11/3 179/10/3 
f 180/13/4 181/14/4 182/15/4 
f 183/16/4 182/15/4 181/14/4 
f 184/17/5 185/18/5 186/19/5 
f 187/20/5 186/19/5 185/18/5 
f 188/16/6 189/15/6 190/14/6 
f 191/13/6 190/14/6 189/15/6 
f 175/2/7 177/4/7 184/1/7 
f 185/3/7 184/1/7 177/4/7 
f 192/14/8 193/16/8 194/13/8 
f 195/15/8 194/13/8 193/16/8 
f 196/20/9 197/19/9 173/18/9 
f 171/17/9 173/18/9 197/19/9 
f 185/1/10 177/2/10 169/3/10 
f 170/4/10 169/3/10 177/2/10 
f 198/19/11 199/17/11 200/20/11 
f 201/18/11 200/20/11 199/17/11 
f 202/21/12 203/22/12 204/23/12 
f 205/24/12 204/23/12 203/22/12 
f 206/25/12 204/23/12 205/24/12 
f 207/26/12 204/23/12 206/25/12 
f 208/27/12 206/25/12 205/24/12 
f 209/28/12 208/27/12 205/24/12 
f 204/23/12 207/26/12 210/29/12 
f 211/30/12 210/29/12 207/26/12 
f 212/31/12 210/29/12 211/30/12 
f 208/27/12 212/31/12 211/30/12 
f 209/28/12 212/31/12 208/27/12 
f 213/32/12 212/31/12 209/28/12 
f 181/13/13 194/14/13 183/15/13 
f 195/16/13 183/15/13 194/14/13 
f 199/1/14 179/2/14 201/3/14 
f 178/4/14 201/3/14 179/2/14 
f 214/33/15 190/34/15 204/35/15 
f 202/36/15 204/35/15 190/34/15 
f 210/35/16 215/33/16 204/36/16 
f 214/34/16 204/36/16 215/33/16 
f 190/33/5 191/34/5 202/35/5 
f 203/36/5 202/35/5 191/34/5 
f 198/20/17 196/19/17 199/18/17 
f 173/17/17 199/18/17 196/19/17 
f 214/14/18 216/16/18 190/13/18 
f 188/15/18 190/13/18 216/16/18 
f 205/35/19 192/33/19 209/36/19 
f 194/34/19 209/36/19 192/33/19 
f 186/37/12 187/38/12 188/39/12 
f 189/40/12 188/39/12 187/38/12 
f 217/41/12 189/40/12 187/38/12 
f 193/42/12 189/40/12 217/41/12 
f 195/43/12 193/42/12 217/41/12 
f 197/44/12 195/43/12 217/41/12 
f 183/45/12 195/43/12 197/44/12 
f 196/46/12 183/45/12 197/44/12 
f 186/37/12 188/39/12 218/47/12 
f 216/48/12 218/47/12 188/39/12 
f 200/49/12 218/47/12 216/48/12 
f 219/50/12 200/49/12 216/48/12 
f 182/51/12 200/49/12 219/50/12 
f 198/52/12 200/49/12 182/51/12 
f 183/45/12 198/52/12 182/51/12 
f 196/46/12 198/52/12 183/45/12 
f 200/19/16 201/17/16 218/20/16 
f 220/18/16 218/20/16 201/17/16 
f 220/17/15 184/18/15 218/19/15 
f 186/20/15 218/19/15 184/18/15 
f 187/19/20 185/17/20 217/20/20 
f 169/18/20 217/20/20 185/17/20 
f 217/19/19 169/17/19 197/20/19 
f 171/18/19 197/20/19 169/17/19 
f 213/36/9 209/35/9 181/34/9 
f 194/33/9 181/34/9 209/35/9 
f 180/14/21 182/16/21 215/13/21 
f 219/15/21 215/13/21 182/16/21 
f 201/1/22 178/2/22 220/3/22 
f 176/4/22 220/3/22 178/2/22 
f 191/14/23 189/16/23 192/13/23 
f 193/15/23 192/13/23 189/16/23 
f 220/1/24 176/2/24 184/3/24 
f 175/4/24 184/3/24 176/2/24 
f 215/14/25 219/16/25 214/13/25 
f 216/15/25 214/13/25 219/16/25 
f 212/35/11 180/33/11 210/36/11 
f 215/34/11 210/36/11 180/33/11 
f 199/3/26 173/1/26 179/4/26 
f 174/2/26 179/4/26 173/1/26 
f 212/36/17 213/35/17 180/34/17 
f 181/33/17 180/34/17 213/35/17 
f 203/35/20 191/33/20 205/36/20 
f 192/34/20 205/36/20 191/33/20 
usemtl tile_treeQuad_wood
f 221/53/27 211/54/27 222/55/27 
f 207/56/27 222/55/27 211/54/27 
f 222/53/28 207/54/28 223/55/28 
f 206/56/28 223/55/28 207/54/28 
f 221/55/29 224/53/29 211/56/29 
f 208/54/29 211/56/29 224/53/29 
f 223/53/30 206/54/30 224/55/30 
f 208/56/30 224/55/30 206/54/30 
f 222/57/12 223/58/12 221/59/12 
f 224/60/12 221/59/12 223/58/12 
# 432 faces

