# 3ds Max Wavefront OBJ Exporter v0.97b - (c)2007 guruware
# ÆÄÀÏ »ı¼ºµÊ: 15.11.2020 00:44:08

mtllib snow_tile_tree.mtl

#
# object snow_tile_tree
#

v  0.5000 0.0000 0.5000
v  -0.5000 0.0000 0.5000
v  0.5000 -0.0000 -0.5000
v  -0.5000 -0.0000 -0.5000
v  0.5000 0.1000 -0.5000
v  0.5000 0.1000 0.5000
v  -0.5000 0.1000 0.5000
v  -0.5000 0.1000 -0.5000
v  0.5000 0.2000 -0.5000
v  -0.5000 0.2000 -0.5000
v  0.5000 0.2000 0.5000
v  -0.5000 0.2000 0.5000
# 12 vertices

vn 0.0000 -1.0000 0.0000
vn 1.0000 0.0000 -0.0000
vn 0.0000 0.0000 1.0000
vn -1.0000 0.0000 -0.0000
vn 0.0000 -0.0000 -1.0000
vn 0.0000 1.0000 -0.0000
# 6 vertex normals

vt 19.6850 19.6850 0.0000
vt -19.6850 19.6850 0.0000
vt 19.6850 -19.6850 0.0000
vt -19.6850 -19.6850 0.0000
vt 19.6850 3.9370 0.0000
vt -19.6850 3.9370 0.0000
vt 19.6850 0.0000 0.0000
vt -19.6850 0.0000 0.0000
vt 19.6850 7.8740 0.0000
vt -19.6850 7.8740 0.0000
# 10 texture coords

o snow_tile_tree
g snow_tile_tree
usemtl dirt
s off
f 1/1/1 2/2/1 3/3/1 
f 4/4/1 3/3/1 2/2/1 
f 5/5/2 6/6/2 3/7/2 
f 1/8/2 3/7/2 6/6/2 
f 1/7/3 6/5/3 2/8/3 
f 7/6/3 2/8/3 6/5/3 
f 4/8/4 2/7/4 8/6/4 
f 7/5/4 8/6/4 2/7/4 
f 4/7/5 8/5/5 3/8/5 
f 5/6/5 3/8/5 8/5/5 
usemtl snow
f 9/4/6 10/3/6 11/2/6 
f 12/1/6 11/2/6 10/3/6 
f 9/9/2 11/10/2 5/5/2 
f 6/6/2 5/5/2 11/10/2 
f 8/5/5 10/9/5 5/6/5 
f 9/10/5 5/6/5 10/9/5 
f 8/6/4 7/5/4 10/10/4 
f 12/9/4 10/10/4 7/5/4 
f 6/5/3 11/9/3 7/6/3 
f 12/10/3 7/6/3 11/9/3 
# 20 faces

#
# object tree
#

v  -0.0000 0.6000 0.2000
v  -0.0000 0.9600 0.0320
v  -0.1414 0.6000 0.1414
v  -0.0226 0.9600 0.0226
v  -0.2000 0.6000 -0.0000
v  -0.0320 0.9600 -0.0000
v  0.0320 0.9600 -0.0000
v  0.0226 0.9600 -0.0226
v  0.0226 0.9600 0.0226
v  -0.0000 0.9600 -0.0320
v  -0.0226 0.9600 -0.0226
v  -0.1768 0.4000 -0.1768
v  -0.2500 0.4000 -0.0000
v  -0.1192 0.5500 -0.1192
v  -0.1686 0.5500 -0.0000
v  0.1686 0.5500 -0.0000
v  0.1192 0.5500 0.1192
v  0.2500 0.4000 -0.0000
v  0.1768 0.4000 0.1768
v  0.2000 0.6000 -0.0000
v  0.1414 0.6000 0.1414
v  0.0000 0.4000 0.2500
v  0.0000 0.5500 0.1686
v  -0.1768 0.4000 0.1768
v  -0.1192 0.5500 0.1192
v  -0.1414 0.6000 -0.1414
v  -0.0000 0.6000 -0.2000
v  0.1768 0.4000 -0.1768
v  0.1192 0.5500 -0.1192
v  0.0000 0.4000 -0.2500
v  0.0000 0.5500 -0.1686
v  0.1414 0.6000 -0.1414
v  0.2000 0.5500 -0.0000
v  0.1414 0.5500 0.1414
v  -0.2000 0.5500 -0.0000
v  -0.1414 0.5500 0.1414
v  -0.1414 0.5500 -0.1414
v  -0.0000 0.5500 -0.2000
v  0.2500 0.3500 -0.0000
v  0.1768 0.3500 0.1768
v  0.1768 0.3500 -0.1768
v  0.0000 0.3500 0.2500
v  0.0531 0.3500 0.0531
v  0.0531 0.3500 -0.0531
v  -0.0531 0.3500 0.0531
v  -0.1768 0.3500 0.1768
v  0.0000 0.3500 -0.2500
v  -0.0531 0.3500 -0.0531
v  -0.1768 0.3500 -0.1768
v  -0.2500 0.3500 -0.0000
v  -0.0000 0.5500 0.2000
v  0.1414 0.5500 -0.1414
v  -0.0625 0.2000 -0.0625
v  0.0625 0.2000 -0.0625
v  0.0625 0.2000 0.0625
v  -0.0625 0.2000 0.0625
# 56 vertices

vn -0.3514 0.3959 0.8484
vn -0.8484 0.3959 0.3514
vn 0.0000 1.0000 -0.0000
vn -0.8258 0.4483 -0.3421
vn 0.8258 0.4483 0.3421
vn 0.8484 0.3959 0.3514
vn -0.3421 0.4483 0.8258
vn 0.3514 0.3959 0.8484
vn -0.8258 0.4483 0.3421
vn -0.3514 0.3959 -0.8484
vn 0.8258 0.4483 -0.3421
vn -0.3421 0.4483 -0.8258
vn 0.3514 0.3959 -0.8484
vn 0.3421 0.4483 0.8258
vn 0.8484 0.3959 -0.3514
vn 0.3421 0.4483 -0.8258
vn -0.8484 0.3959 -0.3514
vn 0.9239 0.0000 0.3827
vn -0.9239 0.0000 0.3827
vn -0.3827 -0.0000 -0.9239
vn 0.0000 -1.0000 0.0000
vn 0.9239 -0.0000 -0.3827
vn 0.3827 -0.0000 -0.9239
vn -0.9239 -0.0000 -0.3827
vn -0.3827 0.0000 0.9239
vn 0.3827 0.0000 0.9239
vn 0.0000 0.0624 -0.9981
vn 0.9981 0.0624 -0.0000
vn -0.9981 0.0624 -0.0000
vn 0.0000 0.0624 0.9981
# 30 vertex normals

vt 6.0265 23.1622 0.0000
vt 0.9642 54.0310 0.0000
vt -6.0265 23.1622 0.0000
vt -0.9642 54.0310 0.0000
vt -2.5197 0.0000 0.0000
vt -1.7817 -1.7817 0.0000
vt -1.7817 1.7817 0.0000
vt 0.0000 -2.5197 0.0000
vt 0.0000 2.5197 0.0000
vt 1.7817 -1.7817 0.0000
vt 1.7817 1.7817 0.0000
vt 2.5197 0.0000 0.0000
vt -7.5331 5.9229 0.0000
vt 7.5331 5.9229 0.0000
vt -5.0793 19.1364 0.0000
vt 5.0793 19.1364 0.0000
vt 6.0265 31.4961 0.0000
vt -6.0265 31.4961 0.0000
vt 6.0265 27.5591 0.0000
vt -6.0265 27.5591 0.0000
vt 19.6850 0.0000 0.0000
vt 13.9194 13.9194 0.0000
vt 13.9194 -13.9194 0.0000
vt 0.0000 19.6850 0.0000
vt 4.1831 4.1831 0.0000
vt 4.1831 -4.1831 0.0000
vt -4.1831 4.1831 0.0000
vt -13.9194 13.9194 0.0000
vt 0.0000 -19.6850 0.0000
vt -4.1831 -4.1831 0.0000
vt -13.9194 -13.9194 0.0000
vt -19.6850 0.0000 0.0000
vt 7.5331 15.7480 0.0000
vt -7.5331 15.7480 0.0000
vt 7.5331 11.8110 0.0000
vt -7.5331 11.8110 0.0000
vt 15.7480 0.0000 0.0000
vt 11.1355 11.1355 0.0000
vt 13.2729 -0.0000 0.0000
vt 9.3854 9.3854 0.0000
vt -0.0000 15.7480 0.0000
vt 0.0000 13.2729 0.0000
vt -9.3854 9.3854 0.0000
vt -11.1355 11.1355 0.0000
vt -13.2729 0.0000 0.0000
vt -15.7480 0.0000 0.0000
vt 11.1355 -11.1355 0.0000
vt 9.3854 -9.3854 0.0000
vt -0.0000 -15.7480 0.0000
vt 0.0000 -13.2729 0.0000
vt -9.3854 -9.3854 0.0000
vt -11.1355 -11.1355 0.0000
vt 4.9213 -0.3070 0.0000
vt 4.1831 11.5271 0.0000
vt -4.9213 -0.3070 0.0000
vt -4.1831 11.5271 0.0000
vt 4.9213 -4.9213 0.0000
vt 4.9213 4.9213 0.0000
vt -4.9213 -4.9213 0.0000
vt -4.9213 4.9213 0.0000
# 60 texture coords

o tree
g tree
usemtl snow
s off
f 13/11/7 14/12/7 15/13/7 
f 16/14/7 15/13/7 14/12/7 
f 17/13/8 15/11/8 18/14/8 
f 16/12/8 18/14/8 15/11/8 
f 19/15/9 20/16/9 21/17/9 
f 22/18/9 21/17/9 20/16/9 
f 14/19/9 21/17/9 22/18/9 
f 23/20/9 14/19/9 22/18/9 
f 16/21/9 14/19/9 23/20/9 
f 18/22/9 16/21/9 23/20/9 
f 24/23/10 25/24/10 26/25/10 
f 27/26/10 26/25/10 25/24/10 
f 28/26/11 29/25/11 30/24/11 
f 31/23/11 30/24/11 29/25/11 
f 19/12/12 21/14/12 32/11/12 
f 33/13/12 32/11/12 21/14/12 
f 34/24/13 35/26/13 36/23/13 
f 37/25/13 36/23/13 35/26/13 
f 33/11/14 21/12/14 13/13/14 
f 14/14/14 13/13/14 21/12/14 
f 25/23/15 36/24/15 27/25/15 
f 37/26/15 27/25/15 36/24/15 
f 38/11/16 23/12/16 39/13/16 
f 22/14/16 39/13/16 23/12/16 
f 40/24/17 41/26/17 30/23/17 
f 28/25/17 30/23/17 41/26/17 
f 24/24/18 26/26/18 42/23/18 
f 43/25/18 42/23/18 26/26/18 
f 39/11/19 22/12/19 44/13/19 
f 20/14/19 44/13/19 22/12/19 
f 31/24/20 29/26/20 34/23/20 
f 35/25/20 34/23/20 29/26/20 
f 44/11/21 20/12/21 32/13/21 
f 19/14/21 32/13/21 20/12/21 
f 42/24/22 43/26/22 40/23/22 
f 41/25/22 40/23/22 43/26/22 
f 38/13/23 17/11/23 23/14/23 
f 18/12/23 23/14/23 17/11/23 
usemtl foliage
f 32/27/24 33/28/24 45/29/24 
f 46/30/24 45/29/24 33/28/24 
f 47/30/25 48/29/25 17/28/25 
f 15/27/25 17/28/25 48/29/25 
f 49/29/26 38/27/26 50/30/26 
f 39/28/26 50/30/26 38/27/26 
f 51/31/27 52/32/27 53/33/27 
f 54/34/27 53/33/27 52/32/27 
f 55/35/27 53/33/27 54/34/27 
f 56/36/27 53/33/27 55/35/27 
f 57/37/27 55/35/27 54/34/27 
f 58/38/27 57/37/27 54/34/27 
f 53/33/27 56/36/27 59/39/27 
f 60/40/27 59/39/27 56/36/27 
f 61/41/27 59/39/27 60/40/27 
f 57/37/27 61/41/27 60/40/27 
f 58/38/27 61/41/27 57/37/27 
f 62/42/27 61/41/27 58/38/27 
f 40/43/28 30/44/28 53/45/28 
f 51/46/28 53/45/28 30/44/28 
f 59/45/29 42/43/29 53/46/29 
f 40/44/29 53/46/29 42/43/29 
f 30/43/24 31/44/24 51/45/24 
f 52/46/24 51/45/24 31/44/24 
f 49/30/30 47/29/30 38/28/30 
f 17/27/30 38/28/30 47/29/30 
f 54/45/31 34/43/31 58/46/31 
f 36/44/31 58/46/31 34/43/31 
f 45/47/27 46/48/27 28/49/27 
f 29/50/27 28/49/27 46/48/27 
f 63/51/27 29/50/27 46/48/27 
f 35/52/27 29/50/27 63/51/27 
f 37/53/27 35/52/27 63/51/27 
f 48/54/27 37/53/27 63/51/27 
f 27/55/27 37/53/27 48/54/27 
f 47/56/27 27/55/27 48/54/27 
f 45/47/27 28/49/27 64/57/27 
f 41/58/27 64/57/27 28/49/27 
f 50/59/27 64/57/27 41/58/27 
f 43/60/27 50/59/27 41/58/27 
f 26/61/27 50/59/27 43/60/27 
f 49/62/27 50/59/27 26/61/27 
f 27/55/27 49/62/27 26/61/27 
f 47/56/27 49/62/27 27/55/27 
f 50/29/29 39/27/29 64/30/29 
f 44/28/29 64/30/29 39/27/29 
f 44/27/28 32/28/28 64/29/28 
f 45/30/28 64/29/28 32/28/28 
f 46/29/32 33/27/32 63/30/32 
f 13/28/32 63/30/32 33/27/32 
f 63/29/31 13/27/31 48/30/31 
f 15/28/31 48/30/31 13/27/31 
f 62/46/25 58/45/25 25/44/25 
f 36/43/25 25/44/25 58/45/25 
f 61/45/26 24/43/26 59/46/26 
f 42/44/26 59/46/26 24/43/26 
f 61/46/30 62/45/30 24/44/30 
f 25/43/30 24/44/30 62/45/30 
f 52/45/32 31/43/32 54/46/32 
f 34/44/32 54/46/32 31/43/32 
usemtl wood
f 65/63/33 60/64/33 66/65/33 
f 56/66/33 66/65/33 60/64/33 
f 66/63/34 56/64/34 67/65/34 
f 55/66/34 67/65/34 56/64/34 
f 65/65/35 68/63/35 60/66/35 
f 57/64/35 60/66/35 68/63/35 
f 67/63/36 55/64/36 68/65/36 
f 57/66/36 68/65/36 55/64/36 
f 66/67/27 67/68/27 65/69/27 
f 68/70/27 65/69/27 67/68/27 
# 108 faces

