# 3ds Max Wavefront OBJ Exporter v0.97b - (c)2007 guruware
# ÆÄÀÏ »ı¼ºµÊ: 15.11.2020 00:43:43

mtllib snow_tile_rock.mtl

#
# object snow_tile_rock
#

v  0.5000 0.0000 0.5000
v  -0.5000 0.0000 0.5000
v  0.5000 -0.0000 -0.5000
v  -0.5000 -0.0000 -0.5000
v  0.5000 0.1000 -0.5000
v  0.5000 0.1000 0.5000
v  -0.5000 0.1000 0.5000
v  -0.5000 0.1000 -0.5000
v  0.5000 0.2000 -0.5000
v  -0.5000 0.2000 -0.5000
v  0.5000 0.2000 0.5000
v  -0.5000 0.2000 0.5000
# 12 vertices

vn 0.0000 -1.0000 0.0000
vn 1.0000 0.0000 -0.0000
vn 0.0000 0.0000 1.0000
vn -1.0000 0.0000 -0.0000
vn 0.0000 -0.0000 -1.0000
vn 0.0000 1.0000 -0.0000
# 6 vertex normals

vt 19.6850 19.6850 0.0000
vt -19.6850 19.6850 0.0000
vt 19.6850 -19.6850 0.0000
vt -19.6850 -19.6850 0.0000
vt 19.6850 3.9370 0.0000
vt -19.6850 3.9370 0.0000
vt 19.6850 0.0000 0.0000
vt -19.6850 0.0000 0.0000
vt 19.6850 7.8740 0.0000
vt -19.6850 7.8740 0.0000
# 10 texture coords

o snow_tile_rock
g snow_tile_rock
usemtl dirt
s off
f 1/1/1 2/2/1 3/3/1 
f 4/4/1 3/3/1 2/2/1 
f 5/5/2 6/6/2 3/7/2 
f 1/8/2 3/7/2 6/6/2 
f 1/7/3 6/5/3 2/8/3 
f 7/6/3 2/8/3 6/5/3 
f 4/8/4 2/7/4 8/6/4 
f 7/5/4 8/6/4 2/7/4 
f 4/7/5 8/5/5 3/8/5 
f 5/6/5 3/8/5 8/5/5 
usemtl snow
f 9/4/6 10/3/6 11/2/6 
f 12/1/6 11/2/6 10/3/6 
f 9/9/2 11/10/2 5/5/2 
f 6/6/2 5/5/2 11/10/2 
f 8/5/5 10/9/5 5/6/5 
f 9/10/5 5/6/5 10/9/5 
f 8/6/4 7/5/4 10/10/4 
f 12/9/4 10/10/4 7/5/4 
f 6/5/3 11/9/3 7/6/3 
f 12/10/3 7/6/3 11/9/3 
# 20 faces

#
# object rocks
#

v  -0.3684 0.2992 0.1620
v  -0.4446 0.2496 0.2466
v  -0.2886 0.2992 0.3136
v  0.2973 0.2000 0.2684
v  0.2821 0.2496 0.2646
v  0.0689 0.2000 0.4514
v  0.0689 0.4743 0.3628
v  0.1743 0.4743 0.2784
v  0.1189 0.3563 -0.2500
v  0.0829 0.6186 -0.1889
v  0.2015 0.3563 0.0305
v  0.1433 0.6186 0.0160
v  -0.2238 0.3892 0.0286
v  -0.1347 0.6186 0.0467
v  -0.1347 0.6186 -0.1137
v  -0.2213 0.2332 -0.0888
v  -0.2892 0.2000 -0.1276
v  -0.2305 0.2992 -0.0115
v  -0.3173 0.2992 -0.0115
v  -0.3857 0.2000 -0.1276
v  0.1687 0.4173 0.0426
v  0.1579 0.4743 0.0610
v  0.1862 0.3563 0.0428
v  0.2049 0.3563 0.1063
v  0.1981 0.4743 0.1976
v  0.2717 0.2000 0.1816
v  -0.1440 0.3892 -0.2423
v  -0.1779 0.3892 -0.1271
v  -0.1125 0.6186 -0.1889
v  -0.2438 0.2992 0.0336
v  -0.0149 0.2000 -0.5000
v  -0.0671 0.3892 -0.4114
v  0.0052 0.2000 -0.4318
v  -0.0059 0.2649 -0.3783
v  -0.0173 0.3892 -0.2423
v  0.0040 0.3276 -0.2566
v  -0.2972 0.2000 -0.5000
v  -0.2886 0.2314 -0.4853
v  -0.1698 0.3892 -0.4114
v  0.1292 0.4743 0.0610
v  -0.0148 0.4743 0.1763
v  -0.0148 0.6186 0.1427
v  0.5000 0.2000 -0.0013
v  0.3771 0.3563 -0.0317
v  0.0229 0.3563 -0.2500
v  0.3490 0.2496 -0.3909
v  0.2426 0.3563 -0.3029
v  0.3359 0.3563 -0.1714
v  -0.0356 0.2000 0.3677
v  -0.0881 0.2992 0.2936
v  -0.0750 0.4743 0.2475
v  -0.1290 0.2992 0.2609
v  -0.3845 0.2000 -0.2039
v  -0.3000 0.3892 -0.2248
v  -0.0465 0.4743 0.1509
v  -0.0967 0.2992 0.1514
v  0.0385 0.3563 -0.3029
v  0.3731 0.2000 -0.4318
v  -0.2682 0.3892 -0.3325
v  -0.2008 0.2000 0.5000
v  -0.2008 0.2992 0.3839
v  -0.5000 0.2000 0.2603
# 62 vertices

vn -0.3743 0.9035 0.2090
vn 0.5862 0.2343 0.7756
vn 0.9370 0.1910 -0.2926
vn -0.9441 0.2221 -0.2436
vn -0.9332 0.3593 -0.0000
vn -0.9478 0.2502 -0.1977
vn 0.0000 0.7383 -0.6745
vn 0.9215 0.2608 -0.2878
vn -0.9370 0.1910 -0.2926
vn 0.8888 0.3646 -0.2776
vn 0.0000 0.4011 -0.9161
vn 0.5941 0.1710 0.7860
vn 0.5136 0.5238 0.6796
vn 0.0000 0.2125 -0.9772
vn 0.4986 0.7816 -0.3749
vn -0.5862 0.2343 0.7756
vn -0.5693 0.3297 0.7531
vn -0.9215 0.2608 -0.2878
vn -0.7859 0.5676 -0.2455
vn 0.0000 0.2892 -0.9573
vn 0.0000 0.6105 -0.7920
vn 0.7859 0.5676 -0.2455
vn -0.4711 0.6241 -0.6233
vn 0.8748 0.4001 0.2732
vn 0.4542 0.6577 0.6009
vn -0.8888 0.3646 -0.2776
vn -0.6821 0.6995 -0.2130
vn -0.5941 0.1710 0.7860
vn -0.4542 0.6577 0.6009
vn 0.0000 1.0000 -0.0000
# 30 vertex normals

vt -1.7988 -12.2892 0.0000
vt -0.5307 -16.8431 0.0000
vt 4.5894 -12.2892 0.0000
vt 3.2959 -3.4852 0.0000
vt 2.9044 -1.4772 0.0000
vt -7.8738 -3.4852 0.0000
vt -5.9068 7.6221 0.0000
vt -0.7540 7.6221 0.0000
vt 7.3989 4.6714 0.0000
vt 5.6732 15.1918 0.0000
vt -3.4137 4.6714 0.0000
vt -2.2307 15.1918 0.0000
vt 1.0543 3.8163 0.0000
vt 1.7177 13.4922 0.0000
vt -4.1839 13.4922 0.0000
vt 8.6343 -1.5310 0.0000
vt 11.2814 -3.4667 0.0000
vt 8.9931 2.3215 0.0000
vt 12.3767 2.3215 0.0000
vt 15.0461 -3.4667 0.0000
vt -3.4573 6.7424 0.0000
vt -3.9779 9.0658 0.0000
vt -3.6672 4.2549 0.0000
vt -6.1157 4.2549 0.0000
vt -9.2446 9.0658 0.0000
vt -9.5394 -2.1195 0.0000
vt -12.8883 -2.1195 0.0000
vt -12.5778 -0.0975 0.0000
vt -6.8379 5.7821 0.0000
vt -2.3953 5.7821 0.0000
vt -5.3289 14.9813 0.0000
vt -2.4269 14.9813 0.0000
vt -0.5440 -0.4781 0.0000
vt 3.6094 5.7821 0.0000
vt 2.2778 2.1691 0.0000
vt 4.0156 2.1691 0.0000
vt 17.7394 -1.7982 0.0000
vt 15.2331 6.2033 0.0000
vt 15.1101 -1.7982 0.0000
vt 13.3594 0.9455 0.0000
vt 8.7136 6.2033 0.0000
vt 8.9697 3.5985 0.0000
vt 11.5952 -7.3807 0.0000
vt 11.2571 -6.0312 0.0000
vt 0.5809 -7.3807 0.0000
vt 2.6186 0.7527 0.0000
vt 6.6245 0.7527 0.0000
vt 5.5959 5.0998 0.0000
vt 4.1046 15.5810 0.0000
vt 4.8452 5.0998 0.0000
vt 4.3054 7.5371 0.0000
vt 2.6668 9.8136 0.0000
vt -4.3736 9.8136 0.0000
vt -3.6283 15.5810 0.0000
vt 15.5885 -6.1407 0.0000
vt 12.4392 1.0833 0.0000
vt 4.4270 -6.1407 0.0000
vt 4.0183 1.0833 0.0000
vt -0.1553 2.9029 0.0000
vt 0.6749 5.3851 0.0000
vt -0.8937 4.0578 0.0000
vt -4.6383 4.0578 0.0000
vt -3.2352 14.6261 0.0000
vt 5.6169 5.3851 0.0000
vt 4.3901 14.6261 0.0000
vt 3.3160 -14.0465 0.0000
vt 3.2227 -7.3110 0.0000
vt -2.8332 -7.3110 0.0000
vt 12.1629 -2.7256 0.0000
vt 10.1959 8.3816 0.0000
vt 7.0523 -2.7256 0.0000
vt 3.7757 1.2903 0.0000
vt 3.1590 8.3816 0.0000
vt 1.7763 1.2903 0.0000
vt -11.8312 -1.0078 0.0000
vt -8.8578 0.3752 0.0000
vt -16.4910 -1.0078 0.0000
vt -14.3251 6.8843 0.0000
vt -8.3579 6.8843 0.0000
vt 5.8425 10.4043 0.0000
vt 6.4450 3.2632 0.0000
vt 9.5676 10.4043 0.0000
vt 10.6644 3.2632 0.0000
vt -13.2222 -0.3772 0.0000
vt -9.0623 2.6232 0.0000
vt -11.0910 3.9939 0.0000
vt -9.0481 3.9939 0.0000
vt -5.0390 10.9857 0.0000
vt -6.1577 10.9857 0.0000
vt -6.5810 8.6427 0.0000
vt -0.2029 -9.7027 0.0000
vt 0.2301 -6.4770 0.0000
vt -14.5556 -9.7027 0.0000
vt -13.6157 -7.2381 0.0000
vt -9.4644 -1.9331 0.0000
vt -1.5027 -1.9331 0.0000
vt 10.8312 -10.5751 0.0000
vt 9.6752 -8.2041 0.0000
vt -5.7698 -10.5751 0.0000
vt 2.1163 -3.1008 0.0000
vt -3.2717 -3.1008 0.0000
vt -3.8449 -4.2099 0.0000
vt -1.7898 -12.1634 0.0000
vt 0.9678 -4.2099 0.0000
vt -4.6369 6.0771 0.0000
vt -7.7529 6.0771 0.0000
vt -6.0173 -3.5753 0.0000
vt -9.2681 -6.5502 0.0000
vt -9.2569 -1.3671 0.0000
vt -17.3444 -6.5502 0.0000
vt -14.7677 -1.3671 0.0000
vt -14.1094 -6.0359 0.0000
vt -2.6927 -6.0359 0.0000
vt -13.6935 -4.7082 0.0000
vt -8.5629 1.9656 0.0000
vt -4.4106 1.9656 0.0000
vt 3.2866 -5.5625 0.0000
vt 0.0034 -11.0259 0.0000
vt 9.9761 -5.5625 0.0000
vt 13.8340 -8.2942 0.0000
vt 14.9593 -11.0259 0.0000
vt 3.4523 9.6945 0.0000
vt 2.7070 15.4620 0.0000
vt 1.9010 9.6945 0.0000
vt -3.1566 15.4620 0.0000
vt -6.3299 6.2971 0.0000
vt -6.8421 2.6976 0.0000
vt 0.3513 2.6976 0.0000
vt 2.2721 -7.5792 0.0000
vt -2.0216 -7.5792 0.0000
vt 4.8488 -12.7622 0.0000
vt -9.7835 -12.7622 0.0000
vt -8.3649 -10.1707 0.0000
vt -5.5915 0.5906 0.0000
vt -3.2352 -6.9539 0.0000
vt 0.5774 5.2533 0.0000
vt 4.3901 -6.9539 0.0000
vt 5.2552 1.7177 0.0000
vt 5.2552 -4.1839 0.0000
vt -7.7278 7.2714 0.0000
vt -6.1577 2.2442 0.0000
vt -6.7989 10.2457 0.0000
vt -2.6882 13.3527 0.0000
vt -5.0390 2.2442 0.0000
vt 0.5774 6.4893 0.0000
vt 2.9255 9.1096 0.0000
vt 1.8150 5.5539 0.0000
vt 8.9931 -0.4224 0.0000
vt 12.3767 -0.4224 0.0000
vt 9.5111 1.2364 0.0000
vt 11.2571 11.5407 0.0000
vt 14.3711 5.9629 0.0000
vt 7.8317 14.1298 0.0000
vt 5.0304 9.6013 0.0000
vt 3.7726 5.5738 0.0000
vt 3.4354 10.8069 0.0000
vt 0.6749 -8.9179 0.0000
vt 2.6186 -15.1410 0.0000
vt 5.6169 -8.9179 0.0000
vt 6.6245 -15.1410 0.0000
vt 6.9413 -4.6774 0.0000
vt 10.4639 -12.2390 0.0000
vt 11.7018 -8.2755 0.0000
vt -14.7106 -1.1669 0.0000
vt -13.1043 -6.3100 0.0000
vt -7.9928 3.9107 0.0000
vt -9.4644 -11.1500 0.0000
vt -7.8617 1.1209 0.0000
vt -4.6383 -9.2000 0.0000
vt -1.5027 -11.1500 0.0000
vt -0.8937 -9.2000 0.0000
vt -7.2629 1.5735 0.0000
# 172 texture coords

o rocks
g rocks
usemtl dirt
s off
f 13/11/7 14/12/7 15/13/7 
f 16/14/8 17/15/8 18/16/8 
f 19/17/8 18/16/8 17/15/8 
f 20/18/8 19/17/8 17/15/8 
f 21/19/9 22/20/9 23/21/9 
f 24/22/9 23/21/9 22/20/9 
f 25/23/10 26/24/11 27/25/12 
f 28/26/13 29/27/13 30/28/13 
f 31/29/13 30/28/13 29/27/13 
f 32/30/13 31/29/13 29/27/13 
f 33/31/14 34/32/14 35/33/14 
f 36/34/14 35/33/14 34/32/14 
f 37/35/14 36/34/14 34/32/14 
f 38/36/14 36/34/14 37/35/14 
f 16/37/14 38/36/14 37/35/14 
f 17/38/14 16/37/14 37/35/14 
f 39/39/15 40/40/15 41/41/15 
f 27/42/12 41/41/15 40/40/15 
f 28/43/15 27/42/12 40/40/15 
f 25/44/10 27/42/12 28/43/15 
f 30/45/15 25/44/10 28/43/15 
f 42/46/15 25/44/10 30/45/15 
f 43/47/16 44/48/16 45/49/16 
f 46/50/16 45/49/16 44/48/16 
f 47/51/16 46/50/16 44/48/16 
f 48/52/16 46/50/16 47/51/16 
f 49/53/17 50/54/17 43/55/17 
f 44/56/17 43/55/17 50/54/17 
f 51/57/17 44/56/17 50/54/17 
f 23/58/18 24/59/18 35/60/18 
f 33/61/18 35/60/18 24/59/18 
f 52/62/18 33/61/18 24/59/18 
f 53/63/18 52/62/18 24/59/18 
f 54/64/18 53/63/18 24/59/18 
f 55/65/19 56/66/19 38/67/19 
f 36/68/19 38/67/19 56/66/19 
f 48/69/20 47/70/20 57/71/20 
f 21/72/20 57/71/20 47/70/20 
f 22/73/20 21/72/20 47/70/20 
f 39/74/20 22/73/20 47/70/20 
f 41/75/20 22/73/20 39/74/20 
f 58/76/21 59/77/21 60/78/21 
f 18/79/22 19/80/22 61/81/22 
f 62/82/22 61/81/22 19/80/22 
f 19/80/22 63/83/22 62/82/22 
f 64/84/22 62/82/22 63/83/22 
f 29/85/23 28/86/23 65/87/23 
f 66/88/23 65/87/23 28/86/23 
f 40/89/23 66/88/23 28/86/23 
f 67/90/24 68/91/24 63/92/24 
f 64/93/24 63/92/24 68/91/24 
f 46/94/25 48/95/25 69/96/25 
f 57/97/25 69/96/25 48/95/25 
f 52/98/26 34/99/26 33/100/26 
f 45/101/27 46/102/27 70/103/27 
f 58/104/27 70/103/27 46/102/27 
f 59/105/27 58/104/27 46/102/27 
f 69/106/27 59/105/27 46/102/27 
f 70/107/28 58/108/28 55/109/28 
f 60/110/28 55/109/28 58/108/28 
f 56/111/28 55/109/28 60/110/28 
f 51/112/29 50/113/29 71/114/29 
f 37/115/30 20/116/30 17/117/30 
f 61/118/31 62/119/31 72/120/31 
f 73/121/31 72/120/31 62/119/31 
f 49/122/32 65/123/32 50/124/32 
f 71/125/32 50/124/32 65/123/32 
f 66/126/32 71/125/32 65/123/32 
f 31/127/33 32/128/33 13/129/33 
f 14/130/33 13/129/33 32/128/33 
f 74/131/33 14/130/33 32/128/33 
f 53/132/34 54/133/34 67/134/34 
f 54/133/34 26/135/34 67/134/34 
f 26/135/34 25/136/34 67/134/34 
f 25/136/34 42/137/34 67/134/34 
f 68/138/34 67/134/34 42/137/34 
f 73/139/35 15/140/35 72/141/35 
f 74/142/35 72/141/35 15/140/35 
f 14/143/35 74/142/35 15/140/35 
usemtl snow
f 24/144/36 22/145/36 54/146/36 
f 41/147/36 54/146/36 22/145/36 
f 26/148/36 54/146/36 41/147/36 
f 27/149/36 26/148/36 41/147/36 
f 37/150/36 34/151/36 20/152/36 
f 19/153/36 20/152/36 34/151/36 
f 52/154/36 19/153/36 34/151/36 
f 53/155/36 19/153/36 52/154/36 
f 63/156/36 19/153/36 53/155/36 
f 67/157/36 63/156/36 53/155/36 
f 30/158/36 31/159/36 42/160/36 
f 15/161/36 42/160/36 31/159/36 
f 13/162/36 15/161/36 31/159/36 
f 15/161/36 73/163/36 42/160/36 
f 73/163/36 64/164/36 42/160/36 
f 68/165/36 42/160/36 64/164/36 
f 64/164/36 73/163/36 62/166/36 
f 47/167/36 44/168/36 39/169/36 
f 51/170/36 39/169/36 44/168/36 
f 40/171/36 39/169/36 51/170/36 
f 71/172/36 40/171/36 51/170/36 
f 66/173/36 40/171/36 71/172/36 
f 56/174/36 60/175/36 36/176/36 
f 59/177/36 36/176/36 60/175/36 
f 23/178/36 36/176/36 59/177/36 
f 21/179/36 23/178/36 59/177/36 
f 69/180/36 21/179/36 59/177/36 
f 57/181/36 21/179/36 69/180/36 
f 23/178/36 35/182/36 36/176/36 
# 108 faces

