# 3ds Max Wavefront OBJ Exporter v0.97b - (c)2007 guruware
# ÆÄÀÏ »ı¼ºµÊ: 14.12.2020 16:14:07

mtllib snow_tile_tree.mtl

#
# object tree
#

v  0.0000 0.6000 0.2000
v  0.0000 0.9600 0.0320
v  -0.1414 0.6000 0.1414
v  -0.0226 0.9600 0.0226
v  -0.2000 0.6000 -0.0000
v  -0.0320 0.9600 -0.0000
v  0.0320 0.9600 -0.0000
v  0.0226 0.9600 -0.0226
v  0.0226 0.9600 0.0226
v  0.0000 0.9600 -0.0320
v  -0.0226 0.9600 -0.0226
v  -0.1768 0.4000 -0.1768
v  -0.2500 0.4000 -0.0000
v  -0.1192 0.5500 -0.1192
v  -0.1686 0.5500 -0.0000
v  0.1686 0.5500 -0.0000
v  0.1192 0.5500 0.1192
v  0.2500 0.4000 -0.0000
v  0.1768 0.4000 0.1768
v  0.2000 0.6000 -0.0000
v  0.1414 0.6000 0.1414
v  0.0000 0.4000 0.2500
v  0.0000 0.5500 0.1686
v  -0.1768 0.4000 0.1768
v  -0.1192 0.5500 0.1192
v  -0.1414 0.6000 -0.1414
v  0.0000 0.6000 -0.2000
v  0.1768 0.4000 -0.1768
v  0.1192 0.5500 -0.1192
v  0.0000 0.4000 -0.2500
v  0.0000 0.5500 -0.1686
v  0.1414 0.6000 -0.1414
v  0.2000 0.5500 -0.0000
v  0.1414 0.5500 0.1414
v  -0.2000 0.5500 -0.0000
v  -0.1414 0.5500 0.1414
v  -0.1414 0.5500 -0.1414
v  0.0000 0.5500 -0.2000
v  0.2500 0.3500 -0.0000
v  0.1768 0.3500 0.1768
v  0.1768 0.3500 -0.1768
v  0.0000 0.3500 0.2500
v  0.0531 0.3500 0.0531
v  0.0531 0.3500 -0.0531
v  -0.0531 0.3500 0.0531
v  -0.1768 0.3500 0.1768
v  0.0000 0.3500 -0.2500
v  -0.0531 0.3500 -0.0531
v  -0.1768 0.3500 -0.1768
v  -0.2500 0.3500 -0.0000
v  0.0000 0.5500 0.2000
v  0.1414 0.5500 -0.1414
v  -0.0625 0.2000 -0.0625
v  0.0625 0.2000 -0.0625
v  0.0625 0.2000 0.0625
v  -0.0625 0.2000 0.0625
# 56 vertices

vn -0.3514 0.3959 0.8484
vn -0.8484 0.3959 0.3514
vn 0.0000 1.0000 -0.0000
vn -0.8258 0.4483 -0.3421
vn 0.8258 0.4483 0.3421
vn 0.8484 0.3959 0.3514
vn -0.3421 0.4483 0.8258
vn 0.3514 0.3959 0.8484
vn -0.8258 0.4483 0.3421
vn -0.3514 0.3959 -0.8484
vn 0.8258 0.4483 -0.3421
vn -0.3421 0.4483 -0.8258
vn 0.3514 0.3959 -0.8484
vn 0.3421 0.4483 0.8258
vn 0.8484 0.3959 -0.3514
vn 0.3421 0.4483 -0.8258
vn -0.8484 0.3959 -0.3514
vn 0.9239 0.0000 0.3827
vn -0.9239 0.0000 0.3827
vn -0.3827 0.0000 -0.9239
vn 0.0000 -1.0000 -0.0000
vn 0.9239 0.0000 -0.3827
vn 0.3827 0.0000 -0.9239
vn -0.9239 0.0000 -0.3827
vn -0.3827 0.0000 0.9239
vn 0.3827 0.0000 0.9239
vn 0.0000 0.0624 -0.9981
vn 0.9981 0.0624 -0.0000
vn -0.9981 0.0624 -0.0000
vn 0.0000 0.0624 0.9981
# 30 vertex normals

vt 6.0265 23.1622 0.0000
vt 0.9642 54.0310 0.0000
vt -6.0265 23.1622 0.0000
vt -0.9642 54.0310 0.0000
vt -2.5197 0.0000 0.0000
vt -1.7817 -1.7817 0.0000
vt -1.7817 1.7817 0.0000
vt 0.0000 -2.5197 0.0000
vt 0.0000 2.5197 0.0000
vt 1.7817 -1.7817 0.0000
vt 1.7817 1.7817 0.0000
vt 2.5197 0.0000 0.0000
vt -7.5331 5.9229 0.0000
vt 7.5331 5.9229 0.0000
vt -5.0793 19.1364 0.0000
vt 5.0793 19.1364 0.0000
vt 6.0265 31.4961 0.0000
vt -6.0265 31.4961 0.0000
vt 6.0265 27.5591 0.0000
vt -6.0265 27.5591 0.0000
vt 19.6850 0.0000 0.0000
vt 13.9194 13.9194 0.0000
vt 13.9194 -13.9194 0.0000
vt 0.0000 19.6850 0.0000
vt 4.1831 4.1831 0.0000
vt 4.1831 -4.1831 0.0000
vt -4.1831 4.1831 0.0000
vt -13.9194 13.9194 0.0000
vt 0.0000 -19.6850 0.0000
vt -4.1831 -4.1831 0.0000
vt -13.9194 -13.9194 0.0000
vt -19.6850 0.0000 0.0000
vt 7.5331 15.7480 0.0000
vt -7.5331 15.7480 0.0000
vt 7.5331 11.8110 0.0000
vt -7.5331 11.8110 0.0000
vt 15.7480 0.0000 0.0000
vt 11.1355 11.1355 0.0000
vt 13.2729 -0.0000 0.0000
vt 9.3854 9.3854 0.0000
vt -0.0000 15.7480 0.0000
vt 0.0000 13.2729 0.0000
vt -9.3854 9.3854 0.0000
vt -11.1355 11.1355 0.0000
vt -13.2729 0.0000 0.0000
vt -15.7480 0.0000 0.0000
vt 11.1355 -11.1355 0.0000
vt 9.3854 -9.3854 0.0000
vt -0.0000 -15.7480 0.0000
vt 0.0000 -13.2729 0.0000
vt -9.3854 -9.3854 0.0000
vt -11.1355 -11.1355 0.0000
vt 4.9213 -0.3070 0.0000
vt 4.1831 11.5271 0.0000
vt -4.9213 -0.3070 0.0000
vt -4.1831 11.5271 0.0000
vt 4.9213 -4.9213 0.0000
vt 4.9213 4.9213 0.0000
vt -4.9213 -4.9213 0.0000
vt -4.9213 4.9213 0.0000
# 60 texture coords

o tree
g tree
usemtl snow_tile_tree_snow
s off
f 1/1/1 2/2/1 3/3/1 
f 4/4/1 3/3/1 2/2/1 
f 5/3/2 3/1/2 6/4/2 
f 4/2/2 6/4/2 3/1/2 
f 7/5/3 8/6/3 9/7/3 
f 10/8/3 9/7/3 8/6/3 
f 2/9/3 9/7/3 10/8/3 
f 11/10/3 2/9/3 10/8/3 
f 4/11/3 2/9/3 11/10/3 
f 6/12/3 4/11/3 11/10/3 
f 12/13/4 13/14/4 14/15/4 
f 15/16/4 14/15/4 13/14/4 
f 16/16/5 17/15/5 18/14/5 
f 19/13/5 18/14/5 17/15/5 
f 7/2/6 9/4/6 20/1/6 
f 21/3/6 20/1/6 9/4/6 
f 22/14/7 23/16/7 24/13/7 
f 25/15/7 24/13/7 23/16/7 
f 21/1/8 9/2/8 1/3/8 
f 2/4/8 1/3/8 9/2/8 
f 13/13/9 24/14/9 15/15/9 
f 25/16/9 15/15/9 24/14/9 
f 26/1/10 11/2/10 27/3/10 
f 10/4/10 27/3/10 11/2/10 
f 28/14/11 29/16/11 18/13/11 
f 16/15/11 18/13/11 29/16/11 
f 12/14/12 14/16/12 30/13/12 
f 31/15/12 30/13/12 14/16/12 
f 27/1/13 10/2/13 32/3/13 
f 8/4/13 32/3/13 10/2/13 
f 19/14/14 17/16/14 22/13/14 
f 23/15/14 22/13/14 17/16/14 
f 32/1/15 8/2/15 20/3/15 
f 7/4/15 20/3/15 8/2/15 
f 30/14/16 31/16/16 28/13/16 
f 29/15/16 28/13/16 31/16/16 
f 26/3/17 5/1/17 11/4/17 
f 6/2/17 11/4/17 5/1/17 
usemtl snow_tile_tree_foliage
f 20/17/18 21/18/18 33/19/18 
f 34/20/18 33/19/18 21/18/18 
f 35/20/19 36/19/19 5/18/19 
f 3/17/19 5/18/19 36/19/19 
f 37/19/20 26/17/20 38/20/20 
f 27/18/20 38/20/20 26/17/20 
f 39/21/21 40/22/21 41/23/21 
f 42/24/21 41/23/21 40/22/21 
f 43/25/21 41/23/21 42/24/21 
f 44/26/21 41/23/21 43/25/21 
f 45/27/21 43/25/21 42/24/21 
f 46/28/21 45/27/21 42/24/21 
f 41/23/21 44/26/21 47/29/21 
f 48/30/21 47/29/21 44/26/21 
f 49/31/21 47/29/21 48/30/21 
f 45/27/21 49/31/21 48/30/21 
f 46/28/21 49/31/21 45/27/21 
f 50/32/21 49/31/21 46/28/21 
f 28/33/22 18/34/22 41/35/22 
f 39/36/22 41/35/22 18/34/22 
f 47/35/23 30/33/23 41/36/23 
f 28/34/23 41/36/23 30/33/23 
f 18/33/18 19/34/18 39/35/18 
f 40/36/18 39/35/18 19/34/18 
f 37/20/24 35/19/24 26/18/24 
f 5/17/24 26/18/24 35/19/24 
f 42/35/25 22/33/25 46/36/25 
f 24/34/25 46/36/25 22/33/25 
f 33/37/21 34/38/21 16/39/21 
f 17/40/21 16/39/21 34/38/21 
f 51/41/21 17/40/21 34/38/21 
f 23/42/21 17/40/21 51/41/21 
f 25/43/21 23/42/21 51/41/21 
f 36/44/21 25/43/21 51/41/21 
f 15/45/21 25/43/21 36/44/21 
f 35/46/21 15/45/21 36/44/21 
f 33/37/21 16/39/21 52/47/21 
f 29/48/21 52/47/21 16/39/21 
f 38/49/21 52/47/21 29/48/21 
f 31/50/21 38/49/21 29/48/21 
f 14/51/21 38/49/21 31/50/21 
f 37/52/21 38/49/21 14/51/21 
f 15/45/21 37/52/21 14/51/21 
f 35/46/21 37/52/21 15/45/21 
f 38/19/23 27/17/23 52/20/23 
f 32/18/23 52/20/23 27/17/23 
f 32/17/22 20/18/22 52/19/22 
f 33/20/22 52/19/22 20/18/22 
f 34/19/26 21/17/26 51/20/26 
f 1/18/26 51/20/26 21/17/26 
f 51/19/25 1/17/25 36/20/25 
f 3/18/25 36/20/25 1/17/25 
f 50/36/19 46/35/19 13/34/19 
f 24/33/19 13/34/19 46/35/19 
f 49/35/20 12/33/20 47/36/20 
f 30/34/20 47/36/20 12/33/20 
f 49/36/24 50/35/24 12/34/24 
f 13/33/24 12/34/24 50/35/24 
f 40/35/26 19/33/26 42/36/26 
f 22/34/26 42/36/26 19/33/26 
usemtl snow_tile_tree_wood
f 53/53/27 48/54/27 54/55/27 
f 44/56/27 54/55/27 48/54/27 
f 54/53/28 44/54/28 55/55/28 
f 43/56/28 55/55/28 44/54/28 
f 53/55/29 56/53/29 48/56/29 
f 45/54/29 48/56/29 56/53/29 
f 55/53/30 43/54/30 56/55/30 
f 45/56/30 56/55/30 43/54/30 
f 54/57/21 55/58/21 53/59/21 
f 56/60/21 53/59/21 55/58/21 
# 108 faces

