# 3ds Max Wavefront OBJ Exporter v0.97b - (c)2007 guruware
# ÆÄÀÏ »ı¼ºµÊ: 15.11.2020 00:46:40

mtllib tile_tree.mtl

#
# object tile_tree
#

v  0.5000 0.0000 0.5000
v  -0.5000 0.0000 0.5000
v  0.5000 -0.0000 -0.5000
v  -0.5000 -0.0000 -0.5000
v  0.5000 0.1000 -0.5000
v  0.5000 0.1000 0.5000
v  -0.5000 0.1000 0.5000
v  -0.5000 0.1000 -0.5000
v  0.5000 0.2000 -0.5000
v  -0.5000 0.2000 -0.5000
v  0.5000 0.2000 0.5000
v  -0.5000 0.2000 0.5000
# 12 vertices

vn 0.0000 -1.0000 0.0000
vn 1.0000 0.0000 -0.0000
vn 0.0000 0.0000 1.0000
vn -1.0000 0.0000 -0.0000
vn 0.0000 -0.0000 -1.0000
vn 0.0000 1.0000 -0.0000
# 6 vertex normals

vt 19.6850 19.6850 0.0000
vt -19.6850 19.6850 0.0000
vt 19.6850 -19.6850 0.0000
vt -19.6850 -19.6850 0.0000
vt 19.6850 3.9370 0.0000
vt -19.6850 3.9370 0.0000
vt 19.6850 0.0000 0.0000
vt -19.6850 0.0000 0.0000
vt 19.6850 7.8740 0.0000
vt -19.6850 7.8740 0.0000
# 10 texture coords

o tile_tree
g tile_tree
usemtl dirt
s off
f 1/1/1 2/2/1 3/3/1 
f 4/4/1 3/3/1 2/2/1 
f 5/5/2 6/6/2 3/7/2 
f 1/8/2 3/7/2 6/6/2 
f 1/7/3 6/5/3 2/8/3 
f 7/6/3 2/8/3 6/5/3 
f 4/8/4 2/7/4 8/6/4 
f 7/5/4 8/6/4 2/7/4 
f 4/7/5 8/5/5 3/8/5 
f 5/6/5 3/8/5 8/5/5 
usemtl foliage
f 9/4/6 10/3/6 11/2/6 
f 12/1/6 11/2/6 10/3/6 
f 9/9/2 11/10/2 5/5/2 
f 6/6/2 5/5/2 11/10/2 
f 8/5/5 10/9/5 5/6/5 
f 9/10/5 5/6/5 10/9/5 
f 8/6/4 7/5/4 10/10/4 
f 12/9/4 10/10/4 7/5/4 
f 6/5/3 11/9/3 7/6/3 
f 12/10/3 7/6/3 11/9/3 
# 20 faces

#
# object tree
#

v  -0.0000 0.6000 0.2000
v  -0.0000 0.9600 0.0320
v  -0.1414 0.6000 0.1414
v  -0.0226 0.9600 0.0226
v  -0.2000 0.6000 -0.0000
v  -0.0320 0.9600 -0.0000
v  0.0320 0.9600 -0.0000
v  0.0226 0.9600 -0.0226
v  0.0226 0.9600 0.0226
v  -0.0000 0.9600 -0.0320
v  -0.0226 0.9600 -0.0226
v  -0.1768 0.4000 -0.1768
v  -0.2500 0.4000 -0.0000
v  -0.1192 0.5500 -0.1192
v  -0.1686 0.5500 -0.0000
v  0.2000 0.6000 -0.0000
v  0.1414 0.6000 0.1414
v  0.2000 0.5500 -0.0000
v  0.1414 0.5500 0.1414
v  0.1686 0.5500 -0.0000
v  0.1192 0.5500 0.1192
v  0.2500 0.4000 -0.0000
v  0.1768 0.4000 0.1768
v  -0.0000 0.4000 0.2500
v  -0.0000 0.5500 0.1686
v  -0.1768 0.4000 0.1768
v  -0.1192 0.5500 0.1192
v  -0.2000 0.5500 -0.0000
v  -0.1414 0.5500 0.1414
v  -0.1414 0.5500 -0.1414
v  -0.1414 0.6000 -0.1414
v  -0.0000 0.5500 -0.2000
v  -0.0000 0.6000 -0.2000
v  0.2500 0.3500 -0.0000
v  0.1768 0.3500 0.1768
v  0.1768 0.3500 -0.1768
v  -0.0000 0.3500 0.2500
v  0.0531 0.3500 0.0531
v  0.0531 0.3500 -0.0531
v  -0.0531 0.3500 0.0531
v  -0.1768 0.3500 0.1768
v  -0.0000 0.3500 -0.2500
v  -0.0531 0.3500 -0.0531
v  -0.1768 0.3500 -0.1768
v  -0.2500 0.3500 -0.0000
v  0.1768 0.4000 -0.1768
v  -0.0000 0.4000 -0.2500
v  0.1192 0.5500 -0.1192
v  -0.0000 0.5500 0.2000
v  0.1414 0.5500 -0.1414
v  -0.0000 0.5500 -0.1686
v  0.1414 0.6000 -0.1414
v  -0.0625 0.2000 -0.0625
v  0.0625 0.2000 -0.0625
v  0.0625 0.2000 0.0625
v  -0.0625 0.2000 0.0625
# 56 vertices

vn -0.3514 0.3959 0.8484
vn -0.8484 0.3959 0.3514
vn 0.0000 1.0000 -0.0000
vn -0.8258 0.4483 -0.3421
vn 0.9239 0.0000 0.3827
vn 0.8258 0.4483 0.3421
vn 0.8484 0.3959 0.3514
vn -0.3421 0.4483 0.8258
vn -0.9239 0.0000 0.3827
vn 0.3514 0.3959 0.8484
vn -0.3827 -0.0000 -0.9239
vn 0.0000 -1.0000 0.0000
vn -0.8258 0.4483 0.3421
vn -0.3514 0.3959 -0.8484
vn 0.9239 -0.0000 -0.3827
vn 0.3827 -0.0000 -0.9239
vn -0.9239 -0.0000 -0.3827
vn 0.8258 0.4483 -0.3421
vn -0.3827 0.0000 0.9239
vn 0.3827 0.0000 0.9239
vn -0.3421 0.4483 -0.8258
vn 0.3514 0.3959 -0.8484
vn 0.3421 0.4483 0.8258
vn 0.8484 0.3959 -0.3514
vn 0.3421 0.4483 -0.8258
vn -0.8484 0.3959 -0.3514
vn 0.0000 0.0624 -0.9981
vn 0.9981 0.0624 -0.0000
vn -0.9981 0.0624 -0.0000
vn 0.0000 0.0624 0.9981
# 30 vertex normals

vt 6.0265 23.1622 0.0000
vt 0.9642 54.0310 0.0000
vt -6.0265 23.1622 0.0000
vt -0.9642 54.0310 0.0000
vt -2.5197 0.0000 0.0000
vt -1.7817 -1.7817 0.0000
vt -1.7817 1.7817 0.0000
vt 0.0000 -2.5197 0.0000
vt 0.0000 2.5197 0.0000
vt 1.7817 -1.7817 0.0000
vt 1.7817 1.7817 0.0000
vt 2.5197 0.0000 0.0000
vt -7.5331 5.9229 0.0000
vt 7.5331 5.9229 0.0000
vt -5.0793 19.1364 0.0000
vt 5.0793 19.1364 0.0000
vt 6.0265 31.4961 0.0000
vt -6.0265 31.4961 0.0000
vt 6.0265 27.5591 0.0000
vt -6.0265 27.5591 0.0000
vt 19.6850 0.0000 0.0000
vt 13.9194 13.9194 0.0000
vt 13.9194 -13.9194 0.0000
vt -0.0000 19.6850 0.0000
vt 4.1831 4.1831 0.0000
vt 4.1831 -4.1831 0.0000
vt -4.1831 4.1831 0.0000
vt -13.9194 13.9194 0.0000
vt -0.0000 -19.6850 0.0000
vt -4.1831 -4.1831 0.0000
vt -13.9194 -13.9194 0.0000
vt -19.6850 0.0000 0.0000
vt 7.5331 15.7480 0.0000
vt -7.5331 15.7480 0.0000
vt 7.5331 11.8110 0.0000
vt -7.5331 11.8110 0.0000
vt 15.7480 0.0000 0.0000
vt 11.1355 11.1355 0.0000
vt 13.2729 -0.0000 0.0000
vt 9.3854 9.3854 0.0000
vt -0.0000 15.7480 0.0000
vt -0.0000 13.2729 0.0000
vt -9.3854 9.3854 0.0000
vt -11.1355 11.1355 0.0000
vt -13.2729 0.0000 0.0000
vt -15.7480 0.0000 0.0000
vt 11.1355 -11.1355 0.0000
vt 9.3854 -9.3854 0.0000
vt -0.0000 -15.7480 0.0000
vt -0.0000 -13.2729 0.0000
vt -9.3854 -9.3854 0.0000
vt -11.1355 -11.1355 0.0000
vt 4.9213 -0.3070 0.0000
vt 4.1831 11.5271 0.0000
vt -4.9213 -0.3070 0.0000
vt -4.1831 11.5271 0.0000
vt 4.9213 -4.9213 0.0000
vt 4.9213 4.9213 0.0000
vt -4.9213 -4.9213 0.0000
vt -4.9213 4.9213 0.0000
# 60 texture coords

o tree
g tree
usemtl foliage
s off
f 13/11/7 14/12/7 15/13/7 
f 16/14/7 15/13/7 14/12/7 
f 17/13/8 15/11/8 18/14/8 
f 16/12/8 18/14/8 15/11/8 
f 19/15/9 20/16/9 21/17/9 
f 22/18/9 21/17/9 20/16/9 
f 14/19/9 21/17/9 22/18/9 
f 23/20/9 14/19/9 22/18/9 
f 16/21/9 14/19/9 23/20/9 
f 18/22/9 16/21/9 23/20/9 
f 24/23/10 25/24/10 26/25/10 
f 27/26/10 26/25/10 25/24/10 
f 28/27/11 29/28/11 30/29/11 
f 31/30/11 30/29/11 29/28/11 
f 32/26/12 33/25/12 34/24/12 
f 35/23/12 34/24/12 33/25/12 
f 19/12/13 21/14/13 28/11/13 
f 29/13/13 28/11/13 21/14/13 
f 36/24/14 37/26/14 38/23/14 
f 39/25/14 38/23/14 37/26/14 
f 40/30/15 41/29/15 17/28/15 
f 15/27/15 17/28/15 41/29/15 
f 29/11/16 21/12/16 13/13/16 
f 14/14/16 13/13/16 21/12/16 
f 42/29/17 43/27/17 44/30/17 
f 45/28/17 44/30/17 43/27/17 
f 46/31/18 47/32/18 48/33/18 
f 49/34/18 48/33/18 47/32/18 
f 50/35/18 48/33/18 49/34/18 
f 51/36/18 48/33/18 50/35/18 
f 52/37/18 50/35/18 49/34/18 
f 53/38/18 52/37/18 49/34/18 
f 48/33/18 51/36/18 54/39/18 
f 55/40/18 54/39/18 51/36/18 
f 56/41/18 54/39/18 55/40/18 
f 52/37/18 56/41/18 55/40/18 
f 53/38/18 56/41/18 52/37/18 
f 57/42/18 56/41/18 53/38/18 
f 25/23/19 38/24/19 27/25/19 
f 39/26/19 27/25/19 38/24/19 
f 43/11/20 23/12/20 45/13/20 
f 22/14/20 45/13/20 23/12/20 
f 58/43/21 34/44/21 48/45/21 
f 46/46/21 48/45/21 34/44/21 
f 54/45/22 59/43/22 48/46/22 
f 58/44/22 48/46/22 59/43/22 
f 34/43/11 35/44/11 46/45/11 
f 47/46/11 46/45/11 35/44/11 
f 42/30/23 40/29/23 43/28/23 
f 17/27/23 43/28/23 40/29/23 
f 58/24/24 60/26/24 34/23/24 
f 32/25/24 34/23/24 60/26/24 
f 49/45/25 36/43/25 53/46/25 
f 38/44/25 53/46/25 36/43/25 
f 30/47/18 31/48/18 32/49/18 
f 33/50/18 32/49/18 31/48/18 
f 61/51/18 33/50/18 31/48/18 
f 37/52/18 33/50/18 61/51/18 
f 39/53/18 37/52/18 61/51/18 
f 41/54/18 39/53/18 61/51/18 
f 27/55/18 39/53/18 41/54/18 
f 40/56/18 27/55/18 41/54/18 
f 30/47/18 32/49/18 62/57/18 
f 60/58/18 62/57/18 32/49/18 
f 44/59/18 62/57/18 60/58/18 
f 63/60/18 44/59/18 60/58/18 
f 26/61/18 44/59/18 63/60/18 
f 42/62/18 44/59/18 26/61/18 
f 27/55/18 42/62/18 26/61/18 
f 40/56/18 42/62/18 27/55/18 
f 44/29/22 45/27/22 62/30/22 
f 64/28/22 62/30/22 45/27/22 
f 64/27/21 28/28/21 62/29/21 
f 30/30/21 62/29/21 28/28/21 
f 31/29/26 29/27/26 61/30/26 
f 13/28/26 61/30/26 29/27/26 
f 61/29/25 13/27/25 41/30/25 
f 15/28/25 41/30/25 13/27/25 
f 57/46/15 53/45/15 25/44/15 
f 38/43/15 25/44/15 53/45/15 
f 24/24/27 26/26/27 59/23/27 
f 63/25/27 59/23/27 26/26/27 
f 45/11/28 22/12/28 64/13/28 
f 20/14/28 64/13/28 22/12/28 
f 35/24/29 33/26/29 36/23/29 
f 37/25/29 36/23/29 33/26/29 
f 64/11/30 20/12/30 28/13/30 
f 19/14/30 28/13/30 20/12/30 
f 59/24/31 63/26/31 58/23/31 
f 60/25/31 58/23/31 63/26/31 
f 56/45/17 24/43/17 54/46/17 
f 59/44/17 54/46/17 24/43/17 
f 43/13/32 17/11/32 23/14/32 
f 18/12/32 23/14/32 17/11/32 
f 56/46/23 57/45/23 24/44/23 
f 25/43/23 24/44/23 57/45/23 
f 47/45/26 35/43/26 49/46/26 
f 36/44/26 49/46/26 35/43/26 
usemtl wood
f 65/63/33 55/64/33 66/65/33 
f 51/66/33 66/65/33 55/64/33 
f 66/63/34 51/64/34 67/65/34 
f 50/66/34 67/65/34 51/64/34 
f 65/65/35 68/63/35 55/66/35 
f 52/64/35 55/66/35 68/63/35 
f 67/63/36 50/64/36 68/65/36 
f 52/66/36 68/65/36 50/64/36 
f 66/67/18 67/68/18 65/69/18 
f 68/70/18 65/69/18 67/68/18 
# 108 faces

