# 3ds Max Wavefront OBJ Exporter v0.97b - (c)2007 guruware
# ÆÄÀÏ »ı¼ºµÊ: 15.11.2020 00:45:26

mtllib tile_crystal.mtl

#
# object tile_crystal
#

v  0.5000 0.0000 0.5000
v  -0.5000 0.0000 0.5000
v  0.5000 -0.0000 -0.5000
v  -0.5000 -0.0000 -0.5000
v  0.5000 0.1000 -0.5000
v  0.5000 0.1000 0.5000
v  -0.5000 0.1000 0.5000
v  -0.5000 0.1000 -0.5000
v  0.5000 0.2000 -0.5000
v  -0.5000 0.2000 -0.5000
v  0.5000 0.2000 0.5000
v  -0.5000 0.2000 0.5000
# 12 vertices

vn 0.0000 -1.0000 0.0000
vn 1.0000 0.0000 -0.0000
vn 0.0000 0.0000 1.0000
vn -1.0000 0.0000 -0.0000
vn 0.0000 -0.0000 -1.0000
vn 0.0000 1.0000 -0.0000
# 6 vertex normals

vt 19.6850 19.6850 0.0000
vt -19.6850 19.6850 0.0000
vt 19.6850 -19.6850 0.0000
vt -19.6850 -19.6850 0.0000
vt 19.6850 3.9370 0.0000
vt -19.6850 3.9370 0.0000
vt 19.6850 0.0000 0.0000
vt -19.6850 0.0000 0.0000
vt 19.6850 7.8740 0.0000
vt -19.6850 7.8740 0.0000
# 10 texture coords

o tile_crystal
g tile_crystal
usemtl dirt
s off
f 1/1/1 2/2/1 3/3/1 
f 4/4/1 3/3/1 2/2/1 
f 5/5/2 6/6/2 3/7/2 
f 1/8/2 3/7/2 6/6/2 
f 1/7/3 6/5/3 2/8/3 
f 7/6/3 2/8/3 6/5/3 
f 4/8/4 2/7/4 8/6/4 
f 7/5/4 8/6/4 2/7/4 
f 4/7/5 8/5/5 3/8/5 
f 5/6/5 3/8/5 8/5/5 
usemtl foliage
f 9/4/6 10/3/6 11/2/6 
f 12/1/6 11/2/6 10/3/6 
f 9/9/2 11/10/2 5/5/2 
f 6/6/2 5/5/2 11/10/2 
f 8/5/5 10/9/5 5/6/5 
f 9/10/5 5/6/5 10/9/5 
f 8/6/4 7/5/4 10/10/4 
f 12/9/4 10/10/4 7/5/4 
f 6/5/3 11/9/3 7/6/3 
f 12/10/3 7/6/3 11/9/3 
# 20 faces

#
# object crystal
#

v  0.2720 0.6308 -0.0316
v  0.2349 0.7322 0.0305
v  0.2720 0.6308 0.1862
v  0.2349 0.7322 0.1241
v  0.1256 0.2687 0.1385
v  0.0073 0.3004 0.1385
v  0.1256 0.2687 0.0161
v  0.0073 0.3004 0.0161
v  0.0615 0.6872 -0.0316
v  0.1444 0.7565 0.0305
v  0.0545 0.6609 -0.0316
v  0.0545 0.6609 0.1862
v  0.2649 0.6045 -0.0316
v  0.2649 0.6045 0.1862
v  0.0615 0.6872 0.1862
v  0.1444 0.7565 0.1241
# 16 vertices

vn 0.9392 0.3434 -0.0000
vn -0.2588 -0.9659 0.0000
vn 0.1488 0.5552 -0.8183
vn -0.9915 0.1297 -0.0000
vn -0.0340 -0.1268 -0.9913
vn 0.9236 -0.3834 0.0000
vn -0.0340 -0.1268 0.9913
vn -0.9659 0.2588 -0.0000
vn 0.2588 0.9659 -0.0000
vn 0.0000 0.0000 1.0000
vn 0.9659 -0.2588 0.0000
vn 0.0000 -0.0000 -1.0000
vn -0.6417 0.7670 -0.0000
vn 0.1488 0.5552 0.8183
# 14 vertex normals

vt 6.3071 14.7382 0.0000
vt 2.7120 20.9928 0.0000
vt -6.3071 14.7382 0.0000
vt -2.7120 20.9928 0.0000
vt 3.5433 3.5433 0.0000
vt -3.5433 3.5433 0.0000
vt 3.5433 -3.5433 0.0000
vt -3.5433 -3.5433 0.0000
vt -6.3071 21.5136 0.0000
vt -3.5433 0.4653 0.0000
vt 6.3071 21.5136 0.0000
vt 3.5433 0.4653 0.0000
vt -6.3071 20.8661 0.0000
vt 6.3071 20.8661 0.0000
vt -6.3071 22.4409 0.0000
vt 6.3071 22.4409 0.0000
vt -2.7120 -2.7120 0.0000
vt 2.7120 -2.7120 0.0000
vt -2.7120 2.7120 0.0000
vt 2.7120 2.7120 0.0000
# 20 texture coords

o crystal
g crystal
usemtl crystal
s off
f 13/11/7 14/12/7 15/13/7 
f 16/14/7 15/13/7 14/12/7 
f 17/15/8 18/16/8 19/17/8 
f 20/18/8 19/17/8 18/16/8 
f 21/11/9 22/12/9 13/13/9 
f 14/14/9 13/13/9 22/12/9 
f 23/19/10 20/20/10 24/21/10 
f 18/22/10 24/21/10 20/20/10 
f 20/22/11 23/21/11 19/20/11 
f 25/19/11 19/20/11 23/21/11 
f 25/21/12 26/19/12 19/22/12 
f 17/20/12 19/22/12 26/19/12 
f 17/22/13 26/21/13 18/20/13 
f 24/19/13 18/20/13 26/21/13 
f 23/23/14 24/24/14 21/25/14 
f 27/26/14 21/25/14 24/24/14 
f 14/27/15 22/28/15 16/29/15 
f 28/30/15 16/29/15 22/28/15 
f 26/24/16 15/26/16 24/23/16 
f 27/25/16 24/23/16 15/26/16 
f 13/26/17 15/25/17 25/24/17 
f 26/23/17 25/24/17 15/25/17 
f 23/24/18 21/26/18 25/23/18 
f 13/25/18 25/23/18 21/26/18 
f 21/13/19 27/11/19 22/14/19 
f 28/12/19 22/14/19 27/11/19 
f 15/11/20 16/12/20 27/13/20 
f 28/14/20 27/13/20 16/12/20 
# 28 faces

#
# object crystal
#

v  -0.1808 0.5275 -0.2066
v  -0.2446 0.5808 -0.1588
v  -0.1808 0.5275 -0.0388
v  -0.2446 0.5808 -0.0866
v  -0.1390 0.2297 -0.0756
v  -0.2300 0.2053 -0.0756
v  -0.1390 0.2297 -0.1698
v  -0.2300 0.2053 -0.1698
v  -0.3428 0.4840 -0.2066
v  -0.3142 0.5622 -0.1588
v  -0.3374 0.4638 -0.2066
v  -0.3374 0.4638 -0.0388
v  -0.1753 0.5072 -0.2066
v  -0.1753 0.5072 -0.0388
v  -0.3428 0.4840 -0.0388
v  -0.3142 0.5622 -0.0866
# 16 vertices

vn 0.6417 0.7670 -0.0000
vn 0.2588 -0.9659 0.0000
vn -0.1488 0.5552 -0.8183
vn -0.9236 -0.3834 0.0000
vn 0.0340 -0.1268 -0.9913
vn 0.9915 0.1297 -0.0000
vn 0.0340 -0.1268 0.9913
vn -0.9659 -0.2588 0.0000
vn -0.2588 0.9659 -0.0000
vn 0.0000 0.0000 1.0000
vn 0.9659 0.2588 -0.0000
vn 0.0000 -0.0000 -1.0000
vn -0.9392 0.3434 -0.0000
vn -0.1488 0.5552 0.8183
# 14 vertex normals

vt 6.3071 14.7382 0.0000
vt 2.7120 20.9928 0.0000
vt -6.3071 14.7382 0.0000
vt -2.7120 20.9928 0.0000
vt 3.5433 3.5433 0.0000
vt -3.5433 3.5433 0.0000
vt 3.5433 -3.5433 0.0000
vt -3.5433 -3.5433 0.0000
vt -6.3071 21.5136 0.0000
vt -3.5433 0.4653 0.0000
vt 6.3071 21.5136 0.0000
vt 3.5433 0.4653 0.0000
vt -6.3071 20.8661 0.0000
vt 6.3071 20.8661 0.0000
vt -6.3071 22.4409 0.0000
vt 6.3071 22.4409 0.0000
vt -2.7120 -2.7120 0.0000
vt 2.7120 -2.7120 0.0000
vt -2.7120 2.7120 0.0000
vt 2.7120 2.7120 0.0000
# 20 texture coords

o crystal
g crystal
usemtl crystal
s off
f 29/31/21 30/32/21 31/33/21 
f 32/34/21 31/33/21 30/32/21 
f 33/35/22 34/36/22 35/37/22 
f 36/38/22 35/37/22 34/36/22 
f 37/31/23 38/32/23 29/33/23 
f 30/34/23 29/33/23 38/32/23 
f 39/39/24 36/40/24 40/41/24 
f 34/42/24 40/41/24 36/40/24 
f 36/42/25 39/41/25 35/40/25 
f 41/39/25 35/40/25 39/41/25 
f 41/41/26 42/39/26 35/42/26 
f 33/40/26 35/42/26 42/39/26 
f 33/42/27 42/41/27 34/40/27 
f 40/39/27 34/40/27 42/41/27 
f 39/43/28 40/44/28 37/45/28 
f 43/46/28 37/45/28 40/44/28 
f 30/47/29 38/48/29 32/49/29 
f 44/50/29 32/49/29 38/48/29 
f 42/44/30 31/46/30 40/43/30 
f 43/45/30 40/43/30 31/46/30 
f 29/46/31 31/45/31 41/44/31 
f 42/43/31 41/44/31 31/45/31 
f 39/44/32 37/46/32 41/43/32 
f 29/45/32 41/43/32 37/46/32 
f 37/33/33 43/31/33 38/34/33 
f 44/32/33 38/34/33 43/31/33 
f 31/31/34 32/32/34 43/33/34 
f 44/34/34 43/33/34 32/32/34 
# 28 faces

#
# object crystal
#

v  -0.2838 0.4638 0.2747
v  -0.1900 0.2053 0.2108
v  -0.1494 0.4638 0.3752
v  -0.1146 0.2053 0.2673
v  -0.1899 0.5275 0.1493
v  -0.1899 0.5808 0.2290
v  -0.0556 0.5275 0.2498
v  -0.1321 0.5808 0.2723
v  -0.1867 0.5072 0.1450
v  -0.0524 0.5072 0.2455
v  -0.1355 0.2297 0.1379
v  -0.0600 0.2297 0.1944
v  -0.2870 0.4840 0.2791
v  -0.2316 0.5622 0.2848
v  -0.1527 0.4840 0.3796
v  -0.1739 0.5622 0.3281
# 16 vertices

vn -0.5532 -0.3834 0.7395
vn 0.3844 0.7670 -0.5138
vn 0.5940 0.1297 -0.7940
vn 0.5786 0.2588 -0.7734
vn -0.7444 0.5552 -0.3711
vn 0.8007 0.0000 0.5990
vn 0.1550 -0.9659 -0.2072
vn -0.7734 -0.1268 -0.6210
vn 0.8142 -0.1268 0.5666
vn -0.1550 0.9659 0.2072
vn -0.8007 -0.0000 -0.5990
vn -0.5626 0.3434 0.7520
vn 0.5661 0.5552 0.6093
vn -0.5786 -0.2588 0.7734
# 14 vertex normals

vt 0.0000 12.3951 0.0000
vt 1.4471 1.3742 0.0000
vt 6.6048 12.3951 0.0000
vt 5.1577 1.3742 0.0000
vt 0.0000 9.3996 0.0000
vt -1.8824 12.6744 0.0000
vt -6.6048 9.3996 0.0000
vt -4.7224 12.6744 0.0000
vt 0.0000 11.9732 0.0000
vt -6.6048 11.9732 0.0000
vt -1.4471 0.9522 0.0000
vt -5.1577 0.9522 0.0000
vt 0.0000 12.6777 0.0000
vt -6.6048 12.6777 0.0000
vt 0.0000 11.8532 0.0000
vt -6.6048 11.8532 0.0000
vt 7.8937 8.3315 0.0000
vt 7.1239 12.0295 0.0000
vt 1.6168 10.3868 0.0000
vt 4.4248 12.9133 0.0000
vt -7.8097 10.1787 0.0000
vt -1.4299 11.8881 0.0000
vt -8.0231 10.9752 0.0000
vt -1.6433 12.6846 0.0000
vt -5.1577 0.2486 0.0000
vt -5.1577 -3.4620 0.0000
vt -1.4471 0.2486 0.0000
vt -1.4471 -3.4620 0.0000
vt 3.5324 -0.1990 0.0000
vt 7.8051 10.0626 0.0000
vt -0.0496 0.7692 0.0000
vt 1.4291 11.7859 0.0000
vt -3.7587 0.6382 0.0000
vt -0.1767 1.6064 0.0000
vt -8.0314 10.8998 0.0000
vt -1.6554 12.6231 0.0000
vt 1.8824 -0.1867 0.0000
vt 1.8824 -3.0267 0.0000
vt 4.7224 -0.1867 0.0000
vt 4.7224 -3.0267 0.0000
vt 7.8097 10.1787 0.0000
vt 8.0231 10.9752 0.0000
vt 1.4299 11.8881 0.0000
vt 1.6433 12.6846 0.0000
vt -0.0000 7.5525 0.0000
vt 6.6048 7.5525 0.0000
vt 1.8824 10.8274 0.0000
vt 4.7224 10.8274 0.0000
vt -6.7123 4.7236 0.0000
vt -0.4355 6.7789 0.0000
vt -5.9425 8.4216 0.0000
vt -3.2435 9.3054 0.0000
vt 6.6048 11.8532 0.0000
vt 6.6048 12.6777 0.0000
# 54 texture coords

o crystal
g crystal
usemtl crystal
s off
f 45/51/35 46/52/35 47/53/35 
f 48/54/35 47/53/35 46/52/35 
f 49/55/36 50/56/36 51/57/36 
f 52/58/36 51/57/36 50/56/36 
f 53/59/37 54/60/37 55/61/37 
f 56/62/37 55/61/37 54/60/37 
f 49/63/38 51/64/38 53/65/38 
f 54/66/38 53/65/38 51/64/38 
f 57/67/39 58/68/39 49/69/39 
f 50/70/39 49/69/39 58/68/39 
f 47/71/40 54/72/40 59/73/40 
f 51/74/40 59/73/40 54/72/40 
f 56/75/41 48/76/41 55/77/41 
f 46/78/41 55/77/41 48/76/41 
f 46/79/42 45/80/42 55/81/42 
f 53/82/42 55/81/42 45/80/42 
f 48/83/43 56/84/43 47/85/43 
f 54/86/43 47/85/43 56/84/43 
f 50/87/44 58/88/44 52/89/44 
f 60/90/44 52/89/44 58/88/44 
f 45/91/45 57/92/45 53/93/45 
f 49/94/45 53/93/45 57/92/45 
f 57/95/46 59/96/46 58/97/46 
f 60/98/46 58/97/46 59/96/46 
f 59/99/47 51/100/47 60/101/47 
f 52/102/47 60/101/47 51/100/47 
f 45/65/48 47/103/48 57/63/48 
f 59/104/48 57/63/48 47/103/48 
# 28 faces

#
# object rocks
#

v  -0.3684 0.2992 0.1620
v  -0.4446 0.2496 0.2466
v  -0.2886 0.2992 0.3136
v  0.2973 0.2000 0.2684
v  0.2821 0.2496 0.2646
v  0.0689 0.2000 0.4514
v  0.0689 0.4743 0.3628
v  0.1743 0.4743 0.2784
v  0.1189 0.3563 -0.2500
v  0.0829 0.6186 -0.1889
v  0.2015 0.3563 0.0305
v  0.1433 0.6186 0.0160
v  -0.2238 0.3892 0.0286
v  -0.1347 0.6186 0.0467
v  -0.1347 0.6186 -0.1137
v  -0.2213 0.2332 -0.0888
v  -0.2892 0.2000 -0.1276
v  -0.2305 0.2992 -0.0115
v  -0.3173 0.2992 -0.0115
v  -0.3857 0.2000 -0.1276
v  0.1687 0.4173 0.0426
v  0.1579 0.4743 0.0610
v  0.1862 0.3563 0.0428
v  0.2049 0.3563 0.1063
v  0.1981 0.4743 0.1976
v  0.2717 0.2000 0.1816
v  -0.1440 0.3892 -0.2423
v  -0.1779 0.3892 -0.1271
v  -0.1125 0.6186 -0.1889
v  -0.2438 0.2992 0.0336
v  -0.0149 0.2000 -0.5000
v  -0.0671 0.3892 -0.4114
v  0.0052 0.2000 -0.4318
v  -0.0059 0.2649 -0.3783
v  -0.0173 0.3892 -0.2423
v  0.0040 0.3276 -0.2566
v  -0.2972 0.2000 -0.5000
v  -0.2886 0.2314 -0.4853
v  -0.1698 0.3892 -0.4114
v  0.1292 0.4743 0.0610
v  -0.0148 0.4743 0.1763
v  -0.0148 0.6186 0.1427
v  0.5000 0.2000 -0.0013
v  0.3771 0.3563 -0.0317
v  0.0229 0.3563 -0.2500
v  0.3490 0.2496 -0.3909
v  0.2426 0.3563 -0.3029
v  0.3359 0.3563 -0.1714
v  -0.0356 0.2000 0.3677
v  -0.0881 0.2992 0.2936
v  -0.0750 0.4743 0.2475
v  -0.1290 0.2992 0.2609
v  -0.3845 0.2000 -0.2039
v  -0.3000 0.3892 -0.2248
v  -0.0465 0.4743 0.1509
v  -0.0967 0.2992 0.1514
v  0.0385 0.3563 -0.3029
v  -0.2008 0.2992 0.3839
v  0.3731 0.2000 -0.4318
v  -0.2682 0.3892 -0.3325
v  -0.2008 0.2000 0.5000
v  -0.5000 0.2000 0.2603
# 62 vertices

vn -0.3743 0.9035 0.2090
vn 0.5862 0.2343 0.7756
vn 0.9370 0.1910 -0.2926
vn -0.9441 0.2221 -0.2436
vn -0.9332 0.3593 -0.0000
vn -0.9478 0.2502 -0.1977
vn 0.0000 0.7383 -0.6745
vn 0.9215 0.2608 -0.2878
vn -0.9370 0.1910 -0.2926
vn 0.8888 0.3646 -0.2776
vn 0.0000 0.4011 -0.9161
vn 0.5941 0.1710 0.7860
vn 0.0000 1.0000 -0.0000
vn 0.5136 0.5238 0.6796
vn 0.0000 0.2125 -0.9772
vn 0.4986 0.7816 -0.3749
vn -0.5862 0.2343 0.7756
vn -0.5693 0.3297 0.7531
vn -0.9215 0.2608 -0.2878
vn -0.7859 0.5676 -0.2455
vn 0.0000 0.2892 -0.9573
vn 0.0000 0.6105 -0.7920
vn 0.7859 0.5676 -0.2455
vn -0.4711 0.6241 -0.6233
vn 0.8748 0.4001 0.2732
vn 0.4542 0.6577 0.6009
vn -0.8888 0.3646 -0.2776
vn -0.6821 0.6995 -0.2130
vn -0.5941 0.1710 0.7860
vn -0.4542 0.6577 0.6009
# 30 vertex normals

vt -1.7988 -12.2892 0.0000
vt -0.5307 -16.8431 0.0000
vt 4.5894 -12.2892 0.0000
vt 3.2959 -3.4852 0.0000
vt 2.9044 -1.4772 0.0000
vt -7.8738 -3.4852 0.0000
vt -5.9068 7.6221 0.0000
vt -0.7540 7.6221 0.0000
vt 7.3989 4.6714 0.0000
vt 5.6732 15.1918 0.0000
vt -3.4137 4.6714 0.0000
vt -2.2307 15.1918 0.0000
vt 1.0543 3.8163 0.0000
vt 1.7177 13.4922 0.0000
vt -4.1839 13.4922 0.0000
vt 8.6343 -1.5310 0.0000
vt 11.2814 -3.4667 0.0000
vt 8.9931 2.3215 0.0000
vt 12.3767 2.3215 0.0000
vt 15.0461 -3.4667 0.0000
vt -3.4573 6.7424 0.0000
vt -3.9779 9.0658 0.0000
vt -3.6672 4.2549 0.0000
vt -6.1157 4.2549 0.0000
vt -9.2446 9.0658 0.0000
vt -9.5394 -2.1195 0.0000
vt -12.8883 -2.1195 0.0000
vt -12.5778 -0.0975 0.0000
vt -6.8379 5.7821 0.0000
vt -2.3953 5.7821 0.0000
vt -5.3289 14.9813 0.0000
vt -2.4269 14.9813 0.0000
vt -0.5440 -0.4781 0.0000
vt 3.6094 5.7821 0.0000
vt 2.2778 2.1691 0.0000
vt 4.0156 2.1691 0.0000
vt 17.7394 -1.7982 0.0000
vt 15.2331 6.2033 0.0000
vt 15.1101 -1.7982 0.0000
vt 13.3594 0.9455 0.0000
vt 8.7136 6.2033 0.0000
vt 8.9697 3.5985 0.0000
vt 11.5952 -7.3807 0.0000
vt 11.2571 -6.0312 0.0000
vt 0.5809 -7.3807 0.0000
vt 2.6186 0.7527 0.0000
vt 6.6245 0.7527 0.0000
vt 5.5959 5.0998 0.0000
vt 4.1046 15.5810 0.0000
vt 4.8452 5.0998 0.0000
vt 4.3054 7.5371 0.0000
vt 2.6668 9.8136 0.0000
vt -4.3736 9.8136 0.0000
vt -3.6283 15.5810 0.0000
vt -5.5915 0.5906 0.0000
vt -3.2352 -6.9539 0.0000
vt 0.5774 5.2533 0.0000
vt 4.3901 -6.9539 0.0000
vt 5.2552 1.7177 0.0000
vt 5.2552 -4.1839 0.0000
vt 15.5885 -6.1407 0.0000
vt 12.4392 1.0833 0.0000
vt 4.4270 -6.1407 0.0000
vt 4.0183 1.0833 0.0000
vt -0.1553 2.9029 0.0000
vt 0.6749 5.3851 0.0000
vt -0.8937 4.0578 0.0000
vt -4.6383 4.0578 0.0000
vt -3.2352 14.6261 0.0000
vt 5.6169 5.3851 0.0000
vt 4.3901 14.6261 0.0000
vt 3.3160 -14.0465 0.0000
vt 3.2227 -7.3110 0.0000
vt -2.8332 -7.3110 0.0000
vt 12.1629 -2.7256 0.0000
vt 10.1959 8.3816 0.0000
vt 7.0523 -2.7256 0.0000
vt 3.7757 1.2903 0.0000
vt 3.1590 8.3816 0.0000
vt 1.7763 1.2903 0.0000
vt -11.8312 -1.0078 0.0000
vt -8.8578 0.3752 0.0000
vt -16.4910 -1.0078 0.0000
vt -14.3251 6.8843 0.0000
vt -8.3579 6.8843 0.0000
vt 5.8425 10.4043 0.0000
vt 6.4450 3.2632 0.0000
vt 9.5676 10.4043 0.0000
vt 10.6644 3.2632 0.0000
vt -7.7278 7.2714 0.0000
vt -6.1577 2.2442 0.0000
vt -6.7989 10.2457 0.0000
vt -2.6882 13.3527 0.0000
vt -5.0390 2.2442 0.0000
vt 0.5774 6.4893 0.0000
vt 2.9255 9.1096 0.0000
vt 1.8150 5.5539 0.0000
vt -13.2222 -0.3772 0.0000
vt -9.0623 2.6232 0.0000
vt -11.0910 3.9939 0.0000
vt -9.0481 3.9939 0.0000
vt -5.0390 10.9857 0.0000
vt -6.1577 10.9857 0.0000
vt -6.5810 8.6427 0.0000
vt 8.9931 -0.4224 0.0000
vt 12.3767 -0.4224 0.0000
vt 9.5111 1.2364 0.0000
vt 11.2571 11.5407 0.0000
vt 14.3711 5.9629 0.0000
vt 7.8317 14.1298 0.0000
vt 5.0304 9.6013 0.0000
vt 3.7726 5.5738 0.0000
vt 3.4354 10.8069 0.0000
vt -0.2029 -9.7027 0.0000
vt 0.2301 -6.4770 0.0000
vt -14.5556 -9.7027 0.0000
vt -13.6157 -7.2381 0.0000
vt -9.4644 -1.9331 0.0000
vt -1.5027 -1.9331 0.0000
vt 10.8312 -10.5751 0.0000
vt 9.6752 -8.2041 0.0000
vt -5.7698 -10.5751 0.0000
vt 2.1163 -3.1008 0.0000
vt -3.2717 -3.1008 0.0000
vt -3.8449 -4.2099 0.0000
vt -1.7898 -12.1634 0.0000
vt 0.9678 -4.2099 0.0000
vt -4.6369 6.0771 0.0000
vt -7.7529 6.0771 0.0000
vt -6.0173 -3.5753 0.0000
vt 0.6749 -8.9179 0.0000
vt 2.6186 -15.1410 0.0000
vt 5.6169 -8.9179 0.0000
vt 6.6245 -15.1410 0.0000
vt 6.9413 -4.6774 0.0000
vt 10.4639 -12.2390 0.0000
vt 11.7018 -8.2755 0.0000
vt -9.2681 -6.5502 0.0000
vt -9.2569 -1.3671 0.0000
vt -17.3444 -6.5502 0.0000
vt -14.7677 -1.3671 0.0000
vt -14.1094 -6.0359 0.0000
vt -2.6927 -6.0359 0.0000
vt -13.6935 -4.7082 0.0000
vt -8.5629 1.9656 0.0000
vt -4.4106 1.9656 0.0000
vt 3.2866 -5.5625 0.0000
vt 0.0034 -11.0259 0.0000
vt 9.9761 -5.5625 0.0000
vt 13.8340 -8.2942 0.0000
vt 14.9593 -11.0259 0.0000
vt -14.7106 -1.1669 0.0000
vt -13.1043 -6.3100 0.0000
vt -7.9928 3.9107 0.0000
vt -9.4644 -11.1500 0.0000
vt -7.8617 1.1209 0.0000
vt -4.6383 -9.2000 0.0000
vt -1.5027 -11.1500 0.0000
vt -0.8937 -9.2000 0.0000
vt -7.2629 1.5735 0.0000
vt 3.4523 9.6945 0.0000
vt 2.7070 15.4620 0.0000
vt 1.9010 9.6945 0.0000
vt -3.1566 15.4620 0.0000
vt -6.3299 6.2971 0.0000
vt -6.8421 2.6976 0.0000
vt 0.3513 2.6976 0.0000
vt 2.2721 -7.5792 0.0000
vt -2.0216 -7.5792 0.0000
vt 4.8488 -12.7622 0.0000
vt -9.7835 -12.7622 0.0000
vt -8.3649 -10.1707 0.0000
# 172 texture coords

o rocks
g rocks
usemtl foliage
s off
f 61/105/49 62/106/49 63/107/49 
f 64/108/50 65/109/50 66/110/50 
f 67/111/50 66/110/50 65/109/50 
f 68/112/50 67/111/50 65/109/50 
f 69/113/51 70/114/51 71/115/51 
f 72/116/51 71/115/51 70/114/51 
f 73/117/52 74/118/53 75/119/54 
f 76/120/55 77/121/55 78/122/55 
f 79/123/55 78/122/55 77/121/55 
f 80/124/55 79/123/55 77/121/55 
f 81/125/56 82/126/56 83/127/56 
f 84/128/56 83/127/56 82/126/56 
f 85/129/56 84/128/56 82/126/56 
f 86/130/56 84/128/56 85/129/56 
f 64/131/56 86/130/56 85/129/56 
f 65/132/56 64/131/56 85/129/56 
f 87/133/57 88/134/57 89/135/57 
f 75/136/54 89/135/57 88/134/57 
f 76/137/57 75/136/54 88/134/57 
f 73/138/52 75/136/54 76/137/57 
f 78/139/57 73/138/52 76/137/57 
f 90/140/57 73/138/52 78/139/57 
f 91/141/58 92/142/58 93/143/58 
f 94/144/58 93/143/58 92/142/58 
f 95/145/58 94/144/58 92/142/58 
f 96/146/58 94/144/58 95/145/58 
f 97/147/59 98/148/59 91/149/59 
f 92/150/59 91/149/59 98/148/59 
f 99/151/59 92/150/59 98/148/59 
f 71/152/60 72/153/60 83/154/60 
f 81/155/60 83/154/60 72/153/60 
f 100/156/60 81/155/60 72/153/60 
f 101/157/60 100/156/60 72/153/60 
f 102/158/60 101/157/60 72/153/60 
f 72/159/61 70/160/61 102/161/61 
f 89/162/61 102/161/61 70/160/61 
f 74/163/61 102/161/61 89/162/61 
f 75/164/61 74/163/61 89/162/61 
f 103/165/62 104/166/62 86/167/62 
f 84/168/62 86/167/62 104/166/62 
f 96/169/63 95/170/63 105/171/63 
f 69/172/63 105/171/63 95/170/63 
f 70/173/63 69/172/63 95/170/63 
f 87/174/63 70/173/63 95/170/63 
f 89/175/63 70/173/63 87/174/63 
f 106/176/64 107/177/64 108/178/64 
f 66/179/65 67/180/65 109/181/65 
f 110/182/65 109/181/65 67/180/65 
f 67/180/65 111/183/65 110/182/65 
f 112/184/65 110/182/65 111/183/65 
f 77/185/66 76/186/66 113/187/66 
f 114/188/66 113/187/66 76/186/66 
f 88/189/66 114/188/66 76/186/66 
f 115/190/67 116/191/67 111/192/67 
f 112/193/67 111/192/67 116/191/67 
f 85/194/61 82/195/61 68/196/61 
f 67/197/61 68/196/61 82/195/61 
f 100/198/61 67/197/61 82/195/61 
f 101/199/61 67/197/61 100/198/61 
f 111/200/61 67/197/61 101/199/61 
f 115/201/61 111/200/61 101/199/61 
f 94/202/68 96/203/68 117/204/68 
f 105/205/68 117/204/68 96/203/68 
f 100/206/69 82/207/69 81/208/69 
f 78/209/61 79/210/61 90/211/61 
f 63/212/61 90/211/61 79/210/61 
f 61/213/61 63/212/61 79/210/61 
f 63/212/61 118/214/61 90/211/61 
f 118/214/61 112/215/61 90/211/61 
f 116/216/61 90/211/61 112/215/61 
f 112/215/61 118/214/61 110/217/61 
f 93/218/70 94/219/70 119/220/70 
f 106/221/70 119/220/70 94/219/70 
f 107/222/70 106/221/70 94/219/70 
f 117/223/70 107/222/70 94/219/70 
f 119/224/71 106/225/71 103/226/71 
f 108/227/71 103/226/71 106/225/71 
f 104/228/71 103/226/71 108/227/71 
f 99/229/72 98/230/72 120/231/72 
f 85/232/73 68/233/73 65/234/73 
f 95/235/61 92/236/61 87/237/61 
f 99/238/61 87/237/61 92/236/61 
f 88/239/61 87/237/61 99/238/61 
f 120/240/61 88/239/61 99/238/61 
f 114/241/61 88/239/61 120/240/61 
f 109/242/74 110/243/74 121/244/74 
f 118/245/74 121/244/74 110/243/74 
f 97/246/75 113/247/75 98/248/75 
f 120/249/75 98/248/75 113/247/75 
f 114/250/75 120/249/75 113/247/75 
f 79/251/76 80/252/76 61/253/76 
f 62/254/76 61/253/76 80/252/76 
f 122/255/76 62/254/76 80/252/76 
f 104/256/61 108/257/61 84/258/61 
f 107/259/61 84/258/61 108/257/61 
f 71/260/61 84/258/61 107/259/61 
f 69/261/61 71/260/61 107/259/61 
f 117/262/61 69/261/61 107/259/61 
f 105/263/61 69/261/61 117/262/61 
f 71/260/61 83/264/61 84/258/61 
f 101/265/77 102/266/77 115/267/77 
f 102/266/77 74/268/77 115/267/77 
f 74/268/77 73/269/77 115/267/77 
f 73/269/77 90/270/77 115/267/77 
f 116/271/77 115/267/77 90/270/77 
f 118/272/78 63/273/78 121/274/78 
f 122/275/78 121/274/78 63/273/78 
f 62/276/78 122/275/78 63/273/78 
# 108 faces

