# 3ds Max Wavefront OBJ Exporter v0.97b - (c)2007 guruware
# ÆÄÀÏ »ı¼ºµÊ: 15.11.2020 01:06:43

mtllib tile_startpoint.mtl

#
# object tile_dirt
#

v  -0.5000 0.0000 0.5000
v  0.5000 0.0000 -0.5000
v  0.5000 0.0000 0.5000
v  -0.5000 0.0000 -0.5000
v  0.5000 0.1000 0.5000
v  0.5000 0.1000 -0.5000
v  -0.5000 0.1000 0.5000
v  -0.5000 0.1000 -0.5000
# 8 vertices

vn 0.0000 -1.0000 -0.0000
vn 1.0000 0.0000 -0.0000
vn 0.0000 0.0000 1.0000
vn -1.0000 0.0000 -0.0000
vn 0.0000 0.0000 -1.0000
vn 0.0000 1.0000 -0.0000
# 6 vertex normals

vt -19.6850 19.6850 0.0000
vt 19.6850 -19.6850 0.0000
vt 19.6850 19.6850 0.0000
vt -19.6850 -19.6850 0.0000
vt -19.6850 3.9370 0.0000
vt 19.6850 0.0000 0.0000
vt 19.6850 3.9370 0.0000
vt -19.6850 0.0000 0.0000
# 8 texture coords

o tile_dirt
g tile_dirt
usemtl tile_dirt_dirt
s 1
f 1/1/1 2/2/1 3/3/1 
f 2/2/1 1/1/1 4/4/1 
f 5/5/2 2/6/2 6/7/2 
f 2/6/2 5/5/2 3/8/2 
f 5/7/3 1/8/3 3/6/3 
f 1/8/3 5/7/3 7/5/3 
f 1/6/4 8/5/4 4/8/4 
f 8/5/4 1/6/4 7/7/4 
f 8/7/5 2/8/5 4/6/5 
f 2/8/5 8/7/5 6/5/5 
f 8/2/6 5/1/6 6/4/6 
f 5/1/6 8/2/6 7/3/6 
# 12 faces

#
# object towerRound_base
#

v  -0.0000 0.2000 -0.5000
v  0.1294 0.1000 -0.4830
v  0.0000 0.1000 -0.5000
v  0.1294 0.2000 -0.4830
v  0.4330 0.2000 0.2500
v  0.4830 0.1000 0.1294
v  0.4830 0.2000 0.1294
v  0.4330 0.1000 0.2500
v  -0.1294 0.2000 -0.4830
v  -0.0000 0.2600 -0.4350
v  -0.1126 0.2600 -0.4202
v  -0.4830 0.1000 0.1294
v  -0.5000 0.2000 -0.0000
v  -0.5000 0.1000 -0.0000
v  -0.4830 0.2000 0.1294
v  -0.4830 0.1000 -0.1294
v  -0.4330 0.2000 -0.2500
v  -0.4330 0.1000 -0.2500
v  -0.4830 0.2000 -0.1294
v  -0.4330 0.1000 0.2500
v  -0.4330 0.1000 -0.4330
v  -0.4330 0.1000 0.4330
v  -0.2500 0.1000 -0.4330
v  -0.2500 0.1000 0.4330
v  -0.1294 0.1000 -0.4830
v  -0.1294 0.1000 0.4830
v  0.0000 0.1000 0.5000
v  0.1294 0.1000 0.4830
v  0.2500 0.1000 -0.4330
v  0.2500 0.1000 0.4330
v  0.4330 0.1000 -0.4330
v  0.4330 0.1000 -0.2500
v  0.4330 0.1000 0.4330
v  0.4830 0.1000 -0.1294
v  0.5000 0.1000 -0.0000
v  0.2500 0.2000 -0.4330
v  0.3536 0.2000 -0.3536
v  0.3767 0.2600 -0.2175
v  0.4330 0.2000 -0.2500
v  0.3076 0.2600 -0.3076
v  -0.0000 0.2000 0.5000
v  0.1294 0.2000 0.4830
v  -0.4350 0.2600 -0.0000
v  -0.4202 0.2600 -0.1126
v  -0.2175 0.2600 -0.3767
v  -0.2500 0.2000 -0.4330
v  0.4830 0.2000 -0.1294
v  0.4350 0.2600 -0.0000
v  0.5000 0.2000 -0.0000
v  0.4202 0.2600 0.1126
v  -0.3076 0.2600 -0.3076
v  -0.3536 0.2000 -0.3536
v  0.2175 0.2600 -0.3767
v  0.1126 0.2600 -0.4202
v  -0.1294 0.2000 0.4830
v  0.3767 0.2600 0.2175
v  0.4202 0.2600 -0.1126
v  -0.4330 0.2000 0.2500
v  0.2175 0.2600 0.3767
v  0.2500 0.2000 0.4330
v  0.1126 0.2600 0.4202
v  -0.2175 0.2600 0.3767
v  -0.1126 0.2600 0.4202
v  -0.2500 0.2000 0.4330
v  -0.3767 0.2600 -0.2175
v  -0.0000 0.2600 0.4350
v  -0.3076 0.2600 0.3076
v  -0.3536 0.2000 0.3536
v  -0.4202 0.2600 0.1126
v  0.3536 0.2000 0.3536
v  0.3076 0.2600 0.3076
v  -0.3767 0.2600 0.2175
v  0.3237 0.2600 -0.0867
v  0.3237 0.2600 0.0867
v  0.3351 0.2600 -0.0000
v  0.2902 0.2600 -0.1675
v  0.2902 0.2600 0.1675
v  0.2369 0.2600 -0.2369
v  0.2369 0.2600 0.2369
v  0.1675 0.2600 -0.2902
v  0.1675 0.2600 0.2902
v  0.0867 0.2600 -0.3237
v  0.0867 0.2600 0.3237
v  -0.0000 0.2600 -0.3351
v  -0.0000 0.2600 0.3351
v  -0.0867 0.2600 -0.3237
v  -0.0867 0.2600 0.3237
v  -0.1675 0.2600 0.2902
v  -0.1675 0.2600 -0.2902
v  -0.2369 0.2600 -0.2369
v  -0.2369 0.2600 0.2369
v  -0.2902 0.2600 -0.1675
v  -0.2902 0.2600 0.1675
v  -0.3237 0.2600 -0.0867
v  -0.3237 0.2600 0.0867
v  -0.3351 0.2600 -0.0000
v  0.4202 0.3100 -0.1126
v  0.4202 0.3100 0.1126
v  0.4350 0.3100 -0.0000
v  0.3767 0.3100 -0.2175
v  0.3767 0.3100 0.2175
v  0.3076 0.3100 -0.3076
v  0.3351 0.3100 -0.0000
v  0.3237 0.3100 -0.0867
v  0.2902 0.3100 -0.1675
v  0.2175 0.3100 -0.3767
v  0.2369 0.3100 -0.2369
v  0.1675 0.3100 -0.2902
v  0.1126 0.3100 -0.4202
v  0.0867 0.3100 -0.3237
v  -0.0000 0.3100 -0.4350
v  -0.0000 0.3100 -0.3351
v  -0.0867 0.3100 -0.3237
v  -0.1126 0.3100 -0.4202
v  -0.1675 0.3100 -0.2902
v  -0.2175 0.3100 -0.3767
v  -0.2369 0.3100 -0.2369
v  -0.3076 0.3100 -0.3076
v  -0.2902 0.3100 -0.1675
v  -0.3237 0.3100 -0.0867
v  -0.3767 0.3100 -0.2175
v  -0.3351 0.3100 -0.0000
v  -0.3767 0.3100 0.2175
v  -0.3237 0.3100 0.0867
v  -0.3076 0.3100 0.3076
v  -0.2902 0.3100 0.1675
v  -0.2369 0.3100 0.2369
v  -0.2175 0.3100 0.3767
v  -0.1675 0.3100 0.2902
v  -0.1126 0.3100 0.4202
v  -0.0867 0.3100 0.3237
v  -0.0000 0.3100 0.4350
v  -0.0000 0.3100 0.3351
v  0.0867 0.3100 0.3237
v  0.1126 0.3100 0.4202
v  0.1675 0.3100 0.2902
v  0.2175 0.3100 0.3767
v  0.2369 0.3100 0.2369
v  0.2902 0.3100 0.1675
v  0.3076 0.3100 0.3076
v  0.3237 0.3100 0.0867
v  -0.4202 0.3100 -0.1126
v  -0.4202 0.3100 0.1126
v  -0.4350 0.3100 -0.0000
# 144 vertices

vn 0.0000 0.0000 -1.0000
vn 0.2588 0.0000 -0.9659
vn 0.9239 0.0000 0.3827
vn 0.9659 0.0000 0.2588
vn -0.1756 0.7348 -0.6552
vn 0.0000 0.7348 -0.6783
vn -0.9659 0.0000 0.2588
vn -1.0000 0.0000 -0.0000
vn -0.9659 0.0000 -0.2588
vn -0.9239 0.0000 -0.3827
vn 0.0000 -1.0000 -0.0000
vn 0.3827 0.0000 -0.9239
vn 0.4796 0.7348 -0.4796
vn 0.5874 0.7348 -0.3391
vn 0.2588 0.0000 0.9659
vn 0.0000 0.0000 1.0000
vn -0.6552 0.7348 -0.1756
vn -0.6783 0.7348 -0.0000
vn -0.3391 0.7348 -0.5874
vn 0.9659 0.0000 -0.2588
vn 0.9239 0.0000 -0.3827
vn 0.6783 0.7348 -0.0000
vn 0.6552 0.7348 0.1756
vn -0.4796 0.7348 -0.4796
vn 0.1756 0.7348 -0.6552
vn 0.3391 0.7348 -0.5874
vn -0.2588 0.0000 0.9659
vn 1.0000 0.0000 -0.0000
vn 0.5874 0.7348 0.3391
vn 0.6552 0.7348 -0.1756
vn -0.3827 0.0000 -0.9239
vn -0.2588 0.0000 -0.9659
vn -0.9239 0.0000 0.3827
vn 0.3391 0.7348 0.5874
vn 0.1756 0.7348 0.6552
vn -0.3391 0.7348 0.5874
vn -0.1756 0.7348 0.6552
vn 0.3827 0.0000 0.9239
vn -0.5874 0.7348 -0.3391
vn 0.0000 0.7348 0.6783
vn -0.4796 0.7348 0.4796
vn -0.6552 0.7348 0.1756
vn 0.4796 0.7348 0.4796
vn -0.3827 0.0000 0.9239
vn -0.5874 0.7348 0.3391
vn -0.4701 0.7470 0.4701
vn -0.4066 0.7442 0.5299
vn -0.5299 0.7442 0.4066
vn -0.4701 0.7470 -0.4701
vn -0.4066 0.7442 -0.5299
vn -0.5299 0.7442 -0.4066
vn 0.4701 0.7470 -0.4701
vn 0.5299 0.7442 -0.4066
vn 0.4066 0.7442 -0.5299
vn 0.4701 0.7470 0.4701
vn 0.5299 0.7442 0.4066
vn 0.4066 0.7442 0.5299
vn 0.0000 1.0000 -0.0000
vn -0.7071 0.0000 0.7071
vn -0.8660 0.0000 0.5000
vn -0.5000 0.0000 0.8660
vn 0.5000 0.0000 0.8660
vn 0.7071 0.0000 0.7071
vn 0.8660 0.0000 0.5000
vn 0.8660 0.0000 -0.5000
vn 0.7071 0.0000 -0.7071
vn 0.5000 0.0000 -0.8660
vn -0.5000 0.0000 -0.8660
vn -0.7071 0.0000 -0.7071
vn -0.8660 0.0000 -0.5000
# 70 vertex normals

vt 2.5694 3.9370 0.0000
vt -2.5694 0.0000 0.0000
vt 2.5694 0.0000 0.0000
vt -2.5694 3.9370 0.0000
vt 2.5694 -0.0000 0.0000
vt -2.5694 -0.0000 0.0000
vt 2.5694 -11.6013 0.0000
vt -2.2354 -8.1347 0.0000
vt -2.5694 -11.6013 0.0000
vt 2.2354 -8.1347 0.0000
vt -19.0143 5.0949 0.0000
vt -17.0477 -9.8425 0.0000
vt -17.0477 9.8425 0.0000
vt -19.0143 -5.0949 0.0000
vt -19.6850 -0.0000 0.0000
vt -17.0477 -17.0477 0.0000
vt -17.0477 17.0477 0.0000
vt -9.8425 -17.0477 0.0000
vt -9.8425 17.0477 0.0000
vt -5.0949 -19.0143 0.0000
vt -5.0949 19.0143 0.0000
vt 0.0000 -19.6850 0.0000
vt 0.0000 19.6850 0.0000
vt 5.0949 19.0143 0.0000
vt 5.0949 -19.0143 0.0000
vt 9.8425 -17.0477 0.0000
vt 9.8425 17.0477 0.0000
vt 17.0477 -17.0477 0.0000
vt 17.0477 -9.8425 0.0000
vt 17.0477 9.8425 0.0000
vt 17.0477 17.0477 0.0000
vt 19.0143 -5.0949 0.0000
vt 19.0143 5.0949 0.0000
vt 19.6850 -0.0000 0.0000
vt 17.0477 0.0000 0.0000
vt 9.8425 3.9370 0.0000
vt 9.8425 0.0000 0.0000
vt -3.1469 -17.7883 0.0000
vt 2.5694 -11.8943 0.0000
vt -2.5694 -11.8943 0.0000
vt 3.1469 -17.7883 0.0000
vt -9.8425 3.9370 0.0000
vt -17.0477 0.0000 0.0000
vt -9.8425 0.0000 0.0000
vt 9.8425 -0.0000 0.0000
vt 17.0477 -0.0000 0.0000
vt -17.0477 -0.0000 0.0000
vt -9.8425 -0.0000 0.0000
vt -12.7430 -3.4145 0.0000
vt -12.7430 3.4145 0.0000
vt -13.1925 0.0000 0.0000
vt -11.4250 -6.5963 0.0000
vt -11.4250 6.5963 0.0000
vt -9.3285 -9.3285 0.0000
vt -9.3285 9.3285 0.0000
vt -6.5963 -11.4250 0.0000
vt -6.5963 11.4250 0.0000
vt -3.4145 -12.7430 0.0000
vt -3.4145 12.7430 0.0000
vt 0.0000 -13.1925 0.0000
vt 0.0000 13.1925 0.0000
vt 3.4145 -12.7430 0.0000
vt 3.4145 12.7430 0.0000
vt 6.5963 11.4250 0.0000
vt 6.5963 -11.4250 0.0000
vt 9.3285 -9.3285 0.0000
vt 9.3285 9.3285 0.0000
vt 11.4250 -6.5963 0.0000
vt 11.4250 6.5963 0.0000
vt 12.7430 -3.4145 0.0000
vt 12.7430 3.4145 0.0000
vt 13.1925 0.0000 0.0000
vt -16.5424 -4.4325 0.0000
vt -16.5424 4.4325 0.0000
vt -17.1260 0.0000 0.0000
vt -14.8315 -8.5630 0.0000
vt -14.8315 8.5630 0.0000
vt -12.1099 -12.1099 0.0000
vt -8.5630 -14.8315 0.0000
vt -4.4325 -16.5424 0.0000
vt 0.0000 -17.1260 0.0000
vt 4.4325 -16.5424 0.0000
vt 8.5630 -14.8315 0.0000
vt 12.1099 -12.1099 0.0000
vt 14.8315 -8.5630 0.0000
vt 14.8315 8.5630 0.0000
vt 12.1099 12.1099 0.0000
vt 8.5630 14.8315 0.0000
vt 4.4325 16.5424 0.0000
vt 0.0000 17.1260 0.0000
vt -4.4325 16.5424 0.0000
vt -8.5630 14.8315 0.0000
vt -12.1099 12.1099 0.0000
vt 16.5424 -4.4325 0.0000
vt 16.5424 4.4325 0.0000
vt 17.1260 0.0000 0.0000
vt 2.2354 6.2992 0.0000
vt -2.2354 8.2677 0.0000
vt -2.2354 6.2992 0.0000
vt 2.2354 8.2677 0.0000
vt 1.7220 8.2677 0.0000
vt -1.7220 6.2992 0.0000
vt 1.7220 6.2992 0.0000
vt -1.7220 8.2677 0.0000
# 104 texture coords

o towerRound_base
g towerRound_base
usemtl towerRound_base_red
s 1
f 9/9/7 10/10/8 11/11/7 
f 10/10/8 9/9/7 12/12/8 
f 13/12/9 14/13/10 15/9/10 
f 14/13/10 13/12/9 16/14/9 
f 17/15/11 18/16/12 9/17/12 
f 18/16/12 17/15/11 19/18/11 
f 20/11/13 21/12/14 22/10/14 
f 21/12/14 20/11/13 23/9/13 
f 24/11/15 25/12/16 26/10/16 
f 25/12/16 24/11/15 27/9/15 
f 20/19/17 26/20/17 28/21/17 
f 26/20/17 20/19/17 24/22/17 
f 24/22/17 20/19/17 22/23/17 
f 29/24/17 28/21/17 26/20/17 
f 29/24/17 30/25/17 28/21/17 
f 31/26/17 30/25/17 29/24/17 
f 31/26/17 32/27/17 30/25/17 
f 33/28/17 32/27/17 31/26/17 
f 33/28/17 34/29/17 32/27/17 
f 11/30/17 34/29/17 33/28/17 
f 11/30/17 35/31/17 34/29/17 
f 11/30/17 36/32/17 35/31/17 
f 10/33/17 36/32/17 11/30/17 
f 37/34/17 36/32/17 10/33/17 
f 37/34/17 38/35/17 36/32/17 
f 39/36/17 38/35/17 37/34/17 
f 40/37/17 38/35/17 39/36/17 
f 16/38/17 38/35/17 40/37/17 
f 38/35/17 16/38/17 41/39/17 
f 42/40/17 16/38/17 40/37/17 
f 42/40/17 14/41/17 16/38/17 
f 14/41/17 42/40/17 43/42/17 
f 12/9/8 37/14/18 10/13/8 
f 37/14/18 12/9/8 44/12/18 
f 45/15/19 46/16/20 47/17/20 
f 46/16/20 45/15/19 48/18/19 
f 36/11/21 49/12/22 35/10/22 
f 49/12/22 36/11/21 50/9/21 
f 27/17/23 51/18/24 52/16/23 
f 51/18/24 27/17/23 21/15/24 
f 17/17/11 53/18/25 19/16/11 
f 53/18/25 17/17/11 54/15/25 
f 22/11/14 27/12/15 24/10/15 
f 27/12/15 22/11/14 21/9/14 
f 55/12/26 40/13/27 47/9/27 
f 40/13/27 55/12/26 42/14/26 
f 56/18/28 15/17/29 57/15/28 
f 15/17/29 56/18/28 58/16/29 
f 54/17/25 59/18/30 53/16/25 
f 59/18/30 54/17/25 60/15/30 
f 12/15/31 61/16/32 44/17/32 
f 61/16/32 12/15/31 62/18/31 
f 35/11/22 63/12/33 34/10/33 
f 63/12/33 35/11/22 49/9/22 
f 15/12/10 43/13/34 57/9/34 
f 43/13/34 15/12/10 14/14/10 
f 58/18/29 13/17/35 15/15/29 
f 13/17/35 58/18/29 64/16/35 
f 47/15/20 65/16/36 55/17/36 
f 65/16/36 47/15/20 46/18/20 
f 54/9/37 33/10/38 31/11/37 
f 33/10/38 54/9/37 17/12/38 
f 28/11/39 23/12/13 20/10/13 
f 23/12/13 28/11/39 66/9/39 
f 17/9/38 11/10/7 33/11/38 
f 11/10/7 17/9/38 9/12/7 
f 67/18/40 50/17/41 68/15/40 
f 50/17/41 67/18/40 69/16/41 
f 70/16/42 63/15/43 71/18/43 
f 63/15/43 70/16/42 72/17/42 
f 38/13/44 50/12/21 36/14/21 
f 50/12/21 38/13/44 68/9/44 
f 60/17/30 73/18/45 59/16/30 
f 73/18/45 60/17/30 25/15/45 
f 69/18/41 49/17/46 50/15/41 
f 49/17/46 69/18/41 74/16/46 
f 75/16/47 72/15/42 70/18/42 
f 72/15/42 75/16/47 76/17/47 
f 57/12/34 42/13/26 55/9/26 
f 42/13/26 57/12/34 43/14/34 
f 51/16/24 23/15/48 77/18/48 
f 23/15/48 51/16/24 21/17/24 
f 64/18/35 78/17/49 13/15/35 
f 78/17/49 64/18/35 79/16/49 
f 55/15/36 56/16/28 57/17/28 
f 56/16/28 55/15/36 65/18/36 
f 74/18/46 63/17/43 49/15/46 
f 63/17/43 74/18/46 71/16/43 
f 34/11/33 72/12/50 32/10/50 
f 72/12/50 34/11/33 63/9/33 
f 77/16/48 66/15/51 80/18/51 
f 66/15/51 77/16/48 23/17/48 
f 79/18/49 68/17/40 78/15/49 
f 68/17/40 79/18/49 67/16/40 
f 9/15/12 62/16/31 12/17/31 
f 62/16/31 9/15/12 18/18/12 
f 25/17/45 52/18/23 73/16/45 
f 52/18/23 25/17/45 27/15/23 
f 80/16/51 76/15/47 75/18/47 
f 76/15/47 80/16/51 66/17/51 
f 44/15/32 48/16/19 45/17/19 
f 48/16/19 44/15/32 61/18/32 
f 30/43/14 66/44/14 28/45/14 
f 30/46/52 72/47/53 76/48/52 
f 66/48/54 30/49/52 76/47/52 
f 72/50/22 30/51/22 32/52/22 
f 29/49/55 60/47/55 54/48/56 
f 25/47/57 60/48/55 29/46/55 
f 25/50/14 29/51/14 26/52/14 
f 54/44/7 31/45/7 29/43/7 
f 45/47/58 47/48/59 39/49/58 
f 44/47/60 45/48/58 39/46/58 
f 44/50/7 39/51/7 37/52/7 
f 40/53/34 39/54/34 47/44/34 
f 68/44/22 38/45/22 41/43/22 
f 78/48/61 41/46/61 13/47/62 
f 68/48/63 41/49/61 78/47/61 
f 41/55/34 16/56/34 13/50/34 
usemtl towerRound_base_stone
f 81/57/64 82/58/64 83/59/64 
f 82/58/64 81/57/64 84/60/64 
f 82/58/64 84/60/64 85/61/64 
f 85/61/64 84/60/64 86/62/64 
f 85/61/64 86/62/64 87/63/64 
f 87/63/64 86/62/64 88/64/64 
f 87/63/64 88/64/64 89/65/64 
f 89/65/64 88/64/64 90/66/64 
f 89/65/64 90/66/64 91/67/64 
f 91/67/64 90/66/64 92/68/64 
f 91/67/64 92/68/64 93/69/64 
f 93/69/64 92/68/64 94/70/64 
f 93/69/64 94/70/64 95/71/64 
f 95/71/64 94/70/64 96/72/64 
f 96/72/64 94/70/64 97/73/64 
f 96/72/64 97/73/64 98/74/64 
f 96/72/64 98/74/64 99/75/64 
f 99/75/64 98/74/64 100/76/64 
f 99/75/64 100/76/64 101/77/64 
f 101/77/64 100/76/64 102/78/64 
f 101/77/64 102/78/64 103/79/64 
f 103/79/64 102/78/64 104/80/64 
usemtl towerRound_base_stoneDark
f 105/81/64 106/82/64 107/83/64 
f 106/82/64 105/81/64 108/84/64 
f 106/82/64 108/84/64 109/85/64 
f 109/85/64 108/84/64 110/86/64 
f 109/85/64 110/86/64 111/59/64 
f 111/59/64 110/86/64 112/57/64 
f 112/57/64 110/86/64 113/60/64 
f 113/60/64 110/86/64 114/87/64 
f 113/60/64 114/87/64 115/62/64 
f 115/62/64 114/87/64 116/64/64 
f 116/64/64 114/87/64 117/88/64 
f 116/64/64 117/88/64 118/66/64 
f 118/66/64 117/88/64 119/89/64 
f 118/66/64 119/89/64 120/68/64 
f 120/68/64 119/89/64 121/70/64 
f 121/70/64 119/89/64 122/90/64 
f 121/70/64 122/90/64 123/73/64 
f 123/73/64 122/90/64 124/91/64 
f 123/73/64 124/91/64 125/74/64 
f 125/74/64 124/91/64 126/92/64 
f 125/74/64 126/92/64 127/76/64 
f 127/76/64 126/92/64 128/78/64 
f 128/78/64 126/92/64 129/93/64 
f 128/78/64 129/93/64 130/80/64 
f 131/94/64 130/80/64 129/93/64 
f 131/94/64 132/79/64 130/80/64 
f 133/95/64 132/79/64 131/94/64 
f 133/95/64 134/77/64 132/79/64 
f 133/95/64 135/75/64 134/77/64 
f 136/96/64 135/75/64 133/95/64 
f 136/96/64 137/72/64 135/75/64 
f 138/97/64 137/72/64 136/96/64 
f 138/97/64 139/71/64 137/72/64 
f 140/98/64 139/71/64 138/97/64 
f 140/98/64 141/69/64 139/71/64 
f 140/98/64 142/67/64 141/69/64 
f 143/99/64 142/67/64 140/98/64 
f 143/99/64 144/65/64 142/67/64 
f 145/100/64 144/65/64 143/99/64 
f 145/100/64 146/63/64 144/65/64 
f 145/100/64 147/61/64 146/63/64 
f 148/101/64 147/61/64 145/100/64 
f 148/101/64 149/58/64 147/61/64 
f 148/101/64 111/59/64 149/58/64 
f 111/59/64 148/101/64 109/85/64 
f 131/94/64 129/93/64 150/102/64 
f 131/94/64 150/102/64 151/103/64 
f 151/103/64 150/102/64 152/104/64 
f 75/105/65 131/106/66 80/107/66 
f 131/106/66 75/105/65 133/108/65 
f 70/105/67 133/106/65 75/107/65 
f 133/106/65 70/105/67 136/108/67 
f 71/105/33 136/106/67 70/107/67 
f 136/106/67 71/105/33 138/108/33 
f 74/105/22 138/106/33 71/107/33 
f 138/106/33 74/105/22 140/108/22 
f 69/105/21 140/106/22 74/107/22 
f 140/106/22 69/105/21 143/108/21 
f 67/105/68 143/106/21 69/107/21 
f 143/106/21 67/105/68 145/108/68 
f 79/105/69 145/106/68 67/107/68 
f 145/106/68 79/105/69 148/108/69 
f 148/106/69 64/105/70 109/108/70 
f 64/105/70 148/106/69 79/107/69 
f 109/106/70 58/105/10 106/108/10 
f 58/105/10 109/106/70 64/107/70 
f 106/106/10 56/105/34 107/108/34 
f 56/105/34 106/106/10 58/107/10 
f 107/106/34 65/105/26 105/108/26 
f 65/105/26 107/106/34 56/107/34 
f 105/106/26 46/105/71 108/108/71 
f 46/105/71 105/106/26 65/107/26 
f 108/106/71 48/105/72 110/108/72 
f 48/105/72 108/106/71 46/107/71 
f 114/108/73 48/107/72 61/105/73 
f 48/107/72 114/108/73 110/106/72 
f 117/108/8 61/107/73 62/105/8 
f 61/107/73 117/108/8 114/106/73 
f 119/108/7 62/107/8 18/105/7 
f 62/107/8 119/108/7 117/106/8 
f 122/108/38 18/107/7 19/105/38 
f 18/107/7 122/108/38 119/106/7 
f 124/108/74 19/107/38 53/105/74 
f 19/107/38 124/108/74 122/106/38 
f 126/108/75 53/107/74 59/105/75 
f 53/107/74 126/108/75 124/106/74 
f 73/105/76 126/106/75 59/107/75 
f 126/106/75 73/105/76 129/108/76 
f 52/105/15 129/106/76 73/107/76 
f 129/106/76 52/105/15 150/108/15 
f 51/105/14 150/106/15 52/107/15 
f 150/106/15 51/105/14 152/108/14 
f 77/105/13 152/106/14 51/107/14 
f 152/106/14 77/105/13 151/108/13 
f 80/105/66 151/106/13 77/107/13 
f 151/106/13 80/105/66 131/108/66 
f 137/109/73 95/110/8 96/111/73 
f 95/110/8 137/109/73 139/112/8 
f 135/109/72 96/110/73 99/111/72 
f 96/110/73 135/109/72 137/112/73 
f 135/112/72 101/111/71 134/109/71 
f 101/111/71 135/112/72 99/110/72 
f 134/112/71 103/111/26 132/109/26 
f 103/111/26 134/112/71 101/110/71 
f 132/112/26 104/111/34 130/109/34 
f 104/111/34 132/112/26 103/110/26 
f 130/112/34 102/111/10 128/109/10 
f 102/111/10 130/112/34 104/110/34 
f 128/112/10 100/111/70 127/109/70 
f 100/111/70 128/112/10 102/110/10 
f 127/112/70 98/111/69 125/109/69 
f 98/111/69 127/112/70 100/110/70 
f 97/111/68 125/112/69 98/110/69 
f 125/112/69 97/111/68 123/109/68 
f 94/111/21 123/112/68 97/110/68 
f 123/112/68 94/111/21 121/109/21 
f 92/111/22 121/112/21 94/110/21 
f 121/112/21 92/111/22 120/109/22 
f 90/111/33 120/112/22 92/110/22 
f 120/112/22 90/111/33 118/109/33 
f 88/111/67 118/112/33 90/110/33 
f 118/112/33 88/111/67 116/109/67 
f 86/111/65 116/112/67 88/110/67 
f 116/112/67 86/111/65 115/109/65 
f 84/111/66 115/112/65 86/110/65 
f 115/112/65 84/111/66 113/109/66 
f 81/111/13 113/112/66 84/110/66 
f 113/112/66 81/111/13 112/109/13 
f 83/111/14 112/112/13 81/110/13 
f 112/112/13 83/111/14 111/109/14 
f 82/111/15 111/112/14 83/110/14 
f 111/112/14 82/111/15 149/109/15 
f 85/111/76 149/112/15 82/110/15 
f 149/112/15 85/111/76 147/109/76 
f 87/111/75 147/112/76 85/110/76 
f 147/112/76 87/111/75 146/109/75 
f 144/109/74 87/110/75 89/111/74 
f 87/110/75 144/109/74 146/112/75 
f 142/109/38 89/110/74 91/111/38 
f 89/110/74 142/109/38 144/112/74 
f 141/109/7 91/110/38 93/111/7 
f 91/110/38 141/109/7 142/112/38 
f 139/109/8 93/110/7 95/111/8 
f 93/110/7 139/109/8 141/112/7 
# 284 faces

