# 3ds Max Wavefront OBJ Exporter v0.97b - (c)2007 guruware
# ÆÄÀÏ »ý¼ºµÊ: 15.11.2020 15:41:52

mtllib tile_tower_squareB.mtl

#
# object tile
#

v  -0.5000 0.0000 0.5000
v  0.5000 0.0000 -0.5000
v  0.5000 0.0000 0.5000
v  -0.5000 0.0000 -0.5000
v  0.5000 0.1000 0.5000
v  0.5000 0.1000 -0.5000
v  -0.5000 0.1000 0.5000
v  -0.5000 0.1000 -0.5000
v  -0.5000 0.2000 -0.5000
v  0.5000 0.2000 0.5000
v  0.5000 0.2000 -0.5000
v  -0.5000 0.2000 0.5000
# 12 vertices

vn 0.0000 -1.0000 -0.0000
vn 1.0000 0.0000 -0.0000
vn 0.0000 0.0000 1.0000
vn -1.0000 0.0000 -0.0000
vn 0.0000 0.0000 -1.0000
vn 0.0000 1.0000 -0.0000
# 6 vertex normals

vt -19.6850 19.6850 0.0000
vt 19.6850 -19.6850 0.0000
vt 19.6850 19.6850 0.0000
vt -19.6850 -19.6850 0.0000
vt -19.6850 3.9370 0.0000
vt 19.6850 0.0000 0.0000
vt 19.6850 3.9370 0.0000
vt -19.6850 0.0000 0.0000
vt -19.6850 7.8740 0.0000
vt 19.6850 7.8740 0.0000
# 10 texture coords

o tile
g tile
usemtl tile_tower_squareB_tile_dirt
s 1
f 1/1/1 2/2/1 3/3/1 
f 2/2/1 1/1/1 4/4/1 
f 5/5/2 2/6/2 6/7/2 
f 2/6/2 5/5/2 3/8/2 
f 5/7/3 1/8/3 3/6/3 
f 1/8/3 5/7/3 7/5/3 
f 1/6/4 8/5/4 4/8/4 
f 8/5/4 1/6/4 7/7/4 
f 8/7/5 2/8/5 4/6/5 
f 2/8/5 8/7/5 6/5/5 
usemtl tile_tower_squareB_tile_foliage
f 9/2/6 10/1/6 11/4/6 
f 10/1/6 9/2/6 12/3/6 
f 10/9/2 6/7/2 11/10/2 
f 6/7/2 10/9/2 5/5/2 
f 9/10/5 6/5/5 8/7/5 
f 6/5/5 9/10/5 11/9/5 
f 7/7/4 9/9/4 8/5/4 
f 9/9/4 7/7/4 12/10/4 
f 10/10/3 7/5/3 5/7/3 
f 7/5/3 10/10/3 12/9/3 
# 20 faces

#
# object towerSquare_sampleB
#

v  0.4350 0.5200 0.4350
v  0.5000 0.4000 0.2450
v  0.4350 0.5200 0.2450
v  0.5000 0.4000 0.5000
v  0.5000 0.4000 -0.1900
v  0.5000 0.2000 -0.5000
v  0.5000 0.4000 -0.5000
v  0.5000 0.2000 -0.1900
v  -0.2175 0.5200 0.4350
v  -0.5000 0.4000 0.5000
v  -0.2175 0.4000 0.5000
v  -0.4350 0.5200 0.4350
v  -0.5000 0.2000 0.5000
v  -0.5000 0.4000 0.2450
v  -0.5000 0.2000 0.2450
v  -0.5000 0.4000 -0.1900
v  -0.4350 0.5200 -0.4350
v  -0.5000 0.4000 -0.5000
v  -0.4350 0.5200 -0.1900
v  -0.5000 0.2000 -0.1900
v  -0.5000 0.2000 -0.5000
v  0.2175 0.2000 0.5000
v  0.5000 0.2000 0.5000
v  0.2175 0.4000 0.5000
v  -0.2175 0.4000 -0.5000
v  -0.2175 0.5200 -0.4350
v  0.5000 0.2000 0.2450
v  -0.2175 0.7000 0.4350
v  -0.4350 0.7000 0.4350
v  -0.2175 0.2000 0.5000
v  0.4350 0.7000 0.4350
v  0.4350 0.7000 0.2450
v  -0.4350 0.7000 -0.4350
v  -0.4350 0.7000 -0.1900
v  -0.2175 0.2000 -0.5000
v  -0.4350 0.5200 0.2450
v  0.2175 0.7000 -0.4350
v  0.4350 0.5200 -0.4350
v  0.2175 0.5200 -0.4350
v  0.4350 0.7000 -0.4350
v  0.2175 0.2000 -0.5000
v  0.2175 0.4000 -0.5000
v  0.2175 0.5200 0.4350
v  -0.2175 0.2000 -0.4350
v  -0.2175 0.3600 -0.4350
v  0.2175 0.3600 0.4350
v  0.2175 0.2000 0.4350
v  0.4350 0.7000 -0.1900
v  0.4350 0.5200 -0.1900
v  -0.4350 0.2000 0.2450
v  -0.4350 0.3600 0.2450
v  0.2175 0.2000 -0.4350
v  0.2175 0.3600 -0.4350
v  0.4350 0.2000 -0.1900
v  0.4350 0.3600 -0.1900
v  0.4350 0.2000 0.2450
v  -0.2175 0.2000 0.4350
v  -0.4350 0.2000 -0.1900
v  0.4350 0.3600 0.2450
v  0.2175 0.7000 0.4350
v  -0.4350 0.7000 0.2450
v  -0.4350 0.3600 -0.1900
v  -0.2175 0.3600 0.4350
v  -0.2175 0.7000 -0.4350
v  -0.5000 1.2000 0.2500
v  -0.3996 1.1000 0.2500
v  -0.5000 1.1000 0.2500
v  -0.3996 1.2000 0.2500
v  -0.3996 1.2000 -0.2500
v  -0.5000 1.1000 -0.2500
v  -0.3996 1.1000 -0.2500
v  -0.5000 1.2000 -0.2500
v  -0.2500 1.2000 -0.3996
v  -0.2500 1.1000 -0.5000
v  -0.2500 1.2000 -0.5000
v  -0.2500 1.1000 -0.3996
v  0.3996 1.0300 0.3996
v  0.3996 1.1000 0.2500
v  0.3996 1.0300 0.2500
v  0.3996 1.2000 0.2500
v  0.3996 1.2000 0.3996
v  0.4350 0.8800 0.4350
v  -0.4350 0.7900 0.4350
v  0.4350 0.7900 0.4350
v  -0.4350 0.8800 0.4350
v  0.2500 1.1000 -0.3996
v  0.2500 1.2000 -0.5000
v  0.2500 1.1000 -0.5000
v  0.2500 1.2000 -0.3996
v  -0.3996 1.0300 -0.3996
v  -0.3996 1.2000 -0.3996
v  -0.3996 1.0300 -0.2500
v  -0.4350 0.8800 -0.4350
v  -0.4350 0.7900 -0.4350
v  0.3996 1.2000 -0.3996
v  0.2500 1.0300 -0.3996
v  0.3996 1.0300 -0.3996
v  -0.3996 1.2000 0.3996
v  -0.2500 1.0300 0.3996
v  -0.3996 1.0300 0.3996
v  -0.2500 1.1000 0.3996
v  -0.2500 1.2000 0.3996
v  -0.5000 1.2000 0.5000
v  -0.2500 1.2000 0.5000
v  0.5000 1.2000 -0.2500
v  0.5000 1.0000 -0.5000
v  0.5000 1.2000 -0.5000
v  0.5000 1.0000 -0.2500
v  0.5000 1.1000 -0.2500
v  0.5000 1.0000 0.5000
v  -0.5000 1.0000 0.5000
v  0.2500 1.0000 0.5000
v  -0.2500 1.0000 0.5000
v  0.5000 1.2000 0.5000
v  0.2500 1.1000 0.5000
v  0.2500 1.2000 0.5000
v  0.4350 0.8800 -0.4350
v  0.5000 1.0000 0.2500
v  -0.5000 1.0000 -0.2500
v  -0.5000 1.0000 -0.5000
v  -0.5000 1.0000 0.2500
v  0.4350 0.7900 -0.4350
v  0.3996 1.2000 -0.2500
v  0.3996 1.1000 -0.2500
v  0.5000 1.1000 0.2500
v  0.5000 1.2000 0.2500
v  -0.2500 1.0000 -0.5000
v  0.2500 1.0000 -0.5000
v  -0.5000 1.2000 -0.5000
v  0.2500 1.2000 0.3996
v  -0.2500 1.1000 0.5000
v  0.2500 1.1000 0.3996
v  -0.3291 1.2500 -0.3291
v  0.2992 1.2000 -0.2992
v  -0.2992 1.2000 -0.2992
v  0.3291 1.2500 -0.3291
v  -0.3996 1.0300 0.2500
v  0.3996 1.0300 -0.2500
v  0.3291 1.2500 0.3291
v  0.2992 1.2000 0.2992
v  0.2500 1.0300 0.3996
v  -0.2992 1.2000 0.2992
v  -0.3291 1.2500 0.3291
v  -0.2500 1.0300 -0.3996
v  0.3291 1.3000 0.3291
v  -0.3291 1.3000 0.3291
v  0.3291 1.3000 -0.3291
v  -0.3291 1.3000 -0.3291
v  -0.0395 1.8600 -0.0395
v  0.0395 1.8600 0.0395
v  0.0395 1.8600 -0.0395
v  -0.0395 1.8600 0.0395
v  0.2992 1.0300 -0.2992
v  -0.2992 1.0300 -0.2992
v  -0.2992 1.0300 0.2992
v  0.2992 1.0300 0.2992
# 156 vertices

vn 0.8793 0.4763 -0.0000
vn 1.0000 0.0000 -0.0000
vn 0.0000 0.4763 0.8793
vn -1.0000 0.0000 -0.0000
vn -0.8793 0.4763 -0.0000
vn 0.0000 0.0000 1.0000
vn 0.0000 0.4763 -0.8793
vn 0.0000 0.0000 -1.0000
vn 0.0000 -1.0000 -0.0000
vn 0.0000 1.0000 -0.0000
vn 0.0000 -0.4763 0.8793
vn 0.8793 -0.4763 -0.0000
vn -0.8793 -0.4763 -0.0000
vn 0.0000 -0.4763 -0.8793
vn 0.0000 -0.5135 -0.8581
vn 0.8581 -0.5135 -0.0000
vn 0.0000 -0.5135 0.8581
vn -0.8581 -0.5135 -0.0000
vn 0.0000 0.4594 0.8882
vn 0.0000 0.4594 -0.8882
vn -0.8882 0.4594 -0.0000
vn 0.8882 0.4594 -0.0000
# 22 vertex normals

vt -17.1260 2.9209 0.0000
vt -9.6457 -2.4521 0.0000
vt -9.6457 2.9209 0.0000
vt -19.6850 -2.4521 0.0000
vt 7.4803 7.8740 0.0000
vt 19.6850 0.0000 0.0000
vt 19.6850 7.8740 0.0000
vt 7.4803 0.0000 0.0000
vt -8.5630 2.9209 0.0000
vt -8.5630 -2.4521 0.0000
vt 19.6850 -0.0000 0.0000
vt 9.6457 7.8740 0.0000
vt 9.6457 -0.0000 0.0000
vt -7.4803 -2.4521 0.0000
vt -7.4803 2.9209 0.0000
vt -7.4803 -0.0000 0.0000
vt -19.6850 7.8740 0.0000
vt -19.6850 -0.0000 0.0000
vt -7.4803 7.8740 0.0000
vt 8.5630 0.0000 0.0000
vt 8.5630 7.8740 0.0000
vt 17.1260 2.9209 0.0000
vt 8.5630 -2.4521 0.0000
vt 19.6850 -2.4521 0.0000
vt 8.5630 2.9209 0.0000
vt -9.6457 0.0000 0.0000
vt -9.6457 7.8740 0.0000
vt -19.6850 0.0000 0.0000
vt -8.5630 19.6850 0.0000
vt -17.1260 12.5984 0.0000
vt -8.5630 12.5984 0.0000
vt -17.1260 19.6850 0.0000
vt -8.5630 0.0000 0.0000
vt -8.5630 7.8740 0.0000
vt -9.6457 12.5984 0.0000
vt -9.6457 19.6850 0.0000
vt -7.4803 12.5984 0.0000
vt -7.4803 19.6850 0.0000
vt 9.6457 2.9209 0.0000
vt 9.6457 -2.4521 0.0000
vt 17.1260 12.5984 0.0000
vt 17.1260 0.0000 0.0000
vt 17.1260 6.2992 0.0000
vt 7.4803 19.6850 0.0000
vt 17.1260 19.6850 0.0000
vt 7.4803 12.5984 0.0000
vt -17.1260 0.0000 0.0000
vt -17.1260 6.2992 0.0000
vt 8.5630 19.6850 0.0000
vt 19.6850 9.6457 0.0000
vt 19.6850 19.6850 0.0000
vt 17.1260 9.6457 0.0000
vt 17.1260 -7.4803 0.0000
vt 8.5630 -19.6850 0.0000
vt 19.6850 -19.6850 0.0000
vt 19.6850 -7.4803 0.0000
vt 8.5630 17.1260 0.0000
vt 8.5630 -17.1260 0.0000
vt -8.5630 17.1260 0.0000
vt -8.5630 -17.1260 0.0000
vt -19.6850 19.6850 0.0000
vt -8.5630 -19.6850 0.0000
vt -17.1260 9.6457 0.0000
vt -19.6850 9.6457 0.0000
vt -17.1260 -7.4803 0.0000
vt -19.6850 -19.6850 0.0000
vt -19.6850 -7.4803 0.0000
vt 8.5630 12.5984 0.0000
vt 9.6457 19.6850 0.0000
vt 9.6457 12.5984 0.0000
vt 7.4803 -2.4521 0.0000
vt 7.4803 2.9209 0.0000
vt 19.6850 39.3701 0.0000
vt 15.7305 35.4331 0.0000
vt 19.6850 35.4331 0.0000
vt 15.7305 39.3701 0.0000
vt -15.7305 39.3701 0.0000
vt -19.6850 35.4331 0.0000
vt -15.7305 35.4331 0.0000
vt -19.6850 39.3701 0.0000
vt 15.7305 32.6772 0.0000
vt 9.8425 35.4331 0.0000
vt 9.8425 32.6772 0.0000
vt 9.8425 39.3701 0.0000
vt 17.1260 26.7717 0.0000
vt -17.1260 23.2283 0.0000
vt 17.1260 23.2283 0.0000
vt -17.1260 26.7717 0.0000
vt 19.6850 9.8425 0.0000
vt 15.7305 15.7305 0.0000
vt 15.7305 9.8425 0.0000
vt 9.8425 19.6850 0.0000
vt 9.8425 15.7305 0.0000
vt 19.6850 31.4961 0.0000
vt 9.8425 31.4961 0.0000
vt 19.6850 37.0699 0.0000
vt -17.1260 31.6969 0.0000
vt 17.1260 31.6969 0.0000
vt -19.6850 37.0699 0.0000
vt 9.8425 37.0699 0.0000
vt -9.8425 37.0699 0.0000
vt -15.7305 -15.7305 0.0000
vt -19.6850 -9.8425 0.0000
vt -9.8425 -19.6850 0.0000
vt -9.8425 -15.7305 0.0000
vt -15.7305 -9.8425 0.0000
vt 9.8425 -15.7305 0.0000
vt 9.8425 -19.6850 0.0000
vt 15.7305 -15.7305 0.0000
vt 15.7305 -9.8425 0.0000
vt 19.6850 -9.8425 0.0000
vt -15.7305 9.8425 0.0000
vt -19.6850 9.8425 0.0000
vt -15.7305 15.7305 0.0000
vt -9.8425 19.6850 0.0000
vt -9.8425 15.7305 0.0000
vt -9.8425 31.4961 0.0000
vt -19.6850 31.4961 0.0000
vt -9.8425 39.3701 0.0000
vt -9.8425 35.4331 0.0000
vt 12.9580 42.1261 0.0000
vt -11.7800 39.8321 0.0000
vt 11.7800 39.8321 0.0000
vt -12.9580 42.1261 0.0000
vt -9.8425 32.6772 0.0000
vt -15.7305 32.6772 0.0000
vt 12.9580 43.3071 0.0000
vt -12.9580 41.3386 0.0000
vt 12.9580 41.3386 0.0000
vt -12.9580 43.3071 0.0000
vt 1.5550 -1.5550 0.0000
vt -1.5550 1.5550 0.0000
vt -1.5550 -1.5550 0.0000
vt 1.5550 1.5550 0.0000
vt 1.5550 57.3353 0.0000
vt -12.9580 32.5137 0.0000
vt 12.9580 32.5137 0.0000
vt -1.5550 57.3353 0.0000
vt 8.5630 6.2992 0.0000
vt -8.5630 6.2992 0.0000
vt 9.6457 0.0000 0.0000
vt -7.4803 6.2992 0.0000
vt -7.4803 0.0000 0.0000
vt 9.6457 6.2992 0.0000
vt -9.6457 6.2992 0.0000
vt 7.4803 6.2992 0.0000
vt -11.7800 -11.7800 0.0000
vt 11.7800 -11.7800 0.0000
vt 11.7800 11.7800 0.0000
vt -11.7800 11.7800 0.0000
vt -11.7800 39.3701 0.0000
vt 11.7800 32.6772 0.0000
vt 11.7800 39.3701 0.0000
vt -11.7800 32.6772 0.0000
# 154 texture coords

o towerSquare_sampleB
g towerSquare_sampleB
usemtl tile_tower_squareB_towerSquare_sampleB_purple
s 1
f 13/11/7 14/12/7 15/13/7 
f 14/12/7 13/11/7 16/14/7 
f 17/15/8 18/16/8 19/17/8 
f 18/16/8 17/15/8 20/18/8 
f 21/19/9 22/14/9 23/20/9 
f 22/14/9 21/19/9 24/11/9 
f 25/21/10 26/22/10 27/23/10 
f 26/22/10 25/21/10 22/17/10 
f 28/24/11 29/11/11 30/14/11 
f 29/11/11 28/24/11 31/25/11 
f 32/26/10 30/27/10 33/28/10 
f 30/27/10 32/26/10 28/29/10 
f 16/17/12 34/30/12 35/16/12 
f 34/30/12 16/17/12 36/31/12 
f 29/32/13 37/33/13 30/34/13 
f 37/33/13 29/32/13 38/35/13 
f 16/27/8 39/36/8 14/37/8 
f 39/36/8 16/27/8 35/38/8 
f 40/39/12 24/40/12 21/41/12 
f 24/40/12 40/39/12 41/42/12 
f 42/43/12 22/27/12 25/38/12 
f 22/27/12 42/43/12 23/44/12 
f 43/42/8 15/45/8 44/46/8 
f 15/45/8 43/42/8 13/40/8 
f 31/47/10 45/42/10 29/40/10 
f 45/42/10 31/47/10 46/48/10 
f 30/17/14 47/30/14 33/16/14 
f 47/30/14 30/17/14 37/31/14 
f 22/34/11 48/49/11 26/50/11 
f 48/49/11 22/34/11 24/32/11 
f 49/39/14 50/40/14 51/41/14 
f 50/40/14 49/39/14 52/42/14 
f 53/43/14 19/27/14 18/38/14 
f 19/27/14 53/43/14 54/44/14 
f 13/32/9 36/33/9 16/34/9 
f 36/33/9 13/32/9 55/35/9 
f 38/51/8 47/16/8 37/17/8 
f 47/16/8 38/51/8 56/52/8 
f 56/52/8 38/51/8 57/53/8 
f 34/16/10 58/53/10 59/52/10 
f 58/53/10 34/16/10 55/51/10 
f 55/51/10 34/16/10 36/17/10 
f 60/54/8 50/51/8 52/55/8 
f 50/51/8 60/54/8 61/56/8 
f 26/17/14 62/52/14 27/16/14 
f 62/52/14 26/17/14 63/53/14 
f 63/53/14 26/17/14 48/51/14 
f 64/57/10 54/27/10 53/38/10 
f 54/27/10 64/57/10 51/40/10 
f 51/40/10 64/57/10 65/58/10 
f 17/17/12 66/52/12 20/16/12 
f 66/52/12 17/17/12 67/53/12 
f 67/53/12 17/17/12 61/51/12 
f 34/59/15 39/60/15 35/61/15 
f 39/60/15 34/59/15 68/62/15 
f 68/62/15 34/59/15 66/63/15 
f 53/64/15 66/63/15 34/59/15 
f 18/65/15 66/63/15 53/64/15 
f 66/63/15 18/65/15 20/66/15 
f 53/64/15 34/59/15 59/67/15 
f 53/64/15 59/67/15 64/68/15 
f 69/69/15 64/68/15 59/67/15 
f 64/68/15 69/69/15 56/70/15 
f 69/69/15 25/71/15 56/70/15 
f 25/71/15 69/69/15 42/39/15 
f 56/70/15 25/71/15 47/72/15 
f 47/72/15 25/71/15 62/73/15 
f 62/73/15 25/71/15 27/74/15 
f 70/75/15 47/72/15 62/73/15 
f 47/72/15 70/75/15 33/76/15 
f 33/76/15 70/75/15 32/77/15 
f 51/19/13 19/14/13 54/20/13 
f 19/14/13 51/19/13 50/11/13 
f 71/58/14 39/38/14 68/57/14 
f 39/38/14 71/58/14 14/27/14 
f 14/27/14 71/58/14 15/40/14 
f 43/55/12 55/78/12 13/51/12 
f 55/78/12 43/55/12 72/59/12 
f 24/51/10 73/79/10 48/80/10 
f 73/79/10 24/51/10 41/55/10 
f 74/58/12 32/38/12 70/57/12 
f 32/38/12 74/58/12 28/27/12 
f 28/27/12 74/58/12 31/40/12 
f 23/27/8 75/58/8 21/40/8 
f 75/58/8 23/27/8 69/57/8 
f 69/57/8 23/27/8 42/38/8 
f 50/32/7 17/81/7 19/34/7 
f 17/81/7 50/32/7 61/82/7 
f 45/55/14 38/78/14 29/51/14 
f 38/78/14 45/55/14 76/59/14 
f 77/83/14 78/84/14 79/85/14 
f 78/84/14 77/83/14 80/86/14 
f 81/87/12 82/88/12 83/89/12 
f 82/88/12 81/87/12 84/90/12 
f 85/86/8 86/85/8 87/83/8 
f 86/85/8 85/86/8 88/84/8 
f 89/91/10 90/92/10 91/93/10 
f 90/92/10 89/91/10 92/94/10 
f 92/94/10 89/91/10 93/86/10 
f 94/95/12 95/96/12 96/97/12 
f 95/96/12 94/95/12 97/98/12 
f 98/89/10 99/90/10 100/88/10 
f 99/90/10 98/89/10 101/87/10 
f 81/94/8 102/91/8 103/86/8 
f 102/91/8 81/94/8 104/93/8 
f 104/93/8 81/94/8 83/92/8 
f 95/97/10 105/98/10 106/96/10 
f 105/98/10 95/97/10 97/95/10 
f 107/86/12 108/93/12 109/91/12 
f 108/93/12 107/86/12 98/92/12 
f 98/92/12 107/86/12 101/94/12 
f 110/86/14 111/93/14 112/91/14 
f 111/93/14 110/86/14 113/92/14 
f 113/92/14 110/86/14 114/94/14 
f 77/99/16 110/100/16 80/101/16 
f 115/61/16 110/100/16 77/99/16 
f 116/102/16 110/100/16 115/61/16 
f 110/100/16 116/102/16 114/103/16 
f 117/94/8 118/104/8 119/83/8 
f 118/104/8 117/94/8 120/105/8 
f 120/105/8 117/94/8 121/92/8 
f 122/106/17 97/107/17 94/108/17 
f 97/107/17 122/106/17 123/109/17 
f 123/109/17 122/106/17 124/110/17 
f 123/109/17 124/110/17 125/111/17 
f 126/83/12 124/105/12 122/104/12 
f 124/105/12 126/83/12 127/92/12 
f 127/92/12 126/83/12 128/94/12 
f 120/110/18 129/108/18 118/106/18 
f 129/108/18 120/110/18 94/107/18 
f 94/107/18 120/110/18 130/111/18 
f 94/107/18 130/111/18 122/109/18 
f 105/107/19 131/111/19 132/109/19 
f 131/111/19 105/107/19 97/108/19 
f 131/111/19 97/108/19 133/110/19 
f 133/110/19 97/108/19 123/106/19 
f 105/95/14 134/96/14 106/97/14 
f 134/96/14 105/95/14 129/98/14 
f 119/76/16 107/112/16 117/113/16 
f 107/112/16 119/76/16 99/114/16 
f 107/112/16 99/114/16 101/115/16 
f 135/116/16 117/113/16 107/112/16 
f 117/83/12 136/84/12 121/85/12 
f 136/84/12 117/83/12 135/86/12 
f 92/87/14 137/88/14 90/89/14 
f 137/88/14 92/87/14 138/90/14 
f 132/106/20 129/107/20 105/108/20 
f 129/107/20 132/106/20 118/109/20 
f 118/109/20 132/106/20 139/110/20 
f 118/109/20 139/110/20 140/111/20 
f 94/98/8 134/97/8 129/95/8 
f 134/97/8 94/98/8 96/96/8 
f 123/104/10 79/92/10 133/105/10 
f 79/92/10 123/104/10 77/94/10 
f 77/94/10 123/104/10 115/83/10 
f 141/83/14 139/105/14 132/104/14 
f 139/105/14 141/83/14 86/92/14 
f 86/92/14 141/83/14 87/94/14 
f 141/65/16 85/117/16 87/118/16 
f 85/117/16 141/65/16 103/119/16 
f 103/119/16 141/65/16 81/120/16 
f 81/120/16 141/65/16 84/121/16 
f 92/122/16 126/71/16 138/123/16 
f 126/71/16 92/122/16 93/124/16 
f 126/71/16 93/124/16 128/125/16 
f 128/125/16 93/124/16 142/126/16 
f 116/90/8 113/89/8 114/87/8 
f 113/89/8 116/90/8 143/88/8 
f 127/85/10 142/86/10 144/84/10 
f 142/86/10 127/85/10 128/83/10 
f 131/127/10 141/90/10 132/128/10 
f 141/90/10 131/127/10 84/129/10 
f 84/129/10 131/127/10 82/130/10 
f 145/131/21 146/132/21 147/133/21 
f 146/132/21 145/131/21 148/134/21 
f 143/130/12 123/128/12 125/127/12 
f 123/128/12 143/130/12 115/90/12 
f 115/90/12 143/130/12 116/129/12 
f 110/87/8 78/130/8 80/129/8 
f 78/130/8 110/87/8 149/135/8 
f 149/135/8 110/87/8 112/136/8 
f 150/135/10 107/87/10 109/136/10 
f 107/87/10 150/135/10 135/129/10 
f 135/129/10 150/135/10 136/130/10 
f 151/134/22 146/133/22 148/131/22 
f 146/133/22 151/134/22 152/132/22 
f 100/130/14 118/128/14 140/127/14 
f 118/128/14 100/130/14 119/90/14 
f 119/90/14 100/130/14 99/129/14 
f 144/130/14 89/136/14 153/135/14 
f 89/136/14 144/130/14 93/87/14 
f 93/87/14 144/130/14 142/129/14 
f 151/131/23 154/132/23 152/133/23 
f 154/132/23 151/131/23 155/134/23 
f 88/130/12 102/136/12 156/135/12 
f 102/136/12 88/130/12 103/87/12 
f 103/87/12 88/130/12 85/129/12 
f 147/132/24 155/131/24 145/134/24 
f 155/131/24 147/132/24 154/133/24 
f 157/137/12 155/138/12 151/139/12 
f 155/138/12 157/137/12 158/140/12 
f 157/140/8 148/139/8 159/137/8 
f 148/139/8 157/140/8 151/138/8 
f 160/137/14 148/138/14 145/139/14 
f 148/138/14 160/137/14 159/140/14 
f 155/139/10 160/140/10 145/138/10 
f 160/140/10 155/139/10 158/137/10 
f 161/141/16 162/142/16 163/143/16 
f 162/142/16 161/141/16 164/144/16 
f 126/90/8 137/130/8 138/129/8 
f 137/130/8 126/90/8 130/127/8 
f 130/127/8 126/90/8 122/128/8 
f 162/145/25 158/146/25 157/147/25 
f 158/146/25 162/145/25 164/148/25 
f 161/145/26 159/146/26 160/147/26 
f 159/146/26 161/145/26 163/148/26 
f 158/147/27 161/148/27 160/146/27 
f 161/148/27 158/147/27 164/145/27 
f 163/145/28 157/146/28 159/147/28 
f 157/146/28 163/145/28 162/148/28 
usemtl tile_tower_squareB_towerSquare_sampleB_stoneDark
f 58/149/12 69/43/12 59/30/12 
f 69/43/12 58/149/12 75/150/12 
f 62/151/10 74/152/10 70/153/10 
f 74/152/10 62/151/10 63/154/10 
f 71/155/8 66/18/8 67/156/8 
f 66/18/8 71/155/8 68/36/8 
f 57/149/14 64/43/14 56/30/14 
f 64/43/14 57/149/14 65/150/14 
f 108/115/16 150/116/16 109/112/16 
f 150/116/16 108/115/16 165/157/16 
f 150/116/16 165/157/16 91/122/16 
f 91/122/16 165/157/16 89/124/16 
f 165/157/16 108/115/16 166/158/16 
f 166/158/16 108/115/16 156/117/16 
f 166/158/16 156/117/16 102/119/16 
f 166/158/16 102/119/16 167/159/16 
f 167/159/16 102/119/16 104/120/16 
f 168/160/16 89/124/16 165/157/16 
f 89/124/16 168/160/16 153/126/16 
f 153/126/16 168/160/16 167/159/16 
f 153/126/16 167/159/16 111/103/16 
f 111/103/16 167/159/16 112/100/16 
f 112/100/16 167/159/16 149/101/16 
f 149/101/16 167/159/16 104/120/16 
usemtl tile_tower_squareB_towerSquare_sampleB_stone
f 96/97/12 72/59/12 43/55/12 
f 72/59/12 96/97/12 40/39/12 
f 40/39/12 96/97/12 41/42/12 
f 41/42/12 96/97/12 95/96/12 
f 21/41/12 72/59/12 40/39/12 
f 21/41/12 55/78/12 72/59/12 
f 75/150/12 55/78/12 21/41/12 
f 55/78/12 75/150/12 58/149/12 
f 63/154/10 31/47/10 74/152/10 
f 31/47/10 63/154/10 46/48/10 
f 73/79/10 46/48/10 63/154/10 
f 95/97/10 46/48/10 73/79/10 
f 106/96/10 46/48/10 95/97/10 
f 46/48/10 106/96/10 45/42/10 
f 73/79/10 63/154/10 48/80/10 
f 95/97/10 73/79/10 41/55/10 
f 96/96/8 52/55/8 134/97/8 
f 52/55/8 96/96/8 60/54/8 
f 60/54/8 96/96/8 61/56/8 
f 61/56/8 96/96/8 44/46/8 
f 61/56/8 44/46/8 67/156/8 
f 44/46/8 96/96/8 43/42/8 
f 44/46/8 71/155/8 67/156/8 
f 71/155/8 44/46/8 15/45/8 
f 152/161/8 165/162/8 146/163/8 
f 165/162/8 152/161/8 168/164/8 
f 82/121/16 78/101/16 83/120/16 
f 78/101/16 82/121/16 79/99/16 
f 113/92/14 153/135/14 111/93/14 
f 153/135/14 113/92/14 144/130/14 
f 152/163/12 167/164/12 168/162/12 
f 167/164/12 152/163/12 154/161/12 
f 113/103/16 127/125/16 144/126/16 
f 127/125/16 113/103/16 143/102/16 
f 137/130/8 120/105/8 121/92/8 
f 120/105/8 137/130/8 130/127/8 
f 78/130/8 104/93/8 83/92/8 
f 104/93/8 78/130/8 149/135/8 
f 127/92/12 125/127/12 124/105/12 
f 125/127/12 127/92/12 143/130/12 
f 106/97/14 76/59/14 45/55/14 
f 76/59/14 106/97/14 49/39/14 
f 49/39/14 106/97/14 52/42/14 
f 52/42/14 106/97/14 134/96/14 
f 51/41/14 76/59/14 49/39/14 
f 51/41/14 38/78/14 76/59/14 
f 65/150/14 38/78/14 51/41/14 
f 38/78/14 65/150/14 57/149/14 
f 133/105/10 82/130/10 131/127/10 
f 82/130/10 133/105/10 79/92/10 
f 167/162/10 147/161/10 166/164/10 
f 147/161/10 167/162/10 154/163/10 
f 136/116/16 137/123/16 121/113/16 
f 137/123/16 136/116/16 90/122/16 
f 86/118/16 98/115/16 100/114/16 
f 98/115/16 86/118/16 88/117/16 
f 91/93/10 136/130/10 150/135/10 
f 136/130/10 91/93/10 90/92/10 
f 147/163/14 165/164/14 166/162/14 
f 165/164/14 147/163/14 146/161/14 
f 98/92/12 156/135/12 108/93/12 
f 156/135/12 98/92/12 88/130/12 
f 86/92/14 140/127/14 139/105/14 
f 140/127/14 86/92/14 100/130/14 
# 308 faces

