# 3ds Max Wavefront OBJ Exporter v0.97b - (c)2007 guruware
# ÆÄÀÏ »ý¼ºµÊ: 15.11.2020 15:44:09

mtllib tile_tower_cannon.mtl

#
# object tile
#

v  -0.5000 0.0000 0.5000
v  0.5000 0.0000 -0.5000
v  0.5000 0.0000 0.5000
v  -0.5000 0.0000 -0.5000
v  0.5000 0.1000 0.5000
v  0.5000 0.1000 -0.5000
v  -0.5000 0.1000 0.5000
v  -0.5000 0.1000 -0.5000
v  -0.5000 0.2000 -0.5000
v  0.5000 0.2000 0.5000
v  0.5000 0.2000 -0.5000
v  -0.5000 0.2000 0.5000
# 12 vertices

vn 0.0000 -1.0000 -0.0000
vn 1.0000 0.0000 -0.0000
vn 0.0000 0.0000 1.0000
vn -1.0000 0.0000 -0.0000
vn 0.0000 0.0000 -1.0000
vn 0.0000 1.0000 -0.0000
# 6 vertex normals

vt -19.6850 19.6850 0.0000
vt 19.6850 -19.6850 0.0000
vt 19.6850 19.6850 0.0000
vt -19.6850 -19.6850 0.0000
vt -19.6850 3.9370 0.0000
vt 19.6850 0.0000 0.0000
vt 19.6850 3.9370 0.0000
vt -19.6850 0.0000 0.0000
vt -19.6850 7.8740 0.0000
vt 19.6850 7.8740 0.0000
# 10 texture coords

o tile
g tile
usemtl tile_tower_cannon_tile_tower_cannon_tile_dirt
s 1
f 1/1/1 2/2/1 3/3/1 
f 2/2/1 1/1/1 4/4/1 
f 5/5/2 2/6/2 6/7/2 
f 2/6/2 5/5/2 3/8/2 
f 5/7/3 1/8/3 3/6/3 
f 1/8/3 5/7/3 7/5/3 
f 1/6/4 8/5/4 4/8/4 
f 8/5/4 1/6/4 7/7/4 
f 8/7/5 2/8/5 4/6/5 
f 2/8/5 8/7/5 6/5/5 
usemtl tile_tower_cannon_tile_tower_cannon_tile_foliage
f 9/2/6 10/1/6 11/4/6 
f 10/1/6 9/2/6 12/3/6 
f 10/9/2 6/7/2 11/10/2 
f 6/7/2 10/9/2 5/5/2 
f 9/10/5 6/5/5 8/7/5 
f 6/5/5 9/10/5 11/9/5 
f 7/7/4 9/9/4 8/5/4 
f 9/9/4 7/7/4 12/10/4 
f 10/10/3 7/5/3 5/7/3 
f 7/5/3 10/10/3 12/9/3 
# 20 faces

#
# object towerSquare_sampleE001
#

v  0.5000 1.2000 0.5000
v  0.2500 1.0000 0.5000
v  0.5000 1.0000 0.5000
v  0.2500 1.1000 0.5000
v  0.2500 1.2000 0.5000
v  0.5000 1.0000 -0.2500
v  0.4350 0.8800 -0.4350
v  0.5000 1.0000 -0.5000
v  0.4350 0.8800 0.4350
v  0.5000 1.0000 0.2500
v  0.5000 1.2000 -0.2500
v  0.5000 1.2000 -0.5000
v  0.5000 1.1000 -0.2500
v  -0.4350 0.7900 0.4350
v  -0.4350 0.8800 -0.4350
v  -0.4350 0.7900 -0.4350
v  -0.4350 0.8800 0.4350
v  -0.5000 1.0000 -0.5000
v  -0.2500 1.0000 -0.5000
v  0.2500 1.0000 -0.5000
v  -0.5000 1.0000 0.5000
v  -0.2500 1.0000 0.5000
v  -0.5000 1.0000 -0.2500
v  -0.5000 1.0000 0.2500
v  -0.5000 1.2000 -0.5000
v  -0.2500 1.1000 -0.5000
v  -0.2500 1.2000 -0.5000
v  0.4350 0.7900 -0.4350
v  0.4350 0.7900 0.4350
v  -0.5000 1.2000 0.2500
v  -0.3996 1.2000 0.3996
v  -0.3996 1.2000 0.2500
v  -0.5000 1.2000 0.5000
v  -0.2500 1.2000 0.5000
v  -0.2500 1.2000 0.3996
v  0.3996 1.1000 -0.2500
v  0.3996 1.2000 -0.2500
v  0.3996 1.2000 -0.3996
v  0.2500 1.0300 -0.3996
v  0.3996 1.0300 -0.3996
v  0.2500 1.1000 -0.3996
v  0.2500 1.2000 -0.3996
v  0.2500 1.2000 -0.5000
v  -0.2500 1.0300 0.3996
v  -0.3996 1.0300 0.3996
v  -0.2500 1.1000 0.3996
v  -0.3996 1.2000 -0.2500
v  -0.3996 1.0300 -0.3996
v  -0.3996 1.2000 -0.3996
v  -0.3996 1.0300 -0.2500
v  -0.3996 1.1000 -0.2500
v  0.3996 1.2000 0.2500
v  0.5000 1.1000 0.2500
v  0.3996 1.1000 0.2500
v  0.5000 1.2000 0.2500
v  -0.2500 1.1000 0.5000
v  -0.5000 1.1000 -0.2500
v  -0.5000 1.2000 -0.2500
v  -0.2500 1.2000 -0.3996
v  -0.2500 1.1000 -0.3996
v  0.2500 1.2000 0.3996
v  0.2500 1.1000 0.3996
v  0.2500 1.1000 -0.5000
v  0.3996 1.0300 0.3996
v  0.3996 1.0300 0.2500
v  0.3996 1.2000 0.3996
v  -0.3996 1.1000 0.2500
v  -0.5000 1.1000 0.2500
v  -0.3996 1.0300 0.2500
v  0.3996 1.0300 -0.2500
v  0.2500 1.0300 0.3996
v  -0.2500 1.0300 -0.3996
v  -0.5000 0.2000 0.5000
v  -0.5000 0.4000 0.2450
v  -0.5000 0.2000 0.2450
v  -0.5000 0.4000 0.5000
v  -0.5000 0.2000 -0.1900
v  -0.5000 0.4000 -0.5000
v  -0.5000 0.2000 -0.5000
v  -0.5000 0.4000 -0.1900
v  0.4350 0.5200 0.4350
v  0.2175 0.4000 0.5000
v  0.5000 0.4000 0.5000
v  0.2175 0.5200 0.4350
v  0.2175 0.2000 0.5000
v  0.5000 0.2000 0.5000
v  -0.2175 0.2000 -0.5000
v  -0.2175 0.4000 -0.5000
v  -0.4350 0.5200 -0.1900
v  -0.4350 0.7000 -0.4350
v  -0.4350 0.5200 -0.4350
v  -0.4350 0.7000 -0.1900
v  0.5000 0.4000 -0.1900
v  0.4350 0.2000 -0.1900
v  0.5000 0.2000 -0.1900
v  0.4350 0.3600 -0.1900
v  0.4350 0.5200 -0.1900
v  -0.4350 0.3600 -0.1900
v  -0.4350 0.2000 -0.1900
v  -0.4350 0.5200 0.2450
v  -0.4350 0.5200 0.4350
v  0.5000 0.2000 -0.5000
v  0.5000 0.4000 -0.5000
v  -0.2175 0.2000 0.5000
v  -0.2175 0.4000 0.5000
v  0.4350 0.7000 0.4350
v  0.4350 0.5200 0.2450
v  0.4350 0.7000 0.2450
v  0.2175 0.2000 -0.5000
v  0.2175 0.4000 -0.5000
v  0.4350 0.5200 -0.4350
v  -0.2175 0.5200 -0.4350
v  -0.2175 0.2000 -0.4350
v  -0.2175 0.3600 -0.4350
v  0.2175 0.3600 0.4350
v  0.2175 0.2000 0.4350
v  -0.2175 0.5200 0.4350
v  -0.2175 0.7000 0.4350
v  -0.4350 0.7000 0.4350
v  0.2175 0.7000 -0.4350
v  0.2175 0.5200 -0.4350
v  0.4350 0.7000 -0.4350
v  0.2175 0.2000 -0.4350
v  0.2175 0.3600 -0.4350
v  0.4350 0.3600 0.2450
v  0.5000 0.2000 0.2450
v  0.4350 0.2000 0.2450
v  0.5000 0.4000 0.2450
v  -0.2175 0.3600 0.4350
v  -0.2175 0.2000 0.4350
v  -0.4350 0.2000 0.2450
v  -0.4350 0.3600 0.2450
v  0.2175 0.7000 0.4350
v  -0.4350 0.7000 0.2450
v  0.4350 0.7000 -0.1900
v  -0.2175 0.7000 -0.4350
v  -0.2992 1.0300 -0.2992
v  0.2992 1.0300 0.2992
v  0.2992 1.0300 -0.2992
v  -0.2992 1.0300 0.2992
# 140 vertices

vn 0.0000 0.0000 1.0000
vn 0.8793 -0.4763 -0.0000
vn 1.0000 0.0000 -0.0000
vn -1.0000 0.0000 -0.0000
vn 0.0000 -0.4763 -0.8793
vn 0.0000 -0.4763 0.8793
vn -0.8793 -0.4763 -0.0000
vn 0.0000 0.0000 -1.0000
vn 0.0000 1.0000 -0.0000
vn 0.0000 0.4763 0.8793
vn -0.8793 0.4763 -0.0000
vn 0.8793 0.4763 -0.0000
vn 0.0000 0.4763 -0.8793
vn 0.0000 -1.0000 -0.0000
# 14 vertex normals

vt 19.6850 39.3701 0.0000
vt 9.8425 31.4961 0.0000
vt 19.6850 31.4961 0.0000
vt 9.8425 35.4331 0.0000
vt 9.8425 39.3701 0.0000
vt 9.8425 37.0699 0.0000
vt 17.1260 31.6969 0.0000
vt 19.6850 37.0699 0.0000
vt -17.1260 31.6969 0.0000
vt -9.8425 37.0699 0.0000
vt -19.6850 37.0699 0.0000
vt 17.1260 23.2283 0.0000
vt -17.1260 26.7717 0.0000
vt -17.1260 23.2283 0.0000
vt 17.1260 26.7717 0.0000
vt 19.6850 9.8425 0.0000
vt 15.7305 15.7305 0.0000
vt 15.7305 9.8425 0.0000
vt 19.6850 19.6850 0.0000
vt 9.8425 19.6850 0.0000
vt 9.8425 15.7305 0.0000
vt 15.7305 35.4331 0.0000
vt 19.6850 35.4331 0.0000
vt 15.7305 39.3701 0.0000
vt 9.8425 32.6772 0.0000
vt 15.7305 32.6772 0.0000
vt -19.6850 -19.6850 0.0000
vt -15.7305 -15.7305 0.0000
vt -19.6850 -9.8425 0.0000
vt -9.8425 -19.6850 0.0000
vt -9.8425 -15.7305 0.0000
vt -15.7305 -9.8425 0.0000
vt -15.7305 39.3701 0.0000
vt -19.6850 35.4331 0.0000
vt -15.7305 35.4331 0.0000
vt -19.6850 39.3701 0.0000
vt -9.8425 35.4331 0.0000
vt -19.6850 31.4961 0.0000
vt -9.8425 31.4961 0.0000
vt -9.8425 39.3701 0.0000
vt 19.6850 -19.6850 0.0000
vt 9.8425 -15.7305 0.0000
vt 9.8425 -19.6850 0.0000
vt 15.7305 -15.7305 0.0000
vt 15.7305 -9.8425 0.0000
vt 19.6850 -9.8425 0.0000
vt -15.7305 9.8425 0.0000
vt -19.6850 19.6850 0.0000
vt -19.6850 9.8425 0.0000
vt -15.7305 15.7305 0.0000
vt -9.8425 19.6850 0.0000
vt -9.8425 15.7305 0.0000
vt -9.8425 32.6772 0.0000
vt -15.7305 32.6772 0.0000
vt 19.6850 -0.0000 0.0000
vt 9.6457 7.8740 0.0000
vt 9.6457 -0.0000 0.0000
vt 19.6850 7.8740 0.0000
vt -7.4803 -0.0000 0.0000
vt -19.6850 7.8740 0.0000
vt -19.6850 -0.0000 0.0000
vt -7.4803 7.8740 0.0000
vt 17.1260 2.9209 0.0000
vt 8.5630 -2.4521 0.0000
vt 19.6850 -2.4521 0.0000
vt 8.5630 2.9209 0.0000
vt 8.5630 0.0000 0.0000
vt 19.6850 0.0000 0.0000
vt 8.5630 7.8740 0.0000
vt -7.4803 12.5984 0.0000
vt -17.1260 19.6850 0.0000
vt -17.1260 12.5984 0.0000
vt -7.4803 19.6850 0.0000
vt -7.4803 -2.4521 0.0000
vt -17.1260 2.9209 0.0000
vt -19.6850 -2.4521 0.0000
vt -7.4803 2.9209 0.0000
vt 17.1260 0.0000 0.0000
vt 17.1260 6.2992 0.0000
vt 17.1260 12.5984 0.0000
vt -17.1260 6.2992 0.0000
vt -19.6850 0.0000 0.0000
vt -17.1260 0.0000 0.0000
vt 9.6457 2.9209 0.0000
vt 9.6457 -2.4521 0.0000
vt 7.4803 7.8740 0.0000
vt 7.4803 0.0000 0.0000
vt -8.5630 0.0000 0.0000
vt -8.5630 7.8740 0.0000
vt -9.6457 12.5984 0.0000
vt -9.6457 19.6850 0.0000
vt 7.4803 -2.4521 0.0000
vt 7.4803 2.9209 0.0000
vt -8.5630 2.9209 0.0000
vt -8.5630 -2.4521 0.0000
vt -8.5630 19.6850 0.0000
vt -8.5630 12.5984 0.0000
vt -9.6457 0.0000 0.0000
vt -9.6457 7.8740 0.0000
vt 8.5630 19.6850 0.0000
vt 19.6850 9.6457 0.0000
vt 17.1260 9.6457 0.0000
vt 17.1260 -7.4803 0.0000
vt 8.5630 -19.6850 0.0000
vt 19.6850 -7.4803 0.0000
vt 8.5630 17.1260 0.0000
vt 8.5630 -17.1260 0.0000
vt -8.5630 17.1260 0.0000
vt -8.5630 -17.1260 0.0000
vt -8.5630 -19.6850 0.0000
vt -17.1260 9.6457 0.0000
vt -19.6850 9.6457 0.0000
vt -17.1260 -7.4803 0.0000
vt -19.6850 -7.4803 0.0000
vt -9.6457 -2.4521 0.0000
vt -9.6457 2.9209 0.0000
vt 17.1260 19.6850 0.0000
vt 8.5630 12.5984 0.0000
vt 9.6457 19.6850 0.0000
vt 9.6457 12.5984 0.0000
vt 7.4803 19.6850 0.0000
vt 7.4803 12.5984 0.0000
vt -8.5630 6.2992 0.0000
vt 8.5630 6.2992 0.0000
vt 11.7800 -11.7800 0.0000
vt -11.7800 11.7800 0.0000
vt -11.7800 -11.7800 0.0000
vt 11.7800 11.7800 0.0000
vt 7.4803 6.2992 0.0000
vt -9.6457 6.2992 0.0000
vt 9.6457 6.2992 0.0000
vt -7.4803 6.2992 0.0000
vt 9.6457 0.0000 0.0000
vt -7.4803 0.0000 0.0000
# 134 texture coords

o towerSquare_sampleE001
g towerSquare_sampleE001
usemtl towerSquare_sampleE_purple
s 1
f 13/11/7 14/12/7 15/13/7 
f 14/12/7 13/11/7 16/14/7 
f 16/14/7 13/11/7 17/15/7 
f 18/16/8 19/17/8 20/18/8 
f 19/17/8 18/16/8 21/19/8 
f 21/19/8 18/16/8 22/20/8 
f 21/19/8 22/20/8 15/21/8 
f 23/15/9 20/13/9 24/11/9 
f 20/13/9 23/15/9 18/12/9 
f 18/12/9 23/15/9 25/14/9 
f 26/22/10 27/23/10 28/24/10 
f 27/23/10 26/22/10 29/25/10 
f 30/18/11 19/19/11 27/17/11 
f 19/19/11 30/18/11 20/21/11 
f 20/21/11 30/18/11 31/16/11 
f 20/21/11 31/16/11 32/20/11 
f 15/18/12 29/19/12 21/17/12 
f 29/19/12 15/18/12 33/21/12 
f 33/21/12 15/18/12 14/16/12 
f 33/21/12 14/16/12 34/20/12 
f 27/19/13 35/20/13 30/21/13 
f 35/20/13 27/19/13 29/17/13 
f 35/20/13 29/17/13 36/16/13 
f 36/16/13 29/17/13 33/18/13 
f 37/11/14 31/12/14 30/13/14 
f 31/12/14 37/11/14 38/14/14 
f 38/14/14 37/11/14 39/15/14 
f 27/25/14 40/24/14 28/22/14 
f 40/24/14 27/25/14 19/23/14 
f 21/25/7 26/24/7 41/22/7 
f 26/24/7 21/25/7 29/23/7 
f 42/26/15 43/27/15 44/28/15 
f 45/29/15 43/27/15 42/26/15 
f 46/30/15 43/27/15 45/29/15 
f 43/27/15 46/30/15 47/31/15 
f 23/11/7 48/32/7 25/33/7 
f 48/32/7 23/11/7 49/34/7 
f 50/34/7 51/35/7 52/36/7 
f 51/35/7 50/34/7 53/14/7 
f 53/14/7 50/34/7 54/15/7 
f 24/37/15 50/38/15 23/39/15 
f 50/38/15 24/37/15 55/40/15 
f 50/38/15 55/40/15 54/41/15 
f 49/42/15 23/39/15 50/38/15 
f 43/34/14 56/35/14 57/36/14 
f 56/35/14 43/34/14 58/14/14 
f 58/14/14 43/34/14 47/15/14 
f 59/15/9 60/36/9 61/34/9 
f 60/36/9 59/15/9 62/35/9 
f 62/35/9 59/15/9 63/14/9 
f 64/43/14 65/44/14 66/45/14 
f 65/44/14 64/43/14 67/46/14 
f 46/46/9 58/45/9 47/43/9 
f 58/45/9 46/46/9 68/44/9 
f 59/43/7 69/44/7 63/45/7 
f 69/44/7 59/43/7 70/46/7 
f 71/34/9 38/33/9 39/11/9 
f 38/33/9 71/34/9 72/32/9 
f 68/47/7 33/48/7 34/49/7 
f 33/48/7 68/47/7 45/46/7 
f 45/46/7 68/47/7 46/50/7 
f 16/33/10 73/34/10 74/32/10 
f 73/34/10 16/33/10 17/11/10 
f 53/45/10 55/46/10 75/44/10 
f 55/46/10 53/45/10 54/43/10 
f 37/51/15 71/52/15 39/53/15 
f 71/52/15 37/51/15 61/54/15 
f 61/54/15 37/51/15 59/55/15 
f 59/55/15 37/51/15 70/56/15 
f 76/36/10 66/14/10 77/35/10 
f 66/14/10 76/36/10 64/15/10 
f 64/15/10 76/36/10 78/34/10 
f 42/11/14 79/32/14 80/33/14 
f 79/32/14 42/11/14 44/34/14 
f 64/57/15 13/58/15 67/59/15 
f 13/58/15 64/57/15 78/60/15 
f 13/58/15 78/60/15 17/61/15 
f 17/61/15 78/60/15 73/62/15 
f 21/23/9 40/22/9 19/25/9 
f 40/22/9 21/23/9 41/24/9 
f 33/13/10 80/14/10 36/12/10 
f 80/14/10 33/13/10 42/15/10 
f 42/15/10 33/13/10 45/11/10 
f 43/43/9 79/47/9 44/50/9 
f 79/47/9 43/43/9 81/63/9 
f 81/63/9 43/43/9 57/64/9 
f 82/63/10 50/43/10 52/64/10 
f 50/43/10 82/63/10 49/50/10 
f 49/50/10 82/63/10 48/47/10 
f 13/46/9 65/47/9 67/50/9 
f 65/47/9 13/46/9 22/49/9 
f 22/49/9 13/46/9 15/48/9 
f 74/47/14 76/64/14 83/63/14 
f 76/64/14 74/47/14 78/43/14 
f 78/43/14 74/47/14 73/50/14 
f 35/49/10 37/46/10 30/48/10 
f 37/46/10 35/49/10 70/50/10 
f 70/50/10 35/49/10 69/47/10 
f 75/47/14 20/48/14 32/49/14 
f 20/48/14 75/47/14 24/46/14 
f 24/46/14 75/47/14 55/50/14 
f 72/47/7 60/64/7 84/63/7 
f 60/64/7 72/47/7 61/43/7 
f 61/43/7 72/47/7 71/50/7 
f 85/65/10 86/66/10 87/67/10 
f 86/66/10 85/65/10 88/68/10 
f 89/69/10 90/70/10 91/71/10 
f 90/70/10 89/69/10 92/72/10 
f 93/73/16 94/74/16 95/75/16 
f 94/74/16 93/73/16 96/76/16 
f 95/68/7 97/77/7 98/78/7 
f 97/77/7 95/68/7 94/79/7 
f 90/68/14 99/77/14 91/78/14 
f 99/77/14 90/68/14 100/79/14 
f 101/80/10 102/81/10 103/82/10 
f 102/81/10 101/80/10 104/83/10 
f 92/84/17 103/85/17 90/86/17 
f 103/85/17 92/84/17 101/87/17 
f 105/68/7 106/88/7 107/78/7 
f 106/88/7 105/68/7 108/89/7 
f 108/89/7 105/68/7 109/90/7 
f 110/91/7 89/92/7 111/93/7 
f 89/92/7 110/91/7 92/70/7 
f 92/70/7 110/91/7 101/82/7 
f 88/75/17 112/94/17 86/95/17 
f 112/94/17 88/75/17 113/73/17 
f 105/96/9 114/78/9 115/68/9 
f 114/78/9 105/96/9 107/97/9 
f 116/98/7 88/70/7 85/92/7 
f 88/70/7 116/98/7 117/99/7 
f 118/81/9 119/100/9 120/101/9 
f 119/100/9 118/81/9 93/82/9 
f 121/98/14 115/70/14 114/92/14 
f 115/70/14 121/98/14 122/99/14 
f 123/73/18 105/102/18 115/75/18 
f 105/102/18 123/73/18 109/103/18 
f 124/90/9 99/78/9 100/68/9 
f 99/78/9 124/90/9 125/88/9 
f 125/88/9 124/90/9 126/89/9 
f 97/78/10 127/89/10 128/88/10 
f 127/89/10 97/78/10 96/90/10 
f 96/90/10 97/78/10 94/68/10 
f 129/104/16 88/86/16 117/105/16 
f 88/86/16 129/104/16 113/85/16 
f 130/106/7 113/82/7 129/107/7 
f 113/82/7 130/106/7 131/81/7 
f 132/106/14 123/82/14 133/107/14 
f 123/82/14 132/106/14 134/81/14 
f 133/104/19 115/86/19 122/105/19 
f 115/86/19 133/104/19 123/85/19 
f 103/73/19 100/74/19 90/75/19 
f 100/74/19 103/73/19 124/76/19 
f 135/93/10 122/70/10 121/92/10 
f 122/70/10 135/93/10 133/82/10 
f 133/82/10 135/93/10 136/91/10 
f 137/91/14 138/92/14 139/93/14 
f 138/92/14 137/91/14 140/70/14 
f 140/70/14 137/91/14 119/82/14 
f 117/70/9 141/91/9 129/82/9 
f 141/91/9 117/70/9 142/93/9 
f 142/93/9 117/70/9 116/92/9 
f 95/70/9 138/108/9 140/109/9 
f 138/108/9 95/70/9 98/92/9 
f 97/110/20 138/111/20 98/29/20 
f 138/111/20 97/110/20 139/112/20 
f 139/112/20 97/110/20 106/113/20 
f 121/114/20 106/113/20 97/110/20 
f 114/51/20 106/113/20 121/114/20 
f 106/113/20 114/51/20 107/115/20 
f 121/114/20 97/110/20 128/116/20 
f 121/114/20 128/116/20 135/117/20 
f 142/118/20 135/117/20 128/116/20 
f 135/117/20 142/118/20 125/119/20 
f 142/118/20 85/58/20 125/119/20 
f 85/58/20 142/118/20 116/106/20 
f 125/119/20 85/58/20 99/120/20 
f 99/120/20 85/58/20 143/121/20 
f 143/121/20 85/58/20 87/122/20 
f 111/123/20 99/120/20 143/121/20 
f 99/120/20 111/123/20 91/37/20 
f 91/37/20 111/123/20 89/124/20 
f 93/85/18 140/125/18 119/126/18 
f 140/125/18 93/85/18 95/86/18 
f 86/68/14 143/88/14 87/78/14 
f 143/88/14 86/68/14 144/89/14 
f 144/89/14 86/68/14 112/90/14 
f 118/127/7 96/128/7 93/90/7 
f 96/128/7 118/127/7 145/110/7 
f 113/90/10 146/129/10 112/130/10 
f 146/129/10 113/90/10 131/127/10 
f 147/131/9 123/90/9 134/127/9 
f 123/90/9 147/131/9 109/132/9 
f 102/127/14 124/128/14 103/90/14 
f 124/128/14 102/127/14 148/110/14 
usemtl towerSquare_sampleE_stone
f 28/22/14 148/110/14 102/127/14 
f 148/110/14 28/22/14 132/106/14 
f 132/106/14 28/22/14 134/81/14 
f 134/81/14 28/22/14 40/24/14 
f 133/107/14 148/110/14 132/106/14 
f 133/107/14 124/128/14 148/110/14 
f 136/133/14 124/128/14 133/107/14 
f 124/128/14 136/133/14 126/134/14 
f 58/31/15 16/61/15 74/62/15 
f 16/61/15 58/31/15 68/30/15 
f 149/135/15 150/136/15 151/137/15 
f 150/136/15 149/135/15 152/138/15 
f 36/12/10 69/47/10 35/49/10 
f 69/47/10 36/12/10 80/14/10 
f 41/24/9 134/127/9 40/22/9 
f 134/127/9 41/24/9 147/131/9 
f 147/131/9 41/24/9 109/132/9 
f 109/132/9 41/24/9 120/101/9 
f 109/132/9 120/101/9 108/139/9 
f 120/101/9 41/24/9 118/81/9 
f 120/101/9 137/140/9 108/139/9 
f 137/140/9 120/101/9 119/100/9 
f 69/56/15 79/28/15 63/55/15 
f 79/28/15 69/56/15 80/26/15 
f 38/53/15 53/41/15 75/40/15 
f 53/41/15 38/53/15 72/52/15 
f 41/22/7 145/110/7 118/127/7 
f 145/110/7 41/22/7 130/106/7 
f 130/106/7 41/22/7 131/81/7 
f 131/81/7 41/22/7 26/24/7 
f 129/107/7 145/110/7 130/106/7 
f 129/107/7 96/128/7 145/110/7 
f 141/133/7 96/128/7 129/107/7 
f 96/128/7 141/133/7 127/134/7 
f 48/42/15 65/59/15 25/39/15 
f 65/59/15 48/42/15 66/57/15 
f 58/14/14 83/63/14 56/35/14 
f 83/63/14 58/14/14 74/47/14 
f 16/14/7 34/49/7 14/12/7 
f 34/49/7 16/14/7 68/47/7 
f 77/35/10 48/47/10 82/63/10 
f 48/47/10 77/35/10 66/14/10 
f 53/14/7 84/63/7 51/35/7 
f 84/63/7 53/14/7 72/47/7 
f 65/47/9 18/12/9 25/14/9 
f 18/12/9 65/47/9 22/49/9 
f 79/47/9 62/35/9 63/14/9 
f 62/35/9 79/47/9 81/63/9 
f 38/14/14 32/49/14 31/12/14 
f 32/49/14 38/14/14 75/47/14 
f 144/141/10 101/80/10 110/142/10 
f 101/80/10 144/141/10 104/83/10 
f 146/129/10 104/83/10 144/141/10 
f 26/22/10 104/83/10 146/129/10 
f 28/24/10 104/83/10 26/22/10 
f 104/83/10 28/24/10 102/81/10 
f 146/129/10 144/141/10 112/130/10 
f 26/22/10 146/129/10 131/127/10 
usemtl towerSquare_sampleE_stoneDark
f 51/41/15 82/42/15 52/38/15 
f 82/42/15 51/41/15 151/137/15 
f 82/42/15 151/137/15 77/57/15 
f 77/57/15 151/137/15 76/60/15 
f 151/137/15 51/41/15 149/135/15 
f 149/135/15 51/41/15 84/52/15 
f 149/135/15 84/52/15 60/54/15 
f 149/135/15 60/54/15 152/138/15 
f 152/138/15 60/54/15 62/55/15 
f 150/136/15 76/60/15 151/137/15 
f 76/60/15 150/136/15 83/62/15 
f 83/62/15 150/136/15 152/138/15 
f 83/62/15 152/138/15 56/31/15 
f 56/31/15 152/138/15 57/27/15 
f 57/27/15 152/138/15 81/28/15 
f 81/28/15 152/138/15 62/55/15 
f 127/134/7 142/98/7 128/77/7 
f 142/98/7 127/134/7 141/133/7 
f 137/140/9 106/97/9 108/139/9 
f 106/97/9 137/140/9 139/108/9 
f 126/134/14 135/98/14 125/77/14 
f 135/98/14 126/134/14 136/133/14 
f 143/143/10 110/142/10 111/144/10 
f 110/142/10 143/143/10 144/141/10 
# 276 faces

