# 3ds Max Wavefront OBJ Exporter v0.97b - (c)2007 guruware
# ÆÄÀÏ »ý¼ºµÊ: 14.12.2020 19:33:29

mtllib tile_tower_ballista.mtl

#
# object towerSquare_sampleF
#

v  0.4350 0.7000 0.4350
v  0.2175 0.5200 0.4350
v  0.4350 0.5200 0.4350
v  0.2175 0.7000 0.4350
v  -0.4350 0.5200 -0.4350
v  0.5000 0.4000 -0.5000
v  -0.5000 0.4000 -0.5000
v  0.4350 0.5200 -0.4350
v  -0.2175 0.5200 -0.4350
v  0.2175 0.5200 -0.4350
v  -0.4350 0.7000 -0.4350
v  -0.2175 0.7000 -0.4350
v  0.2175 0.7000 -0.2175
v  0.4350 0.7000 -0.4350
v  0.4350 0.7000 -0.2175
v  0.2175 0.7000 -0.4350
v  -0.5000 0.2000 0.5000
v  -0.5000 0.2000 -0.5000
v  -0.5000 0.4000 0.5000
v  -0.4350 0.7000 -0.2175
v  -0.2175 0.7000 -0.2175
v  0.5000 0.4000 0.5000
v  -0.4350 0.5200 0.4350
v  -0.2175 0.5200 0.4350
v  0.4350 0.5200 -0.2175
v  0.4350 0.5200 0.2175
v  0.5000 0.2000 0.5000
v  -0.4350 0.7000 0.4350
v  -0.2175 0.7000 0.2175
v  -0.2175 0.7000 0.4350
v  -0.4350 0.7000 0.2175
v  -0.4350 0.5200 -0.2175
v  -0.4350 0.5200 0.2175
v  0.4350 0.7000 0.2175
v  0.2175 0.7000 0.2175
v  0.5000 0.2000 -0.5000
v  -0.1501 1.1000 0.3002
v  0.1501 1.1000 0.5000
v  0.1501 1.1000 0.3002
v  -0.1501 1.1000 0.5000
v  -0.1994 1.0300 -0.1994
v  0.1994 1.0300 0.1994
v  0.1994 1.0300 -0.1994
v  -0.1994 1.0300 0.1994
v  0.5000 1.2000 -0.1501
v  0.3002 1.1000 -0.1501
v  0.5000 1.1000 -0.1501
v  0.3002 1.2000 -0.1501
v  0.1501 1.2000 0.3002
v  0.1501 1.2000 0.5000
v  -0.1501 1.2000 0.5000
v  -0.1501 1.2000 0.3002
v  -0.5000 1.0000 -0.5000
v  -0.1501 1.1000 -0.5000
v  0.5000 1.0000 -0.5000
v  -0.5000 1.2000 -0.5000
v  -0.1501 1.2000 -0.5000
v  0.1501 1.1000 -0.5000
v  0.5000 1.2000 -0.5000
v  0.1501 1.2000 -0.5000
v  0.5000 1.0000 0.5000
v  -0.4350 0.8800 0.4350
v  0.4350 0.8800 0.4350
v  -0.5000 1.0000 0.5000
v  0.4350 0.8800 -0.4350
v  -0.4350 0.8800 -0.4350
v  -0.3002 1.0300 0.3002
v  0.3002 1.0300 0.3002
v  -0.3002 1.2000 0.3002
v  0.3002 1.2000 0.3002
v  0.3002 1.0300 -0.3002
v  0.3002 1.2000 -0.3002
v  0.3002 1.1000 0.1501
v  0.3002 1.2000 0.1501
v  0.1501 1.1000 -0.3002
v  -0.3002 1.0300 -0.3002
v  0.1501 1.2000 -0.3002
v  -0.1501 1.1000 -0.3002
v  -0.3002 1.2000 -0.3002
v  -0.1501 1.2000 -0.3002
v  -0.3002 1.1000 0.1501
v  -0.3002 1.2000 0.1501
v  -0.3002 1.1000 -0.1501
v  -0.3002 1.2000 -0.1501
v  -0.5000 1.2000 -0.1501
v  0.5000 1.2000 0.5000
v  0.5000 1.1000 0.1501
v  0.5000 1.2000 0.1501
v  -0.5000 1.2000 0.5000
v  -0.5000 1.1000 -0.1501
v  -0.5000 1.1000 0.1501
v  -0.5000 1.2000 0.1501
# 92 vertices

vn 0.0000 0.0000 1.0000
vn 0.0000 0.4763 -0.8793
vn 0.0000 0.0000 -1.0000
vn 0.0000 -1.0000 -0.0000
vn -1.0000 0.0000 -0.0000
vn 0.0000 0.4763 0.8793
vn 0.8793 0.4763 -0.0000
vn 1.0000 0.0000 -0.0000
vn -0.8793 0.4763 -0.0000
vn 0.0000 1.0000 -0.0000
vn 0.0000 -0.4763 0.8793
vn 0.0000 -0.4763 -0.8793
vn -0.8793 -0.4763 -0.0000
vn 0.8793 -0.4763 -0.0000
# 14 vertex normals

vt 17.1260 19.6850 0.0000
vt 8.5630 12.5984 0.0000
vt 17.1260 12.5984 0.0000
vt 8.5630 19.6850 0.0000
vt 17.1260 2.9209 0.0000
vt -19.6850 -2.4521 0.0000
vt 19.6850 -2.4521 0.0000
vt -17.1260 2.9209 0.0000
vt 8.5630 2.9209 0.0000
vt -8.5630 2.9209 0.0000
vt 8.5630 -8.5630 0.0000
vt 17.1260 -17.1260 0.0000
vt 17.1260 -8.5630 0.0000
vt 8.5630 -17.1260 0.0000
vt 19.6850 0.0000 0.0000
vt -19.6850 7.8740 0.0000
vt -19.6850 0.0000 0.0000
vt 19.6850 7.8740 0.0000
vt -17.1260 -8.5630 0.0000
vt -8.5630 -17.1260 0.0000
vt -8.5630 -8.5630 0.0000
vt -17.1260 -17.1260 0.0000
vt -17.1260 17.1260 0.0000
vt -8.5630 8.5630 0.0000
vt -8.5630 17.1260 0.0000
vt -17.1260 8.5630 0.0000
vt -8.5630 19.6850 0.0000
vt -17.1260 12.5984 0.0000
vt -8.5630 12.5984 0.0000
vt -17.1260 19.6850 0.0000
vt 8.5630 17.1260 0.0000
vt 17.1260 8.5630 0.0000
vt 17.1260 17.1260 0.0000
vt 8.5630 8.5630 0.0000
vt -19.6850 19.6850 0.0000
vt 19.6850 -19.6850 0.0000
vt 19.6850 19.6850 0.0000
vt -19.6850 -19.6850 0.0000
vt 5.9099 11.8197 0.0000
vt -5.9099 19.6850 0.0000
vt -5.9099 11.8197 0.0000
vt 5.9099 19.6850 0.0000
vt 7.8497 -7.8497 0.0000
vt -7.8497 7.8497 0.0000
vt -7.8497 -7.8497 0.0000
vt 7.8497 7.8497 0.0000
vt 19.6850 39.3701 0.0000
vt 11.8197 35.4331 0.0000
vt 19.6850 35.4331 0.0000
vt 11.8197 39.3701 0.0000
vt -19.6850 39.3701 0.0000
vt -11.8197 35.4331 0.0000
vt -11.8197 39.3701 0.0000
vt -19.6850 35.4331 0.0000
vt 19.6850 31.4961 0.0000
vt 5.9099 35.4331 0.0000
vt -19.6850 31.4961 0.0000
vt 5.9099 39.3701 0.0000
vt -5.9099 35.4331 0.0000
vt -5.9099 39.3701 0.0000
vt 19.6850 37.0699 0.0000
vt -17.1260 31.6969 0.0000
vt 17.1260 31.6969 0.0000
vt -19.6850 37.0699 0.0000
vt 17.1260 26.7717 0.0000
vt -17.1260 26.7717 0.0000
vt 11.8197 32.6772 0.0000
vt -11.8197 32.6772 0.0000
vt -11.8197 -5.9099 0.0000
vt -19.6850 -5.9099 0.0000
vt -11.8197 -11.8197 0.0000
vt -5.9099 -19.6850 0.0000
vt -5.9099 -11.8197 0.0000
vt 5.9099 -11.8197 0.0000
vt 5.9099 -19.6850 0.0000
vt 11.8197 -11.8197 0.0000
vt 11.8197 -5.9099 0.0000
vt 19.6850 -5.9099 0.0000
vt 11.8197 5.9099 0.0000
vt 19.6850 5.9099 0.0000
vt -19.6850 5.9099 0.0000
vt -11.8197 5.9099 0.0000
vt -11.8197 11.8197 0.0000
vt 11.8197 11.8197 0.0000
# 84 texture coords

o towerSquare_sampleF
g towerSquare_sampleF
usemtl tile_tower_ballista_tile_tower_ballista_towerSquare_sampleF_purple
s 1
f 1/1/1 2/2/1 3/3/1 
f 2/2/1 1/1/1 4/4/1 
f 5/5/2 6/6/2 7/7/2 
f 6/6/2 5/5/2 8/8/2 
f 8/8/2 5/5/2 9/9/2 
f 8/8/2 9/9/2 10/10/2 
f 11/1/3 9/2/3 5/3/3 
f 9/2/3 11/1/3 12/4/3 
f 13/11/4 14/12/4 15/13/4 
f 14/12/4 13/11/4 16/14/4 
f 17/15/5 7/16/5 18/17/5 
f 7/16/5 17/15/5 19/18/5 
f 20/19/4 12/20/4 21/21/4 
f 12/20/4 20/19/4 11/22/4 
f 3/5/6 19/6/6 22/7/6 
f 19/6/6 3/5/6 23/8/6 
f 23/8/6 3/5/6 2/9/6 
f 23/8/6 2/9/6 24/10/6 
f 8/5/7 22/6/7 6/7/7 
f 22/6/7 8/5/7 25/9/7 
f 22/6/7 25/9/7 26/10/7 
f 22/6/7 26/10/7 3/8/7 
f 22/18/1 17/17/1 27/15/1 
f 17/17/1 22/18/1 19/16/1 
f 15/4/8 8/3/8 14/1/8 
f 8/3/8 15/4/8 25/2/8 
f 28/23/4 29/24/4 30/25/4 
f 29/24/4 28/23/4 31/26/4 
f 30/27/1 23/28/1 24/29/1 
f 23/28/1 30/27/1 28/30/1 
f 19/7/9 5/8/9 7/6/9 
f 5/8/9 19/7/9 32/10/9 
f 32/10/9 19/7/9 33/9/9 
f 33/9/9 19/7/9 23/5/9 
f 4/31/4 34/32/4 1/33/4 
f 34/32/4 4/31/4 35/34/4 
f 1/30/8 26/29/8 34/27/8 
f 26/29/8 1/30/8 3/28/8 
f 22/16/8 36/15/8 6/18/8 
f 36/15/8 22/16/8 27/17/8 
f 17/35/4 36/36/4 27/37/4 
f 36/36/4 17/35/4 18/38/4 
f 7/18/3 36/17/3 18/15/3 
f 36/17/3 7/18/3 6/16/3 
f 23/3/5 31/4/5 33/2/5 
f 31/4/5 23/3/5 28/1/5 
f 16/27/3 8/28/3 10/29/3 
f 8/28/3 16/27/3 14/30/3 
f 32/29/5 11/30/5 5/28/5 
f 11/30/5 32/29/5 20/27/5 
usemtl tile_tower_ballista_tile_tower_ballista_towerSquare_sampleF_stone
f 37/39/10 38/40/10 39/41/10 
f 38/40/10 37/39/10 40/42/10 
f 41/43/10 42/44/10 43/45/10 
f 42/44/10 41/43/10 44/46/10 
f 45/47/1 46/48/1 47/49/1 
f 46/48/1 45/47/1 48/50/1 
f 38/49/5 49/50/5 39/48/5 
f 49/50/5 38/49/5 50/47/5 
f 51/51/8 37/52/8 52/53/8 
f 37/52/8 51/51/8 40/54/8 
f 53/55/3 54/56/3 55/57/3 
f 54/56/3 53/55/3 56/47/3 
f 54/56/3 56/47/3 57/58/3 
f 58/59/3 55/57/3 54/56/3 
f 55/57/3 58/59/3 59/51/3 
f 59/51/3 58/59/3 60/60/3 
f 61/61/11 62/62/11 63/63/11 
f 62/62/11 61/61/11 64/64/11 
f 53/61/12 65/62/12 66/63/12 
f 65/62/12 53/61/12 55/64/12 
f 33/2/5 20/27/5 32/29/5 
f 31/4/5 20/27/5 33/2/5 
f 62/65/5 20/27/5 31/4/5 
f 66/66/5 20/27/5 62/65/5 
f 20/27/5 66/66/5 11/30/5 
f 62/65/5 31/4/5 28/1/5 
f 66/62/13 64/61/13 53/64/13 
f 64/61/13 66/62/13 62/63/13 
f 67/67/3 37/56/3 68/68/3 
f 37/56/3 67/67/3 69/50/3 
f 37/56/3 69/50/3 52/58/3 
f 39/59/3 68/68/3 37/56/3 
f 68/68/3 39/59/3 70/53/3 
f 70/53/3 39/59/3 49/60/3 
f 71/68/5 46/59/5 72/53/5 
f 46/59/5 71/68/5 68/67/5 
f 46/59/5 68/67/5 73/56/5 
f 73/56/5 68/67/5 74/58/5 
f 74/58/5 68/67/5 70/50/5 
f 48/60/5 72/53/5 46/59/5 
f 71/67/1 75/56/1 76/68/1 
f 75/56/1 71/67/1 72/50/1 
f 75/56/1 72/50/1 77/58/1 
f 78/59/1 76/68/1 75/56/1 
f 76/68/1 78/59/1 79/53/1 
f 79/53/1 78/59/1 80/60/1 
f 69/53/8 81/59/8 82/60/8 
f 67/68/8 81/59/8 69/53/8 
f 67/68/8 83/56/8 81/59/8 
f 76/67/8 83/56/8 67/68/8 
f 76/67/8 84/58/8 83/56/8 
f 84/58/8 76/67/8 79/50/8 
f 48/69/10 45/70/10 72/71/10 
f 45/70/10 60/72/10 72/71/10 
f 60/72/10 45/70/10 59/38/10 
f 72/71/10 60/72/10 77/73/10 
f 56/36/10 80/74/10 57/75/10 
f 80/74/10 56/36/10 79/76/10 
f 79/76/10 56/36/10 84/77/10 
f 84/77/10 56/36/10 85/78/10 
f 63/66/8 14/1/8 65/65/8 
f 14/1/8 63/66/8 15/4/8 
f 15/4/8 63/66/8 25/2/8 
f 25/2/8 63/66/8 34/27/8 
f 34/27/8 63/66/8 1/30/8 
f 26/29/8 25/2/8 34/27/8 
f 61/64/14 65/63/14 55/61/14 
f 65/63/14 61/64/14 63/62/14 
f 66/65/3 12/4/3 11/1/3 
f 12/4/3 66/65/3 16/27/3 
f 16/27/3 66/65/3 14/30/3 
f 14/30/3 66/65/3 65/66/3 
f 10/29/3 12/4/3 16/27/3 
f 12/4/3 10/29/3 9/2/3 
f 86/51/8 87/59/8 88/60/8 
f 61/57/8 87/59/8 86/51/8 
f 61/57/8 47/56/8 87/59/8 
f 55/55/8 47/56/8 61/57/8 
f 55/55/8 45/58/8 47/56/8 
f 45/58/8 55/55/8 59/47/8 
f 63/65/1 4/4/1 1/1/1 
f 4/4/1 63/65/1 30/27/1 
f 30/27/1 63/65/1 28/30/1 
f 28/30/1 63/65/1 62/66/1 
f 24/29/1 4/4/1 30/27/1 
f 4/4/1 24/29/1 2/2/1 
f 61/55/1 38/56/1 64/57/1 
f 38/56/1 61/55/1 86/47/1 
f 38/56/1 86/47/1 50/58/1 
f 40/59/1 64/57/1 38/56/1 
f 64/57/1 40/59/1 89/51/1 
f 89/51/1 40/59/1 51/60/1 
f 53/57/5 90/59/5 56/51/5 
f 90/59/5 53/57/5 64/55/5 
f 90/59/5 64/55/5 91/56/5 
f 91/56/5 64/55/5 92/58/5 
f 92/58/5 64/55/5 89/47/5 
f 85/60/5 56/51/5 90/59/5 
f 90/78/10 81/79/10 83/77/10 
f 81/79/10 90/78/10 91/80/10 
f 46/69/10 87/81/10 47/70/10 
f 87/81/10 46/69/10 73/82/10 
f 54/75/10 75/73/10 58/72/10 
f 75/73/10 54/75/10 78/74/10 
f 74/53/3 87/54/3 73/52/3 
f 87/54/3 74/53/3 88/51/3 
f 84/53/1 90/54/1 83/52/1 
f 90/54/1 84/53/1 85/51/1 
f 92/47/3 81/48/3 91/49/3 
f 81/48/3 92/47/3 82/50/3 
f 80/50/8 54/49/8 57/47/8 
f 54/49/8 80/50/8 78/48/8 
f 75/52/5 60/51/5 58/54/5 
f 60/51/5 75/52/5 77/53/5 
f 74/82/10 86/35/10 88/81/10 
f 86/35/10 74/82/10 70/83/10 
f 86/35/10 70/83/10 50/40/10 
f 50/40/10 70/83/10 49/41/10 
f 92/80/10 69/84/10 82/79/10 
f 89/37/10 69/84/10 92/80/10 
f 51/42/10 69/84/10 89/37/10 
f 69/84/10 51/42/10 52/39/10 
usemtl tile_tower_ballista_tile_tower_ballista_towerSquare_sampleF_stoneDark
f 71/71/10 43/45/10 68/83/10 
f 43/45/10 71/71/10 76/76/10 
f 43/45/10 76/76/10 41/43/10 
f 41/43/10 76/76/10 44/46/10 
f 42/44/10 68/83/10 43/45/10 
f 68/83/10 42/44/10 67/84/10 
f 67/84/10 42/44/10 44/46/10 
f 67/84/10 44/46/10 76/76/10 
# 180 faces

