# 3ds Max Wavefront OBJ Exporter v0.97b - (c)2007 guruware
# ÆÄÀÏ »ý¼ºµÊ: 14.12.2020 19:35:37

mtllib tile_tower_squareC.mtl

#
# object towerSquare_sampleC
#

v  0.5000 0.4000 0.5000
v  -0.5000 0.2000 0.5000
v  0.5000 0.2000 0.5000
v  -0.5000 0.4000 0.5000
v  -0.4350 0.5200 0.4350
v  -0.4350 0.7000 0.2175
v  -0.4350 0.5200 0.2175
v  -0.4350 0.7000 0.4350
v  -0.4350 0.7000 -0.4350
v  -0.2175 0.5200 -0.4350
v  -0.4350 0.5200 -0.4350
v  -0.2175 0.7000 -0.4350
v  -0.5000 0.4000 -0.5000
v  0.5000 0.2000 -0.5000
v  -0.5000 0.2000 -0.5000
v  0.5000 0.4000 -0.5000
v  0.4350 0.5200 -0.4350
v  0.4350 0.5200 -0.2175
v  0.4350 0.5200 0.2175
v  0.4350 0.5200 0.4350
v  -0.4350 0.5200 -0.2175
v  0.2175 0.5200 0.4350
v  -0.2175 0.5200 0.4350
v  0.2175 0.5200 -0.4350
v  0.4350 0.7000 0.4350
v  0.2175 0.7000 0.4350
v  -0.2175 0.7000 0.2175
v  -0.2175 0.7000 0.4350
v  -0.4350 0.7000 -0.2175
v  -0.2175 0.7000 -0.2175
v  0.4350 0.7000 0.2175
v  0.2175 0.7000 0.2175
v  0.4350 0.7000 -0.2175
v  0.4350 0.7000 -0.4350
v  0.2175 0.7000 -0.4350
v  0.0241 1.8800 0.0241
v  -0.0912 1.5800 0.0912
v  0.0912 1.5800 0.0912
v  -0.0241 1.8800 0.0241
v  -0.0241 1.8800 -0.0241
v  -0.0912 1.5800 -0.0912
v  0.0912 1.5800 -0.0912
v  0.2193 1.3800 0.2193
v  0.2193 1.3800 -0.2193
v  0.0241 1.8800 -0.0241
v  -0.1994 1.3300 0.1994
v  0.1994 1.3300 0.1994
v  -0.2193 1.3800 0.2193
v  -0.1994 1.3300 -0.1994
v  -0.2193 1.3800 -0.2193
v  0.1994 1.3300 -0.1994
v  -0.5000 1.0000 -0.5000
v  -0.1501 1.1000 -0.5000
v  0.5000 1.0000 -0.5000
v  -0.5000 1.2000 -0.5000
v  -0.1501 1.2000 -0.5000
v  0.1501 1.1000 -0.5000
v  0.5000 1.2000 -0.5000
v  0.1501 1.2000 -0.5000
v  0.4350 0.8800 0.4350
v  -0.4350 0.8800 0.4350
v  0.4350 0.8800 -0.4350
v  0.5000 1.0000 0.5000
v  0.1501 1.1000 0.5000
v  -0.5000 1.0000 0.5000
v  0.5000 1.2000 0.5000
v  0.1501 1.2000 0.5000
v  -0.1501 1.1000 0.5000
v  -0.5000 1.2000 0.5000
v  -0.1501 1.2000 0.5000
v  -0.4350 0.8800 -0.4350
v  -0.5000 1.1000 -0.1501
v  -0.5000 1.1000 0.1501
v  -0.5000 1.2000 0.1501
v  -0.5000 1.2000 -0.1501
v  0.2175 0.7000 -0.2175
v  -0.3002 1.0300 0.3002
v  -0.1501 1.1000 0.3002
v  0.3002 1.0300 0.3002
v  -0.3002 1.2000 0.3002
v  -0.1501 1.2000 0.3002
v  0.1501 1.1000 0.3002
v  0.3002 1.2000 0.3002
v  0.1501 1.2000 0.3002
v  0.3002 1.0300 -0.3002
v  0.3002 1.1000 -0.1501
v  0.3002 1.2000 -0.3002
v  0.3002 1.1000 0.1501
v  0.3002 1.2000 0.1501
v  0.3002 1.2000 -0.1501
v  0.5000 1.1000 0.1501
v  0.5000 1.2000 0.1501
v  0.5000 1.1000 -0.1501
v  0.5000 1.2000 -0.1501
v  0.1501 1.1000 -0.3002
v  -0.3002 1.0300 -0.3002
v  0.1501 1.2000 -0.3002
v  -0.1501 1.1000 -0.3002
v  -0.3002 1.2000 -0.3002
v  -0.1501 1.2000 -0.3002
v  -0.3002 1.1000 0.1501
v  -0.3002 1.2000 0.1501
v  -0.3002 1.1000 -0.1501
v  -0.3002 1.2000 -0.1501
v  -0.1994 1.0300 0.1994
v  0.1994 1.0300 0.1994
v  0.1994 1.0300 -0.1994
v  -0.1994 1.0300 -0.1994
# 108 vertices

vn 0.0000 0.0000 1.0000
vn -1.0000 0.0000 -0.0000
vn 0.0000 0.0000 -1.0000
vn 0.8793 0.4763 -0.0000
vn -0.8793 0.4763 -0.0000
vn 0.0000 0.4763 0.8793
vn 0.0000 0.4763 -0.8793
vn 1.0000 0.0000 -0.0000
vn 0.0000 -1.0000 -0.0000
vn 0.0000 0.2183 0.9759
vn -0.9759 0.2183 -0.0000
vn 0.8421 0.5393 -0.0000
vn 0.0000 0.2183 -0.9759
vn 0.9759 0.2183 -0.0000
vn 0.0000 -0.3704 0.9289
vn -0.9289 -0.3704 -0.0000
vn 0.0000 -0.3704 -0.9289
vn 0.9289 -0.3704 -0.0000
vn 0.0000 0.5393 0.8421
vn 0.0000 1.0000 -0.0000
vn -0.8421 0.5393 -0.0000
vn 0.0000 0.5393 -0.8421
vn 0.8793 -0.4763 -0.0000
vn -0.8793 -0.4763 -0.0000
vn 0.0000 -0.4763 -0.8793
vn 0.0000 -0.4763 0.8793
# 26 vertex normals

vt 19.6850 7.8740 0.0000
vt -19.6850 0.0000 0.0000
vt 19.6850 0.0000 0.0000
vt -19.6850 7.8740 0.0000
vt 17.1260 12.5984 0.0000
vt 8.5630 19.6850 0.0000
vt 8.5630 12.5984 0.0000
vt 17.1260 19.6850 0.0000
vt 17.1260 2.9209 0.0000
vt -19.6850 -2.4521 0.0000
vt 19.6850 -2.4521 0.0000
vt 8.5630 2.9209 0.0000
vt -8.5630 2.9209 0.0000
vt -17.1260 2.9209 0.0000
vt -17.1260 17.1260 0.0000
vt -8.5630 8.5630 0.0000
vt -8.5630 17.1260 0.0000
vt -17.1260 8.5630 0.0000
vt -17.1260 -8.5630 0.0000
vt -8.5630 -17.1260 0.0000
vt -8.5630 -8.5630 0.0000
vt -17.1260 -17.1260 0.0000
vt -19.6850 19.6850 0.0000
vt 19.6850 -19.6850 0.0000
vt 19.6850 19.6850 0.0000
vt -19.6850 -19.6850 0.0000
vt 8.5630 17.1260 0.0000
vt 17.1260 8.5630 0.0000
vt 17.1260 17.1260 0.0000
vt 8.5630 8.5630 0.0000
vt -8.5630 19.6850 0.0000
vt -17.1260 12.5984 0.0000
vt -8.5630 12.5984 0.0000
vt -17.1260 19.6850 0.0000
vt 0.9498 64.3390 0.0000
vt -3.5920 52.2360 0.0000
vt 3.5920 52.2360 0.0000
vt -0.9498 64.3390 0.0000
vt 3.5920 43.8153 0.0000
vt -8.6347 34.4650 0.0000
vt 8.6347 34.4650 0.0000
vt -3.5920 43.8153 0.0000
vt 8.6347 46.3506 0.0000
vt -7.8497 44.2314 0.0000
vt 7.8497 44.2314 0.0000
vt -8.6347 46.3506 0.0000
vt 0.9498 -0.9498 0.0000
vt -0.9498 0.9498 0.0000
vt -0.9498 -0.9498 0.0000
vt 0.9498 0.9498 0.0000
vt 19.6850 31.4961 0.0000
vt 5.9099 35.4331 0.0000
vt -19.6850 31.4961 0.0000
vt 19.6850 39.3701 0.0000
vt 5.9099 39.3701 0.0000
vt -5.9099 35.4331 0.0000
vt -19.6850 39.3701 0.0000
vt -5.9099 39.3701 0.0000
vt 17.1260 26.7717 0.0000
vt -17.1260 26.7717 0.0000
vt -19.6850 37.0699 0.0000
vt 17.1260 31.6969 0.0000
vt 19.6850 37.0699 0.0000
vt -17.1260 31.6969 0.0000
vt 8.5630 -8.5630 0.0000
vt 17.1260 -17.1260 0.0000
vt 17.1260 -8.5630 0.0000
vt 8.5630 -17.1260 0.0000
vt 11.8197 32.6772 0.0000
vt -11.8197 32.6772 0.0000
vt 11.8197 39.3701 0.0000
vt -11.8197 39.3701 0.0000
vt -11.8197 -5.9099 0.0000
vt -19.6850 5.9099 0.0000
vt -19.6850 -5.9099 0.0000
vt -11.8197 5.9099 0.0000
vt 19.6850 35.4331 0.0000
vt 11.8197 35.4331 0.0000
vt 5.9099 -19.6850 0.0000
vt -5.9099 -11.8197 0.0000
vt -5.9099 -19.6850 0.0000
vt 5.9099 -11.8197 0.0000
vt -19.6850 35.4331 0.0000
vt -11.8197 35.4331 0.0000
vt 7.8497 44.4882 0.0000
vt -7.8497 32.6772 0.0000
vt 7.8497 32.6772 0.0000
vt -7.8497 44.4882 0.0000
vt -11.8197 11.8197 0.0000
vt -5.9099 19.6850 0.0000
vt -5.9099 11.8197 0.0000
vt 19.6850 5.9099 0.0000
vt 11.8197 11.8197 0.0000
vt 11.8197 5.9099 0.0000
vt 5.9099 19.6850 0.0000
vt 5.9099 11.8197 0.0000
vt 19.6850 -5.9099 0.0000
vt 11.8197 -5.9099 0.0000
vt 11.8197 -11.8197 0.0000
vt -11.8197 -11.8197 0.0000
vt -7.8497 -7.8497 0.0000
vt 7.8497 -7.8497 0.0000
vt 7.8497 7.8497 0.0000
vt -7.8497 7.8497 0.0000
# 104 texture coords

o towerSquare_sampleC
g towerSquare_sampleC
usemtl tile_tower_squareC_tile_tower_squareC_towerSquare_sampleC_purple
s 1
f 1/1/1 2/2/1 3/3/1 
f 2/2/1 1/1/1 4/4/1 
f 5/5/2 6/6/2 7/7/2 
f 6/6/2 5/5/2 8/8/2 
f 9/8/3 10/7/3 11/5/3 
f 10/7/3 9/8/3 12/6/3 
f 13/1/3 14/2/3 15/3/3 
f 14/2/3 13/1/3 16/4/3 
f 17/9/4 1/10/4 16/11/4 
f 1/10/4 17/9/4 18/12/4 
f 1/10/4 18/12/4 19/13/4 
f 1/10/4 19/13/4 20/14/4 
f 4/11/5 11/14/5 13/10/5 
f 11/14/5 4/11/5 21/13/5 
f 21/13/5 4/11/5 7/12/5 
f 7/12/5 4/11/5 5/9/5 
f 20/9/6 4/10/6 1/11/6 
f 4/10/6 20/9/6 5/14/6 
f 5/14/6 20/9/6 22/12/6 
f 5/14/6 22/12/6 23/13/6 
f 2/3/2 13/4/2 15/2/2 
f 13/4/2 2/3/2 4/1/2 
f 11/9/7 16/10/7 13/11/7 
f 16/10/7 11/9/7 17/14/7 
f 17/14/7 11/9/7 10/12/7 
f 17/14/7 10/12/7 24/13/7 
f 25/8/1 22/7/1 20/5/1 
f 22/7/1 25/8/1 26/6/1 
f 1/4/8 14/3/8 16/1/8 
f 14/3/8 1/4/8 3/2/8 
f 8/15/9 27/16/9 28/17/9 
f 27/16/9 8/15/9 6/18/9 
f 29/19/9 12/20/9 30/21/9 
f 12/20/9 29/19/9 9/22/9 
f 2/23/9 14/24/9 3/25/9 
f 14/24/9 2/23/9 15/26/9 
f 26/27/9 31/28/9 25/29/9 
f 31/28/9 26/27/9 32/30/9 
f 33/6/8 17/5/8 34/8/8 
f 17/5/8 33/6/8 18/7/8 
f 28/31/1 5/32/1 23/33/1 
f 5/32/1 28/31/1 8/34/1 
f 35/31/3 17/32/3 24/33/3 
f 17/32/3 35/31/3 34/34/3 
f 25/34/8 19/33/8 31/31/8 
f 19/33/8 25/34/8 20/32/8 
f 21/33/2 9/34/2 11/32/2 
f 9/34/2 21/33/2 29/31/2 
f 36/35/10 37/36/10 38/37/10 
f 37/36/10 36/35/10 39/38/10 
f 37/37/11 40/38/11 41/36/11 
f 40/38/11 37/37/11 39/35/11 
f 42/39/12 43/40/12 44/41/12 
f 43/40/12 42/39/12 38/42/12 
f 40/35/13 42/36/13 41/37/13 
f 42/36/13 40/35/13 45/38/13 
f 45/35/14 38/36/14 42/37/14 
f 38/36/14 45/35/14 36/38/14 
f 43/43/15 46/44/15 47/45/15 
f 46/44/15 43/43/15 48/46/15 
f 49/44/16 48/43/16 50/46/16 
f 48/43/16 49/44/16 46/45/16 
f 50/43/17 51/44/17 49/45/17 
f 51/44/17 50/43/17 44/46/17 
f 43/46/18 51/45/18 44/43/18 
f 51/45/18 43/46/18 47/44/18 
f 38/39/19 48/40/19 43/41/19 
f 48/40/19 38/39/19 37/42/19 
f 40/47/20 36/48/20 45/49/20 
f 36/48/20 40/47/20 39/50/20 
f 48/41/21 41/42/21 50/40/21 
f 41/42/21 48/41/21 37/39/21 
f 41/39/22 44/40/22 50/41/22 
f 44/40/22 41/39/22 42/42/22 
usemtl tile_tower_squareC_tile_tower_squareC_towerSquare_sampleC_stone
f 52/51/3 53/52/3 54/53/3 
f 53/52/3 52/51/3 55/54/3 
f 53/52/3 55/54/3 56/55/3 
f 57/56/3 54/53/3 53/52/3 
f 54/53/3 57/56/3 58/57/3 
f 58/57/3 57/56/3 59/58/3 
f 60/59/1 26/6/1 25/8/1 
f 26/6/1 60/59/1 28/31/1 
f 28/31/1 60/59/1 8/34/1 
f 8/34/1 60/59/1 61/60/1 
f 23/33/1 26/6/1 28/31/1 
f 26/6/1 23/33/1 22/7/1 
f 60/60/8 34/8/8 62/59/8 
f 34/8/8 60/60/8 33/6/8 
f 33/6/8 60/60/8 18/7/8 
f 18/7/8 60/60/8 31/31/8 
f 31/31/8 60/60/8 25/34/8 
f 19/33/8 18/7/8 31/31/8 
f 63/51/1 64/52/1 65/53/1 
f 64/52/1 63/51/1 66/54/1 
f 64/52/1 66/54/1 67/55/1 
f 68/56/1 65/53/1 64/52/1 
f 65/53/1 68/56/1 69/57/1 
f 69/57/1 68/56/1 70/58/1 
f 71/59/3 12/6/3 9/8/3 
f 12/6/3 71/59/3 35/31/3 
f 35/31/3 71/59/3 34/34/3 
f 34/34/3 71/59/3 62/60/3 
f 24/33/3 12/6/3 35/31/3 
f 12/6/3 24/33/3 10/7/3 
f 63/61/23 62/62/23 54/63/23 
f 62/62/23 63/61/23 60/64/23 
f 71/64/24 65/63/24 52/61/24 
f 65/63/24 71/64/24 61/62/24 
f 52/53/2 72/56/2 55/57/2 
f 72/56/2 52/53/2 65/51/2 
f 72/56/2 65/51/2 73/52/2 
f 73/52/2 65/51/2 74/55/2 
f 74/55/2 65/51/2 69/54/2 
f 75/58/2 55/57/2 72/56/2 
f 76/65/9 34/66/9 33/67/9 
f 34/66/9 76/65/9 35/68/9 
f 52/63/25 62/64/25 71/62/25 
f 62/64/25 52/63/25 54/61/25 
f 63/63/26 61/64/26 60/62/26 
f 61/64/26 63/63/26 65/61/26 
f 77/69/3 78/52/3 79/70/3 
f 78/52/3 77/69/3 80/71/3 
f 78/52/3 80/71/3 81/55/3 
f 82/56/3 79/70/3 78/52/3 
f 79/70/3 82/56/3 83/72/3 
f 83/72/3 82/56/3 84/58/3 
f 85/70/2 86/56/2 87/72/2 
f 86/56/2 85/70/2 79/69/2 
f 86/56/2 79/69/2 88/52/2 
f 88/52/2 79/69/2 89/55/2 
f 89/55/2 79/69/2 83/71/2 
f 90/58/2 87/72/2 86/56/2 
f 66/57/8 91/56/8 92/58/8 
f 63/53/8 91/56/8 66/57/8 
f 63/53/8 93/52/8 91/56/8 
f 54/51/8 93/52/8 63/53/8 
f 54/51/8 94/55/8 93/52/8 
f 94/55/8 54/51/8 58/54/8 
f 85/69/1 95/52/1 96/70/1 
f 95/52/1 85/69/1 87/71/1 
f 95/52/1 87/71/1 97/55/1 
f 98/56/1 96/70/1 95/52/1 
f 96/70/1 98/56/1 99/72/1 
f 99/72/1 98/56/1 100/58/1 
f 80/72/8 101/56/8 102/58/8 
f 77/70/8 101/56/8 80/72/8 
f 77/70/8 103/52/8 101/56/8 
f 96/69/8 103/52/8 77/70/8 
f 96/69/8 104/55/8 103/52/8 
f 104/55/8 96/69/8 99/71/8 
f 7/7/2 29/31/2 21/33/2 
f 6/6/2 29/31/2 7/7/2 
f 61/59/2 29/31/2 6/6/2 
f 71/60/2 29/31/2 61/59/2 
f 29/31/2 71/60/2 9/34/2 
f 61/59/2 6/6/2 8/8/2 
f 86/73/20 91/74/20 93/75/20 
f 91/74/20 86/73/20 88/76/20 
f 64/77/2 84/71/2 82/78/2 
f 84/71/2 64/77/2 67/54/2 
f 53/79/20 95/80/20 57/81/20 
f 95/80/20 53/79/20 98/82/20 
f 89/72/3 91/83/3 88/84/3 
f 91/83/3 89/72/3 92/57/3 
f 100/71/8 53/77/8 56/54/8 
f 53/77/8 100/71/8 98/78/8 
f 94/54/1 86/78/1 93/77/1 
f 86/78/1 94/54/1 90/71/1 
f 47/85/1 105/86/1 106/87/1 
f 105/86/1 47/85/1 46/88/1 
f 89/76/20 66/23/20 92/74/20 
f 66/23/20 89/76/20 83/89/20 
f 66/23/20 83/89/20 67/90/20 
f 67/90/20 83/89/20 84/91/20 
f 70/57/8 78/84/8 81/72/8 
f 78/84/8 70/57/8 68/83/8 
f 104/72/1 72/83/1 103/84/1 
f 72/83/1 104/72/1 75/57/1 
f 74/92/20 80/93/20 102/94/20 
f 69/25/20 80/93/20 74/92/20 
f 70/95/20 80/93/20 69/25/20 
f 80/93/20 70/95/20 81/96/20 
f 95/84/2 59/57/2 57/83/2 
f 59/57/2 95/84/2 97/72/2 
f 72/97/20 101/94/20 103/98/20 
f 101/94/20 72/97/20 73/92/20 
f 78/96/20 64/90/20 82/91/20 
f 64/90/20 78/96/20 68/95/20 
f 47/88/8 107/87/8 51/85/8 
f 107/87/8 47/88/8 106/86/8 
f 49/85/3 107/86/3 108/87/3 
f 107/86/3 49/85/3 51/88/3 
f 105/87/2 49/88/2 108/86/2 
f 49/88/2 105/87/2 46/85/2 
f 55/24/20 100/82/20 56/79/20 
f 100/82/20 55/24/20 99/99/20 
f 99/99/20 55/24/20 104/98/20 
f 104/98/20 55/24/20 75/97/20 
f 74/54/3 101/78/3 73/77/3 
f 101/78/3 74/54/3 102/71/3 
f 90/73/20 94/75/20 87/100/20 
f 94/75/20 59/81/20 87/100/20 
f 59/81/20 94/75/20 58/26/20 
f 87/100/20 59/81/20 97/80/20 
usemtl tile_tower_squareC_tile_tower_squareC_towerSquare_sampleC_stoneDark
f 85/100/20 107/101/20 79/89/20 
f 107/101/20 85/100/20 96/99/20 
f 107/101/20 96/99/20 108/102/20 
f 108/102/20 96/99/20 105/103/20 
f 106/104/20 79/89/20 107/101/20 
f 79/89/20 106/104/20 77/93/20 
f 77/93/20 106/104/20 105/103/20 
f 77/93/20 105/103/20 96/99/20 
# 212 faces

