# 3ds Max Wavefront OBJ Exporter v0.97b - (c)2007 guruware
# ÆÄÀÏ »ý¼ºµÊ: 15.11.2020 15:38:48

mtllib tile_tower_ballista.mtl

#
# object tile
#

v  -0.5000 0.0000 0.5000
v  0.5000 0.0000 -0.5000
v  0.5000 0.0000 0.5000
v  -0.5000 0.0000 -0.5000
v  0.5000 0.1000 0.5000
v  0.5000 0.1000 -0.5000
v  -0.5000 0.1000 0.5000
v  -0.5000 0.1000 -0.5000
v  -0.5000 0.2000 -0.5000
v  0.5000 0.2000 0.5000
v  0.5000 0.2000 -0.5000
v  -0.5000 0.2000 0.5000
# 12 vertices

vn 0.0000 -1.0000 -0.0000
vn 1.0000 0.0000 -0.0000
vn 0.0000 0.0000 1.0000
vn -1.0000 0.0000 -0.0000
vn 0.0000 0.0000 -1.0000
vn 0.0000 1.0000 -0.0000
# 6 vertex normals

vt -19.6850 19.6850 0.0000
vt 19.6850 -19.6850 0.0000
vt 19.6850 19.6850 0.0000
vt -19.6850 -19.6850 0.0000
vt -19.6850 3.9370 0.0000
vt 19.6850 0.0000 0.0000
vt 19.6850 3.9370 0.0000
vt -19.6850 0.0000 0.0000
vt -19.6850 7.8740 0.0000
vt 19.6850 7.8740 0.0000
# 10 texture coords

o tile
g tile
usemtl tile_tower_ballista_tile_dirt
s 1
f 1/1/1 2/2/1 3/3/1 
f 2/2/1 1/1/1 4/4/1 
f 5/5/2 2/6/2 6/7/2 
f 2/6/2 5/5/2 3/8/2 
f 5/7/3 1/8/3 3/6/3 
f 1/8/3 5/7/3 7/5/3 
f 1/6/4 8/5/4 4/8/4 
f 8/5/4 1/6/4 7/7/4 
f 8/7/5 2/8/5 4/6/5 
f 2/8/5 8/7/5 6/5/5 
usemtl tile_tower_ballista_tile_foliage
f 9/2/6 10/1/6 11/4/6 
f 10/1/6 9/2/6 12/3/6 
f 10/9/2 6/7/2 11/10/2 
f 6/7/2 10/9/2 5/5/2 
f 9/10/5 6/5/5 8/7/5 
f 6/5/5 9/10/5 11/9/5 
f 7/7/4 9/9/4 8/5/4 
f 9/9/4 7/7/4 12/10/4 
f 10/10/3 7/5/3 5/7/3 
f 7/5/3 10/10/3 12/9/3 
# 20 faces

#
# object towerSquare_sampleF
#

v  0.4350 0.7000 0.4350
v  0.2175 0.5200 0.4350
v  0.4350 0.5200 0.4350
v  0.2175 0.7000 0.4350
v  -0.4350 0.5200 -0.4350
v  0.5000 0.4000 -0.5000
v  -0.5000 0.4000 -0.5000
v  0.4350 0.5200 -0.4350
v  -0.2175 0.5200 -0.4350
v  0.2175 0.5200 -0.4350
v  -0.4350 0.7000 -0.4350
v  -0.2175 0.7000 -0.4350
v  0.2175 0.7000 -0.2175
v  0.4350 0.7000 -0.4350
v  0.4350 0.7000 -0.2175
v  0.2175 0.7000 -0.4350
v  -0.5000 0.2000 0.5000
v  -0.5000 0.2000 -0.5000
v  -0.5000 0.4000 0.5000
v  -0.4350 0.7000 -0.2175
v  -0.2175 0.7000 -0.2175
v  0.5000 0.4000 0.5000
v  -0.4350 0.5200 0.4350
v  -0.2175 0.5200 0.4350
v  0.4350 0.5200 -0.2175
v  0.4350 0.5200 0.2175
v  0.5000 0.2000 0.5000
v  -0.4350 0.7000 0.4350
v  -0.2175 0.7000 0.2175
v  -0.2175 0.7000 0.4350
v  -0.4350 0.7000 0.2175
v  -0.4350 0.5200 -0.2175
v  -0.4350 0.5200 0.2175
v  0.4350 0.7000 0.2175
v  0.2175 0.7000 0.2175
v  0.5000 0.2000 -0.5000
v  -0.1501 1.1000 0.3002
v  0.1501 1.1000 0.5000
v  0.1501 1.1000 0.3002
v  -0.1501 1.1000 0.5000
v  -0.1994 1.0300 -0.1994
v  0.1994 1.0300 0.1994
v  0.1994 1.0300 -0.1994
v  -0.1994 1.0300 0.1994
v  0.5000 1.2000 -0.1501
v  0.3002 1.1000 -0.1501
v  0.5000 1.1000 -0.1501
v  0.3002 1.2000 -0.1501
v  0.1501 1.2000 0.3002
v  0.1501 1.2000 0.5000
v  -0.1501 1.2000 0.5000
v  -0.1501 1.2000 0.3002
v  -0.5000 1.0000 -0.5000
v  -0.1501 1.1000 -0.5000
v  0.5000 1.0000 -0.5000
v  -0.5000 1.2000 -0.5000
v  -0.1501 1.2000 -0.5000
v  0.1501 1.1000 -0.5000
v  0.5000 1.2000 -0.5000
v  0.1501 1.2000 -0.5000
v  0.5000 1.0000 0.5000
v  -0.4350 0.8800 0.4350
v  0.4350 0.8800 0.4350
v  -0.5000 1.0000 0.5000
v  0.4350 0.8800 -0.4350
v  -0.4350 0.8800 -0.4350
v  -0.3002 1.0300 0.3002
v  0.3002 1.0300 0.3002
v  -0.3002 1.2000 0.3002
v  0.3002 1.2000 0.3002
v  0.3002 1.0300 -0.3002
v  0.3002 1.2000 -0.3002
v  0.3002 1.1000 0.1501
v  0.3002 1.2000 0.1501
v  0.1501 1.1000 -0.3002
v  -0.3002 1.0300 -0.3002
v  0.1501 1.2000 -0.3002
v  -0.1501 1.1000 -0.3002
v  -0.3002 1.2000 -0.3002
v  -0.1501 1.2000 -0.3002
v  -0.3002 1.1000 0.1501
v  -0.3002 1.2000 0.1501
v  -0.3002 1.1000 -0.1501
v  -0.3002 1.2000 -0.1501
v  -0.5000 1.2000 -0.1501
v  0.5000 1.2000 0.5000
v  0.5000 1.1000 0.1501
v  0.5000 1.2000 0.1501
v  -0.5000 1.2000 0.5000
v  -0.5000 1.1000 -0.1501
v  -0.5000 1.1000 0.1501
v  -0.5000 1.2000 0.1501
# 92 vertices

vn 0.0000 0.0000 1.0000
vn 0.0000 0.4763 -0.8793
vn 0.0000 0.0000 -1.0000
vn 0.0000 -1.0000 -0.0000
vn -1.0000 0.0000 -0.0000
vn 0.0000 0.4763 0.8793
vn 0.8793 0.4763 -0.0000
vn 1.0000 0.0000 -0.0000
vn -0.8793 0.4763 -0.0000
vn 0.0000 1.0000 -0.0000
vn 0.0000 -0.4763 0.8793
vn 0.0000 -0.4763 -0.8793
vn -0.8793 -0.4763 -0.0000
vn 0.8793 -0.4763 -0.0000
# 14 vertex normals

vt 17.1260 19.6850 0.0000
vt 8.5630 12.5984 0.0000
vt 17.1260 12.5984 0.0000
vt 8.5630 19.6850 0.0000
vt 17.1260 2.9209 0.0000
vt -19.6850 -2.4521 0.0000
vt 19.6850 -2.4521 0.0000
vt -17.1260 2.9209 0.0000
vt 8.5630 2.9209 0.0000
vt -8.5630 2.9209 0.0000
vt 8.5630 -8.5630 0.0000
vt 17.1260 -17.1260 0.0000
vt 17.1260 -8.5630 0.0000
vt 8.5630 -17.1260 0.0000
vt 19.6850 0.0000 0.0000
vt -19.6850 7.8740 0.0000
vt -19.6850 0.0000 0.0000
vt 19.6850 7.8740 0.0000
vt -17.1260 -8.5630 0.0000
vt -8.5630 -17.1260 0.0000
vt -8.5630 -8.5630 0.0000
vt -17.1260 -17.1260 0.0000
vt -17.1260 17.1260 0.0000
vt -8.5630 8.5630 0.0000
vt -8.5630 17.1260 0.0000
vt -17.1260 8.5630 0.0000
vt -8.5630 19.6850 0.0000
vt -17.1260 12.5984 0.0000
vt -8.5630 12.5984 0.0000
vt -17.1260 19.6850 0.0000
vt 8.5630 17.1260 0.0000
vt 17.1260 8.5630 0.0000
vt 17.1260 17.1260 0.0000
vt 8.5630 8.5630 0.0000
vt -19.6850 19.6850 0.0000
vt 19.6850 -19.6850 0.0000
vt 19.6850 19.6850 0.0000
vt -19.6850 -19.6850 0.0000
vt 5.9099 11.8197 0.0000
vt -5.9099 19.6850 0.0000
vt -5.9099 11.8197 0.0000
vt 5.9099 19.6850 0.0000
vt 7.8497 -7.8497 0.0000
vt -7.8497 7.8497 0.0000
vt -7.8497 -7.8497 0.0000
vt 7.8497 7.8497 0.0000
vt 19.6850 39.3701 0.0000
vt 11.8197 35.4331 0.0000
vt 19.6850 35.4331 0.0000
vt 11.8197 39.3701 0.0000
vt -19.6850 39.3701 0.0000
vt -11.8197 35.4331 0.0000
vt -11.8197 39.3701 0.0000
vt -19.6850 35.4331 0.0000
vt 19.6850 31.4961 0.0000
vt 5.9099 35.4331 0.0000
vt -19.6850 31.4961 0.0000
vt 5.9099 39.3701 0.0000
vt -5.9099 35.4331 0.0000
vt -5.9099 39.3701 0.0000
vt 19.6850 37.0699 0.0000
vt -17.1260 31.6969 0.0000
vt 17.1260 31.6969 0.0000
vt -19.6850 37.0699 0.0000
vt 17.1260 26.7717 0.0000
vt -17.1260 26.7717 0.0000
vt 11.8197 32.6772 0.0000
vt -11.8197 32.6772 0.0000
vt -11.8197 -5.9099 0.0000
vt -19.6850 -5.9099 0.0000
vt -11.8197 -11.8197 0.0000
vt -5.9099 -19.6850 0.0000
vt -5.9099 -11.8197 0.0000
vt 5.9099 -11.8197 0.0000
vt 5.9099 -19.6850 0.0000
vt 11.8197 -11.8197 0.0000
vt 11.8197 -5.9099 0.0000
vt 19.6850 -5.9099 0.0000
vt 11.8197 5.9099 0.0000
vt 19.6850 5.9099 0.0000
vt -19.6850 5.9099 0.0000
vt -11.8197 5.9099 0.0000
vt -11.8197 11.8197 0.0000
vt 11.8197 11.8197 0.0000
# 84 texture coords

o towerSquare_sampleF
g towerSquare_sampleF
usemtl tile_tower_ballista_towerSquare_sampleF_purple
s 1
f 13/11/7 14/12/7 15/13/7 
f 14/12/7 13/11/7 16/14/7 
f 17/15/8 18/16/8 19/17/8 
f 18/16/8 17/15/8 20/18/8 
f 20/18/8 17/15/8 21/19/8 
f 20/18/8 21/19/8 22/20/8 
f 23/11/9 21/12/9 17/13/9 
f 21/12/9 23/11/9 24/14/9 
f 25/21/10 26/22/10 27/23/10 
f 26/22/10 25/21/10 28/24/10 
f 29/25/11 19/26/11 30/27/11 
f 19/26/11 29/25/11 31/28/11 
f 32/29/10 24/30/10 33/31/10 
f 24/30/10 32/29/10 23/32/10 
f 15/15/12 31/16/12 34/17/12 
f 31/16/12 15/15/12 35/18/12 
f 35/18/12 15/15/12 14/19/12 
f 35/18/12 14/19/12 36/20/12 
f 20/15/13 34/16/13 18/17/13 
f 34/16/13 20/15/13 37/19/13 
f 34/16/13 37/19/13 38/20/13 
f 34/16/13 38/20/13 15/18/13 
f 34/28/7 29/27/7 39/25/7 
f 29/27/7 34/28/7 31/26/7 
f 27/14/14 20/13/14 26/11/14 
f 20/13/14 27/14/14 37/12/14 
f 40/33/10 41/34/10 42/35/10 
f 41/34/10 40/33/10 43/36/10 
f 42/37/7 35/38/7 36/39/7 
f 35/38/7 42/37/7 40/40/7 
f 31/17/15 17/18/15 19/16/15 
f 17/18/15 31/17/15 44/20/15 
f 44/20/15 31/17/15 45/19/15 
f 45/19/15 31/17/15 35/15/15 
f 16/41/10 46/42/10 13/43/10 
f 46/42/10 16/41/10 47/44/10 
f 13/40/14 38/39/14 46/37/14 
f 38/39/14 13/40/14 15/38/14 
f 34/26/14 48/25/14 18/28/14 
f 48/25/14 34/26/14 39/27/14 
f 29/45/10 48/46/10 39/47/10 
f 48/46/10 29/45/10 30/48/10 
f 19/28/9 48/27/9 30/25/9 
f 48/27/9 19/28/9 18/26/9 
f 35/13/11 43/14/11 45/12/11 
f 43/14/11 35/13/11 40/11/11 
f 28/37/9 20/38/9 22/39/9 
f 20/38/9 28/37/9 26/40/9 
f 44/39/11 23/40/11 17/38/11 
f 23/40/11 44/39/11 32/37/11 
usemtl tile_tower_ballista_towerSquare_sampleF_stone
f 49/49/16 50/50/16 51/51/16 
f 50/50/16 49/49/16 52/52/16 
f 53/53/16 54/54/16 55/55/16 
f 54/54/16 53/53/16 56/56/16 
f 57/57/7 58/58/7 59/59/7 
f 58/58/7 57/57/7 60/60/7 
f 50/59/11 61/60/11 51/58/11 
f 61/60/11 50/59/11 62/57/11 
f 63/61/14 49/62/14 64/63/14 
f 49/62/14 63/61/14 52/64/14 
f 65/65/9 66/66/9 67/67/9 
f 66/66/9 65/65/9 68/57/9 
f 66/66/9 68/57/9 69/68/9 
f 70/69/9 67/67/9 66/66/9 
f 67/67/9 70/69/9 71/61/9 
f 71/61/9 70/69/9 72/70/9 
f 73/71/17 74/72/17 75/73/17 
f 74/72/17 73/71/17 76/74/17 
f 65/71/18 77/72/18 78/73/18 
f 77/72/18 65/71/18 67/74/18 
f 45/12/11 32/37/11 44/39/11 
f 43/14/11 32/37/11 45/12/11 
f 74/75/11 32/37/11 43/14/11 
f 78/76/11 32/37/11 74/75/11 
f 32/37/11 78/76/11 23/40/11 
f 74/75/11 43/14/11 40/11/11 
f 78/72/19 76/71/19 65/74/19 
f 76/71/19 78/72/19 74/73/19 
f 79/77/9 49/66/9 80/78/9 
f 49/66/9 79/77/9 81/60/9 
f 49/66/9 81/60/9 64/68/9 
f 51/69/9 80/78/9 49/66/9 
f 80/78/9 51/69/9 82/63/9 
f 82/63/9 51/69/9 61/70/9 
f 83/78/11 58/69/11 84/63/11 
f 58/69/11 83/78/11 80/77/11 
f 58/69/11 80/77/11 85/66/11 
f 85/66/11 80/77/11 86/68/11 
f 86/68/11 80/77/11 82/60/11 
f 60/70/11 84/63/11 58/69/11 
f 83/77/7 87/66/7 88/78/7 
f 87/66/7 83/77/7 84/60/7 
f 87/66/7 84/60/7 89/68/7 
f 90/69/7 88/78/7 87/66/7 
f 88/78/7 90/69/7 91/63/7 
f 91/63/7 90/69/7 92/70/7 
f 81/63/14 93/69/14 94/70/14 
f 79/78/14 93/69/14 81/63/14 
f 79/78/14 95/66/14 93/69/14 
f 88/77/14 95/66/14 79/78/14 
f 88/77/14 96/68/14 95/66/14 
f 96/68/14 88/77/14 91/60/14 
f 60/79/16 57/80/16 84/81/16 
f 57/80/16 72/82/16 84/81/16 
f 72/82/16 57/80/16 71/48/16 
f 84/81/16 72/82/16 89/83/16 
f 68/46/16 92/84/16 69/85/16 
f 92/84/16 68/46/16 91/86/16 
f 91/86/16 68/46/16 96/87/16 
f 96/87/16 68/46/16 97/88/16 
f 75/76/14 26/11/14 77/75/14 
f 26/11/14 75/76/14 27/14/14 
f 27/14/14 75/76/14 37/12/14 
f 37/12/14 75/76/14 46/37/14 
f 46/37/14 75/76/14 13/40/14 
f 38/39/14 37/12/14 46/37/14 
f 73/74/20 77/73/20 67/71/20 
f 77/73/20 73/74/20 75/72/20 
f 78/75/9 24/14/9 23/11/9 
f 24/14/9 78/75/9 28/37/9 
f 28/37/9 78/75/9 26/40/9 
f 26/40/9 78/75/9 77/76/9 
f 22/39/9 24/14/9 28/37/9 
f 24/14/9 22/39/9 21/12/9 
f 98/61/14 99/69/14 100/70/14 
f 73/67/14 99/69/14 98/61/14 
f 73/67/14 59/66/14 99/69/14 
f 67/65/14 59/66/14 73/67/14 
f 67/65/14 57/68/14 59/66/14 
f 57/68/14 67/65/14 71/57/14 
f 75/75/7 16/14/7 13/11/7 
f 16/14/7 75/75/7 42/37/7 
f 42/37/7 75/75/7 40/40/7 
f 40/40/7 75/75/7 74/76/7 
f 36/39/7 16/14/7 42/37/7 
f 16/14/7 36/39/7 14/12/7 
f 73/65/7 50/66/7 76/67/7 
f 50/66/7 73/65/7 98/57/7 
f 50/66/7 98/57/7 62/68/7 
f 52/69/7 76/67/7 50/66/7 
f 76/67/7 52/69/7 101/61/7 
f 101/61/7 52/69/7 63/70/7 
f 65/67/11 102/69/11 68/61/11 
f 102/69/11 65/67/11 76/65/11 
f 102/69/11 76/65/11 103/66/11 
f 103/66/11 76/65/11 104/68/11 
f 104/68/11 76/65/11 101/57/11 
f 97/70/11 68/61/11 102/69/11 
f 102/88/16 93/89/16 95/87/16 
f 93/89/16 102/88/16 103/90/16 
f 58/79/16 99/91/16 59/80/16 
f 99/91/16 58/79/16 85/92/16 
f 66/85/16 87/83/16 70/82/16 
f 87/83/16 66/85/16 90/84/16 
f 86/63/9 99/64/9 85/62/9 
f 99/64/9 86/63/9 100/61/9 
f 96/63/7 102/64/7 95/62/7 
f 102/64/7 96/63/7 97/61/7 
f 104/57/9 93/58/9 103/59/9 
f 93/58/9 104/57/9 94/60/9 
f 92/60/14 66/59/14 69/57/14 
f 66/59/14 92/60/14 90/58/14 
f 87/62/11 72/61/11 70/64/11 
f 72/61/11 87/62/11 89/63/11 
f 86/92/16 98/45/16 100/91/16 
f 98/45/16 86/92/16 82/93/16 
f 98/45/16 82/93/16 62/50/16 
f 62/50/16 82/93/16 61/51/16 
f 104/90/16 81/94/16 94/89/16 
f 101/47/16 81/94/16 104/90/16 
f 63/52/16 81/94/16 101/47/16 
f 81/94/16 63/52/16 64/49/16 
usemtl tile_tower_ballista_towerSquare_sampleF_stoneDark
f 83/81/16 55/55/16 80/93/16 
f 55/55/16 83/81/16 88/86/16 
f 55/55/16 88/86/16 53/53/16 
f 53/53/16 88/86/16 56/56/16 
f 54/54/16 80/93/16 55/55/16 
f 80/93/16 54/54/16 79/94/16 
f 79/94/16 54/54/16 56/56/16 
f 79/94/16 56/56/16 88/86/16 
# 180 faces

