# 3ds Max Wavefront OBJ Exporter v0.97b - (c)2007 guruware
# ÆÄÀÏ »ý¼ºµÊ: 12.11.2020 18:35:50

mtllib PlayerBody.mtl

#
# object Body1
#

v  -2.0022 6.0000 1.0000
v  1.9978 6.0000 1.0000
v  1.9978 12.0000 1.0000
v  -2.0022 12.0000 1.0000
v  2.0022 12.0000 -1.0000
v  -1.9978 12.0000 -1.0000
v  2.0022 6.0000 -1.0000
v  -1.9978 6.0000 -1.0000
# 8 vertices

vn 0.0000 0.0000 1.0000
vn 0.0000 1.0000 0.0000
vn -0.0000 0.0000 -1.0000
vn 0.0000 -1.0000 -0.0000
vn 1.0000 -0.0000 0.0022
vn -1.0000 0.0000 -0.0022
# 6 vertex normals

vt 0.4741 0.3774 0.0000
vt 0.6159 0.3774 0.0000
vt 0.6159 0.5901 0.0000
vt 0.4741 0.5901 0.0000
vt 0.6161 0.6610 0.0000
vt 0.4742 0.6610 0.0000
vt 0.8287 0.5901 0.0000
vt 0.6868 0.5901 0.0000
vt 0.6868 0.3774 0.0000
vt 0.8287 0.3774 0.0000
vt 0.4742 0.3064 0.0000
vt 0.6161 0.3064 0.0000
vt 0.4032 0.3774 0.0000
vt 0.4032 0.5901 0.0000
# 14 texture coords

o Body1
g Body1
usemtl advancedCharacter_lambert1
s 1
f 1/1/1 2/2/1 3/3/1 
f 1/1/1 3/3/1 4/4/1 
f 4/4/2 3/3/2 5/5/2 
f 4/4/2 5/5/2 6/6/2 
f 6/7/3 5/8/3 7/9/3 
f 6/7/3 7/9/3 8/10/3 
f 8/11/4 7/12/4 2/2/4 
f 8/11/4 2/2/4 1/1/4 
f 2/2/5 7/9/5 5/8/5 
f 2/2/5 5/8/5 3/3/5 
f 8/13/6 1/1/6 4/4/6 
f 8/13/6 4/4/6 6/14/6 
# 12 faces

