# 3ds Max Wavefront OBJ Exporter v0.97b - (c)2007 guruware
# ÆÄÀÏ »ý¼ºµÊ: 12.11.2020 18:39:42

mtllib playerRArm.mtl

#
# object ArmRight1
#

v  -4.0000 9.0000 1.0000
v  -2.0000 9.0000 1.0000
v  -2.0000 12.0000 1.0000
v  -3.0000 12.0000 1.0000
v  -4.0000 7.0000 1.0000
v  -3.3333 7.0000 1.0000
v  -2.6667 7.0000 1.0000
v  -2.0000 7.0000 1.0000
v  -4.0000 6.0000 1.0000
v  -3.3333 6.0000 1.0000
v  -3.6667 5.0000 1.0000
v  -3.0000 5.0000 1.0000
v  -2.6667 6.0000 1.0000
v  -2.0000 6.0000 1.0000
v  -2.0000 12.0000 -1.0000
v  -3.0000 12.0000 -1.0000
v  -2.0000 9.0000 -1.0000
v  -4.0000 9.0000 -1.0000
v  -4.0000 7.0000 -1.0000
v  -2.0000 7.0000 -1.0000
v  -3.3333 7.0000 -1.0000
v  -3.3333 6.0000 -1.0000
v  -4.0000 6.0000 -1.0000
v  -3.0000 5.0000 -1.0000
v  -3.6667 5.0000 -1.0000
v  -2.0000 7.0000 -0.0000
v  -2.0000 6.0000 -0.0000
v  -2.6667 6.0000 -0.0000
v  -2.6667 7.0000 -0.0000
v  -2.6667 7.0000 -1.0000
# 30 vertices

vn 0.0000 0.0000 1.0000
vn 0.0000 1.0000 -0.0000
vn 0.0000 0.0000 -1.0000
vn 1.0000 0.0000 -0.0000
vn -0.9487 0.3162 -0.0000
vn -1.0000 0.0000 -0.0000
vn 0.0000 -1.0000 -0.0000
vn 0.9487 0.3162 -0.0000
vn -0.9487 -0.3162 -0.0000
# 9 vertex normals

vt 0.1101 0.4463 0.0000
vt 0.1825 0.4463 0.0000
vt 0.1825 0.5550 0.0000
vt 0.1463 0.5550 0.0000
vt 0.1101 0.3738 0.0000
vt 0.1342 0.3738 0.0000
vt 0.1584 0.3738 0.0000
vt 0.1825 0.3738 0.0000
vt 0.1101 0.3375 0.0000
vt 0.1342 0.3375 0.0000
vt 0.1221 0.3013 0.0000
vt 0.1463 0.3013 0.0000
vt 0.1584 0.3375 0.0000
vt 0.1825 0.3375 0.0000
vt 0.1825 0.6275 0.0000
vt 0.1463 0.6275 0.0000
vt 0.2913 0.5550 0.0000
vt 0.2550 0.5550 0.0000
vt 0.2550 0.4463 0.0000
vt 0.3275 0.4463 0.0000
vt 0.3275 0.3738 0.0000
vt 0.2550 0.3738 0.0000
vt 0.3033 0.3738 0.0000
vt 0.3033 0.3375 0.0000
vt 0.3275 0.3375 0.0000
vt 0.2913 0.3013 0.0000
vt 0.3154 0.3013 0.0000
vt 0.2188 0.3738 0.0000
vt 0.2188 0.3375 0.0000
vt 0.0376 0.4463 0.0000
vt 0.1101 0.5550 0.0000
vt 0.0376 0.5550 0.0000
vt 0.0376 0.3738 0.0000
vt 0.0376 0.3375 0.0000
vt 0.0376 0.3013 0.0000
vt 0.0376 0.2771 0.0000
vt 0.1101 0.2771 0.0000
vt 0.1101 0.3013 0.0000
vt 0.0376 0.2047 0.0000
vt 0.1101 0.2047 0.0000
vt 0.1101 0.2409 0.0000
vt 0.0376 0.2409 0.0000
vt 0.1825 0.3134 0.0000
vt 0.2188 0.3134 0.0000
vt 0.0738 0.1805 0.0000
vt 0.0376 0.1805 0.0000
vt 0.0376 0.1563 0.0000
vt 0.0738 0.1563 0.0000
vt 0.1101 0.1805 0.0000
vt 0.1825 0.2771 0.0000
vt 0.2188 0.2771 0.0000
vt 0.2429 0.2771 0.0000
vt 0.2429 0.3134 0.0000
# 53 texture coords

o ArmRight1
g ArmRight1
usemtl advancedCharacter_lambert1
s 1
f 1/1/1 2/2/1 3/3/1 
f 1/1/1 3/3/1 4/4/1 
f 1/1/1 5/5/1 6/6/1 
f 1/1/1 6/6/1 7/7/1 
f 1/1/1 7/7/1 8/8/1 
f 8/8/1 2/2/1 1/1/1 
f 6/6/1 5/5/1 9/9/1 
f 6/6/1 9/9/1 10/10/1 
f 10/10/1 9/9/1 11/11/1 
f 10/10/1 11/11/1 12/12/1 
f 8/8/1 7/7/1 13/13/1 
f 8/8/1 13/13/1 14/14/1 
f 4/4/2 3/3/2 15/15/2 
f 4/4/2 15/15/2 16/16/2 
f 16/17/3 15/18/3 17/19/3 
f 16/17/3 17/19/3 18/20/3 
f 19/21/3 18/20/3 17/19/3 
f 19/21/3 17/19/3 20/22/3 
f 19/21/3 21/23/3 22/24/3 
f 19/21/3 22/24/3 23/25/3 
f 23/25/3 22/24/3 24/26/3 
f 23/25/3 24/26/3 25/27/3 
f 2/2/4 17/19/4 15/18/4 
f 2/2/4 15/18/4 3/3/4 
f 2/2/4 8/8/4 26/28/4 
f 2/2/4 26/28/4 20/22/4 
f 20/22/4 17/19/4 2/2/4 
f 26/28/4 8/8/4 14/14/4 
f 26/28/4 14/14/4 27/29/4 
f 18/30/5 1/1/5 4/31/5 
f 18/30/5 4/31/5 16/32/5 
f 19/33/6 5/5/6 1/1/6 
f 19/33/6 1/1/6 18/30/6 
f 5/5/6 19/33/6 23/34/6 
f 5/5/6 23/34/6 9/9/6 
f 25/35/7 24/36/7 12/37/7 
f 25/35/7 12/37/7 11/38/7 
f 21/39/4 6/40/4 10/41/4 
f 21/39/4 10/41/4 22/42/4 
f 22/42/8 10/41/8 12/37/8 
f 22/42/8 12/37/8 24/36/8 
f 9/9/9 23/34/9 25/35/9 
f 9/9/9 25/35/9 11/38/9 
f 14/14/7 13/43/7 28/44/7 
f 14/14/7 28/44/7 27/29/7 
f 29/45/7 30/46/7 20/47/7 
f 29/45/7 20/47/7 26/48/7 
f 6/40/7 30/46/7 29/45/7 
f 29/45/7 7/49/7 6/40/7 
f 6/40/7 21/39/7 30/46/7 
f 7/50/6 29/51/6 28/44/6 
f 7/50/6 28/44/6 13/43/6 
f 29/51/3 26/52/3 27/53/3 
f 29/51/3 27/53/3 28/44/3 
# 54 faces

